/* XPM */
static char *adams890[] = {
/* columns rows colors chars-per-pixel */
"32 32 169 2",
"   c black",
".  c gray5",
"X  c #181818",
"o  c #191919",
"O  c gray10",
"+  c gray11",
"@  c #1E1E1E",
"#  c gray12",
"$  c #202020",
"%  c #222222",
"&  c #232323",
"*  c #252525",
"=  c gray15",
"-  c #272727",
";  c #282828",
":  c gray16",
">  c gray17",
",  c #2C2C2C",
"<  c gray18",
"1  c #2F2F2F",
"2  c gray19",
"3  c #313131",
"4  c #323232",
"5  c gray20",
"6  c #343434",
"7  c #353535",
"8  c gray21",
"9  c #393939",
"0  c #3A3A3A",
"q  c gray23",
"w  c #3C3C3C",
"e  c gray24",
"r  c #3E3E3E",
"t  c #3F3F3F",
"y  c gray25",
"u  c #414141",
"i  c gray26",
"p  c #434343",
"a  c #444444",
"s  c #464646",
"d  c gray28",
"f  c #494949",
"g  c gray29",
"h  c #4B4B4B",
"j  c #4C4C4C",
"k  c gray30",
"l  c #4E4E4E",
"z  c gray31",
"x  c #505050",
"c  c #515151",
"v  c gray32",
"b  c #535353",
"n  c gray33",
"m  c #555555",
"M  c #565656",
"N  c gray34",
"B  c #585858",
"V  c gray35",
"C  c #5A5A5A",
"Z  c #5B5B5B",
"A  c gray36",
"S  c #5D5D5D",
"D  c gray37",
"F  c #5F5F5F",
"G  c gray38",
"H  c gray39",
"J  c #646464",
"K  c gray40",
"L  c #676767",
"P  c #6A6A6A",
"I  c #6C6C6C",
"U  c #6D6D6D",
"Y  c gray44",
"T  c #717171",
"R  c #747474",
"E  c gray46",
"W  c #777777",
"Q  c gray48",
"!  c #7B7B7B",
"~  c #7C7C7C",
"^  c gray49",
"/  c gray50",
"(  c #818181",
")  c #838383",
"_  c gray52",
"`  c #868686",
"'  c #888888",
"]  c #8B8B8B",
"[  c #8D8D8D",
"{  c #8E8E8E",
"}  c gray56",
"|  c #909090",
" . c #929292",
".. c gray58",
"X. c #959595",
"o. c gray59",
"O. c gray60",
"+. c #9A9A9A",
"@. c gray61",
"#. c gray62",
"$. c gray63",
"%. c #A2A2A2",
"&. c gray64",
"*. c #A4A4A4",
"=. c #A5A5A5",
"-. c gray65",
";. c #A7A7A7",
":. c gray66",
">. c #A9A9A9",
",. c #AAAAAA",
"<. c gray67",
"1. c #ACACAC",
"2. c #AFAFAF",
"3. c gray69",
"4. c #B1B1B1",
"5. c #B2B2B2",
"6. c #B4B4B4",
"7. c gray71",
"8. c #B6B6B6",
"9. c #B7B7B7",
"0. c gray72",
"q. c #B9B9B9",
"w. c gray73",
"e. c #BBBBBB",
"r. c #BCBCBC",
"t. c gray74",
"y. c gray",
"u. c gray75",
"i. c #C0C0C0",
"p. c #C1C1C1",
"a. c gray76",
"s. c #C3C3C3",
"d. c #C5C5C5",
"f. c #C6C6C6",
"g. c gray79",
"h. c #CACACA",
"j. c #CBCBCB",
"k. c #CDCDCD",
"l. c #CECECE",
"z. c gray81",
"x. c #D0D0D0",
"c. c LightGray",
"v. c gray83",
"b. c #D5D5D5",
"n. c gray84",
"m. c #D7D7D7",
"M. c #D8D8D8",
"N. c #DADADA",
"B. c #DDDDDD",
"V. c gray87",
"C. c #DFDFDF",
"Z. c gray88",
"A. c #E1E1E1",
"S. c gray89",
"D. c #E4E4E4",
"F. c gray90",
"G. c #E6E6E6",
"H. c #E7E7E7",
"J. c gray91",
"K. c #E9E9E9",
"L. c #EAEAEA",
"P. c gray92",
"I. c gray93",
"U. c #EEEEEE",
"Y. c #EFEFEF",
"T. c #F1F1F1",
"R. c gray95",
"E. c #F4F4F4",
"W. c gray97",
/* pixels */
"p.p.p.p.p.p.p.p.p.p.p.p.p.p.p.p.p.p.p.p.p.p.p.p.p.p.p.p.p.p.p.p.",
"p.p.p.p.p.p.p.p.p.p.p.p.p.p.p.p.p.p.p.p.p.p.p.p.p.p.p.p.p.p.p.p.",
"p.p.p.p.p.p.p.p.p.p.p.p.p.u.p.p.p.u.p.p.p.p.p.p.p.p.p.p.p.p.p.p.",
"p.p.4.;.;.:.;.;.%.;.;.;.;.;.;.%.;.;.;.;.;.:.%.;.;.;.%.;.4.} } p.",
"p.p.;.N.p.p.u.p.8.0.p.0.8.u.p.8.8.p.u.8.u.p.8.0.p.u.8.u.k.Q x p.",
"p.p.<.s.u.h.} H m.8.D ;.c. .Z m.u.J } m.%.N k.p.Y ( m.:.N q q p.",
"p.p.:.u.k.H.;.s A.c.N  .H.:.e C.m.J ( L.0.q c.N.W P L.s.u 8 e p.",
"p.p.;.0.N N l o D H > 8 H N o Z D 2 , J Z o l H e $ Z D 2 q u p.",
"p.p.;.8.#.:.<.#.u x 4.` $ +.;.l u 4.} * ` <.J 2 <.4.;.^ , q u p.",
"p.p.;.0.h.A.A.C.^ Y T.k.s p.A.} H W.H.x 0.T.<.x L.C.A.k.h 8 e p.",
"p.p.:.0.x l x Z e $ D Z + s D u + D D $ e H l o Z x l Z , q u p.",
"p.p.;.0.:.:.P 8 8.#.2 Q 0.W > 4.;.q J 0.` * <.:.h N 8.` 2 q u p.",
"p.p.;.8.s.C.%.x Y.H.D #.T.u.s H.A.P ` W.s.s N.L.` P Y.k.h 8 e p.",
"p.p.;.0.l h h $ l N 2 2 x l X l x 2 > N x $ l x u * l x , q u p.",
"p.p.;.0.<.4.P u 8.J u p.0.0.p.0.0.0.u.8.;.x N 4.h D u.` 2 q u p.",
"p.p.;.8.h.H.:.x Y.%.l A.m.m.m.m.m.m.m.m.N.( J H.^ Y L.h.l 8 e p.",
"p.p.;.p.N x x $ N l * x x x x x x x x x x s > N u > N N , e e p.",
"p.p.%.} q q q u q q e q q q q q q q q q q e e q e e q q u 2 h p.",
"p.p.<.h e e e u e e u e e u e u u e e u u e e e e u e e e Z ` p.",
"p.p.p.p.p.p.p.p.p.p.p.p.p.p.p.p.p.p.p.p.p.p.p.p.p.p.p.p.p.p.p.p.",
"p.p.p.p.p.p.p.p.p.p.p.p.p.p.p.p.p.p.p.p.p.p.p.p.p.p.p.p.p.p.p.p.",
"p.8.2     2 #.p.p.p.p.p.p.+.2     Z p.p.p.p.p.p.p.8.8     Z p.p.",
"p.*         o p.p.p.p.p.8..         l p.p.p.p.p.p.*         J p.",
"8.    +.8.o   +.p.p.p.p.W   * p.8.o . p.p.p.p.p.;.  o 8.(   o p.",
"p.o   +.8.o   ;.p.p.p.p.W   > p.p.o   } p.p.p.p.W   u p.p..   8.",
"p.( .       W p.p.p.p.p.4..           ( p.p.p.p.J   Z p.p..   4.",
"p.P         h p.p.p.p.p.p.+.*   o >   ( p.p.p.p.P   Z p.p..   8.",
":.  o 8.p.*   ( p.p.p.p.p.p.p.p.p.2   } p.p.p.p.W   e p.p..   4.",
"}   o ;.p.>   J p.p.p.p.+.  . 8.}   . p.p.p.p.p.}   o 8.(   o p.",
"p.o         . 8.p.p.p.p.p.*         Z p.p.p.p.p.p.*         P p.",
"p.:.8     * ( p.p.p.p.p.p.:.>     J p.p.p.p.p.p.p.8.2     Z p.p.",
"p.p.p.p.p.p.p.p.p.p.p.p.p.p.p.p.p.p.p.p.p.p.p.p.p.p.p.p.p.p.p.p."
};
