/* XPM */
static char *editRender[] = {
/* columns rows colors chars-per-pixel */
"32 32 167 2",
"   c #020202",
".  c #080808",
"X  c #0E1115",
"o  c #131313",
"O  c #1B1C1D",
"+  c #091B2D",
"@  c #0A1E34",
"#  c #0E2135",
"$  c #0C2138",
"%  c #17222E",
"&  c #202020",
"*  c #2D2D2D",
"=  c #262C32",
"-  c #353535",
";  c #1C3047",
":  c #113152",
">  c #1E3A58",
",  c #184372",
"<  c #19467F",
"1  c #18487E",
"2  c #274E79",
"3  c #444444",
"4  c #4A4A4A",
"5  c #525354",
"6  c #475F7C",
"7  c #5D5F61",
"8  c #737474",
"9  c #164A80",
"0  c #154C8A",
"q  c #1A4B82",
"w  c #1B4E88",
"e  c #1D4F91",
"r  c #1D518B",
"t  c #165399",
"y  c #1C5190",
"u  c #1B5698",
"i  c #1C5B9E",
"p  c #1E5BA1",
"a  c #20528E",
"s  c #2C5585",
"d  c #2D5588",
"f  c #2F5A89",
"g  c #215592",
"h  c #225995",
"j  c #235C9B",
"k  c #285F9F",
"l  c #31598A",
"z  c #345F92",
"x  c #215EA2",
"c  c #2A619E",
"v  c #346193",
"b  c #376398",
"n  c #38669C",
"m  c #38689D",
"M  c #2561A3",
"N  c #2363AA",
"B  c #2862A3",
"V  c #2B66A9",
"C  c #2D68AD",
"Z  c #2466B0",
"A  c #2167B8",
"S  c #2268B6",
"D  c #276EBF",
"F  c #2D6BB3",
"G  c #2B6DB8",
"H  c #2E71BD",
"J  c #3B6BA2",
"K  c #3D6EA8",
"L  c #316DB4",
"P  c #3E71AC",
"I  c #3271B7",
"U  c #3372BB",
"Y  c #3B75B8",
"T  c #3F7ABB",
"R  c #2F74C1",
"E  c #3576C1",
"W  c #357CCA",
"Q  c #3879C4",
"!  c #3A7DCA",
"~  c #357DD2",
"^  c #47668F",
"/  c #43699A",
"(  c #486C96",
")  c #4072AD",
"_  c #4974A7",
"`  c #4876AD",
"'  c #4175B2",
"]  c #4278B5",
"[  c #467CB9",
"{  c #4C7EBB",
"}  c #577AA6",
"|  c #537FB5",
" . c #527EB8",
".. c #437DC2",
"X. c #3B80CE",
"o. c #3781D6",
"O. c #3D83D2",
"+. c #5981AE",
"@. c #5383BB",
"#. c #6383AC",
"$. c #638BB9",
"%. c #7593B4",
"&. c #7D9AB8",
"*. c #4681C6",
"=. c #4684CB",
"-. c #4D84C4",
";. c #4A88CE",
":. c #4085D4",
">. c #4087D8",
",. c #4289DC",
"<. c #4B8BD3",
"1. c #4C8DD9",
"2. c #4E90DA",
"3. c #5088CB",
"4. c #5B89C2",
"5. c #5A8CC8",
"6. c #528CD1",
"7. c #5C91CC",
"8. c #458DE1",
"9. c #6097D4",
"0. c #659AD5",
"q. c #759AC9",
"w. c #7A9DC5",
"e. c #74A2D5",
"r. c #74A4D8",
"t. c #7EABDA",
"y. c gray57",
"u. c #9B9B9B",
"i. c #A5A4A7",
"p. c #ACACAC",
"a. c #B3B3B3",
"s. c #BCBCBC",
"d. c #86A0C5",
"f. c #81A6D3",
"g. c #85A9D3",
"h. c #88B2DB",
"j. c #97B4D7",
"k. c #96B4D9",
"l. c #A1BAD4",
"z. c #AABCD4",
"x. c #AEC0D8",
"c. c #B5C4D7",
"v. c #B5C5DB",
"b. c #B6C9DC",
"n. c #B9C8DC",
"m. c #ABC3E0",
"M. c #B1C7E1",
"N. c #BDCFE5",
"B. c #C0C0C0",
"V. c #C3D1E5",
"C. c #C2D3E8",
"Z. c #C9D7E9",
"A. c #CCD8E8",
"S. c #D3DCE4",
"D. c #D2DDEA",
"F. c #D8DEE9",
"G. c #DDE3EC",
"H. c #DFE7F1",
"J. c #E5E9EF",
"K. c #E9E9EE",
"L. c #E4ECF5",
"P. c #EBEEF3",
"I. c #EEF1F5",
"U. c #F3F3F5",
"Y. c #F3F5F8",
"T. c #F9F8F6",
"R. c #FDFDFD",
/* pixels */
"B.B.B.B.B.B.B.B.B.B.B.B.B.B.B.B.B.B.B.B.B.B.B.B.B.B.B.B.B.B.B.B.",
"B.B.B.B.B.B.B.B.s.c.B.B.B.B.B.B.B.B.B.B.B.B.B.B.B.B.B.B.B.B.B.B.",
"B.B.B.B.B.B.5.1.2.2.2.2.6.2.2.<.<.<.;.=.*.=.*...[ [ Q T Y @.B.B.",
"B.B.B.B.B.B.<.,.8.8.8.8.,.1.,.,.O.O.O.O.X.! ! Q E E U U F ] B.B.",
"B.B.B.B.B.B.6.8.8.8.8.8.,.,.,.,.,.O.X.X.! ! Q E E U U U L ] c.s.",
"B.B.B.B.B.B.6.,.,.8.O.8.,.,.>.:.:.X.X.! ! Q Q E U U U U L ] B.B.",
"B.B.B.B.B.B.<.>.,.,.,.O.o.o.~ ~ X.O.! ! Q Q E E U U U L L ) B.B.",
"B.B.B.B.B.B.3.O.O.O.O.1.r.g.h.r.;.E W Q E Q E U U U L L C _ B.B.",
"B.B.B.B.B.B.-.O.X.X.~ 0.R.R.T.R.L.e.E E E U U U L L L C C ) B.B.",
"B.B.B.B.B.B.-.X.! ! W 9.R.A.5.g.Y.P.-.G U G F F L L L C V ) B.B.",
"B.B.B.B.B.B.-.W Q Q R 7.R.C.R S x.R.t.A G 4.q.4.L V C V x ) B.B.",
"B.B.B.B.B.B.[ E E E H 7.R.C.H A k.R.g.N j.I.U.Y.w.x V B x J B.B.",
"B.B.B.B.B.B.[ U U U G 4.T.N.N I Z.T.@.@.T.x.) $.@.M B B k J B.B.",
"B.B.B.B.B.B.] I U U G 4.Y.H.M.D.R.j.N  .U.A.$.p u B c k k / B.B.",
"B.B.B.B.B.B.) F F F Z @.I.G.N.b.w.V N M d.K.U.n.` j k k j n B.B.",
"B.B.B.B.B.B.) C C C V @.Y.b.B M x M B p t _ z.U.z.j j h h n B.B.",
"B.B.B.B.s.s.K V V V M @.I.b.i i B B j ` $.c +.K.c.h h h g b B.B.",
"B.B.B.B.B.c.J M M M p ( i.5 c c j j u +.H.G.G.S.+.r g a a b B.B.",
"B.B.B.B.B.B.m j j 2 > 5 3   c u j j h h } &.%./ r a a a a v B.B.",
"B.B.B.B.B.s.v : % O   s.s.  h u g g g y 0 0 0 r r a a w w l B.B.",
"B.B.B.B.u.5 7 O 4 R.. O X $ r r a a r r r r r r a w a w q l B.B.",
"B.B.y.3 O   R.4 * 8 O 6 , r r r r r r r r q w w q q q q 1 l B.B.",
"B.B.. B.s.  = $ ; , w q w q q 0 q q w q q q q q 1 1 < < < l B.B.",
"B.B.. 4 3   = @ # # + + @ + 1 1 1 1 1 1 1 1 1 1 1 1 q < q d B.B.",
"B.B.. a.a.  R.4 3 R.  s.B.  s s s s s s s s s s l l l l f ^ B.B.",
"B.B.. - *   3 . . 3   * - . B.B.B.B.B.B.B.B.B.B.B.B.B.B.B.B.B.B.",
"B.B.. * 4 5 3 4 5 3 5 3 * . B.B.B.B.B.B.B.B.B.B.B.B.B.B.B.B.B.B.",
"B.B.. B.R.R.R.R.R.R.R.R.B.. B.B.B.B.B.B.B.B.B.B.B.B.B.B.B.B.B.B.",
"B.B.. 8 p.p.p.p.p.p.p.p.8   B.B.B.B.B.B.B.B.B.B.B.B.B.B.B.B.B.B.",
"B.s.o . . . . . . . . . . o B.B.B.B.B.B.B.B.B.B.B.B.B.B.B.B.B.B.",
"B.B.B.B.B.B.B.B.B.B.B.B.B.B.B.B.B.B.B.B.B.B.B.B.B.B.B.B.B.B.B.B.",
"B.B.B.B.B.B.B.B.B.B.B.B.B.B.B.B.B.B.B.B.B.B.B.B.B.B.B.B.B.B.B.B."
};
