/* XPM */
static char *exploreProject[] = {
/* columns rows colors chars-per-pixel */
"32 32 164 2",
"   c black",
".  c gray5",
"X  c gray10",
"o  c gray15",
"O  c gray20",
"+  c #56503D",
"@  c #5E5437",
"#  c #58523E",
"$  c #6D5D2D",
"%  c #655933",
"&  c #695C36",
"*  c #746128",
"=  c #7C6623",
"-  c #78642B",
";  c gray25",
":  c #4C4C4C",
">  c #545147",
",  c #595340",
"<  c #535353",
"1  c gray36",
"2  c #615E55",
"3  c #646464",
"4  c gray42",
"5  c #727272",
"6  c #7B7B7B",
"7  c #846A1E",
"8  c #8C6F1A",
"9  c #957516",
"0  c #9E7C12",
"q  c #856C20",
"w  c #8E7428",
"e  c #997F33",
"r  c #A6800E",
"t  c #AD840B",
"y  c #B98C07",
"u  c #BC900E",
"i  c #BC9315",
"p  c #AF8F30",
"a  c #9F8F60",
"s  c #A08946",
"d  c #B0974A",
"f  c #BCA356",
"g  c #BEA558",
"h  c #BDA970",
"j  c #CF9D0A",
"k  c #C39D2B",
"l  c #D2A10F",
"z  c #D4A619",
"x  c #D6AB1D",
"c  c #D9A61B",
"v  c #D6AA26",
"b  c #DAAA21",
"n  c #D9AB2B",
"m  c #D9AE32",
"M  c #D9B327",
"N  c #DFB12C",
"B  c #D9B337",
"V  c #DAB13A",
"C  c #DDB932",
"Z  c #DFBE39",
"A  c #E2B735",
"S  c #E6B638",
"D  c #E6BD3F",
"F  c #CBAB4C",
"G  c #C0A75A",
"H  c #C3AA5C",
"J  c #CBAC53",
"K  c #CFB25C",
"L  c #D1AD47",
"P  c #D0AE50",
"I  c #D7B54B",
"U  c #DBB341",
"Y  c #DCB84B",
"T  c #D1B35C",
"R  c #DFBE5E",
"E  c #C1AB68",
"W  c #E6BF45",
"Q  c #E6BF48",
"!  c #E2BE53",
"~  c #E6CA4B",
"^  c #ECC048",
"/  c #E2C555",
"(  c #E6C15D",
")  c #EFC752",
"_  c #F2C553",
"`  c #F3CC5D",
"'  c #E6C162",
"]  c #E4C469",
"[  c #E9C768",
"{  c #E2C570",
"}  c #E6CA76",
"|  c #E6CA7B",
" . c #F2DF6D",
".. c #FCD26A",
"X. c #F2D97A",
"o. c #FFD772",
"O. c #FFDA75",
"+. c #FFDB7C",
"@. c #F2E57E",
"#. c #FFE17C",
"$. c #F9EA7F",
"%. c #828282",
"&. c #8C8C8C",
"*. c gray58",
"=. c #9A9A9A",
"-. c #AEA588",
";. c #A6A399",
":. c #B5AC8F",
">. c #BEB18B",
",. c #B8B29F",
"<. c #A3A3A3",
"1. c #ABABAB",
"2. c #BBB5A2",
"3. c #BCB9AF",
"4. c #B3B3B3",
"5. c #BCBCBC",
"6. c #C1B48E",
"7. c #C2BBA8",
"8. c #E6CC80",
"9. c #E9D18A",
"0. c #ECD596",
"q. c #ECD99F",
"w. c #FFDC83",
"e. c #EFDEAC",
"r. c #F2DDA4",
"t. c #F2DEAA",
"y. c #FFE581",
"u. c #FDE68C",
"i. c #FFEA84",
"p. c #F5EA91",
"a. c #FFE593",
"s. c #FFE69D",
"d. c #FFF38D",
"f. c #FCF98F",
"g. c #FFFA94",
"h. c #FFFE9A",
"j. c #F2E0AC",
"k. c #FFE6A3",
"l. c #FFEBA4",
"z. c #F2E2B4",
"x. c #F2E5BC",
"c. c #FFF4A1",
"v. c #FFFFA4",
"b. c #FFFEAB",
"n. c #FFF2B2",
"m. c #FEF1BB",
"M. c #FFFEB3",
"N. c #FFFEBA",
"B. c #C0C0C0",
"V. c #F5E8C4",
"C. c #F5EAC9",
"Z. c #FFECC0",
"A. c #FFF2C3",
"S. c #FFF2CC",
"D. c #FFFEC5",
"F. c #FFFDCA",
"G. c #FFF5DE",
"H. c #FFFDD3",
"J. c #FFFCDC",
"K. c #FCF4E3",
"L. c #FFFDE1",
"P. c #FFFCEB",
"I. c #FFFEF3",
"U. c #FFFEF8",
/* pixels */
"B.B.B.B.B.B.B.B.B.B.B.B.B.B.B.B.B.B.B.B.B.B.B.B.B.B.B.B.B.B.B.B.",
"B.B.B.B.B.B.B.B.B.3.>.>.3.B.B.B.B.B.B.B.B.B.B.B.B.B.B.B.B.B.B.B.",
"B.B.B.B.B.H K I { 8.r.x.F ;.5.B.B.B.B.B.B.B.B.B.B.B.B.B.B.B.B.B.",
"B.B.B.B.7.R P.L.F.F.b.F.C.s =.5.B.7.6.E g F K R Y -.5.B.B.B.B.B.",
"B.B.B.B.J K.v.h.h.g.h.g.H.0.g K | 9.z.C.J.H.D.M./ e d :.5.5.B.B.",
"B.B.B.7.} F.h.h.h.h.h.h.v.H.H.D.N.p.@.~ Z M z U { 8.9.p =.5.B.B.",
"B.B.B.6.t.b.h.h.h.h.h.h.h.f.Z v V R | e.x.U.U.I.Z.G.x.w 6 4.B.B.",
"B.B.B.>.r.b.g.g.g.g.g.g.h.M | I.P.P.P.L.L.L.L.L.k.S.9.* 6 4.B.B.",
"B.B.B.>.r.c.d.d.i. .~ C x ] P.H.H.H.H.H.H.H.H.H.s.S.} & %.4.B.B.",
"B.B.B.>.] u.C v V | 0.z.P.J.F.D.D.D.D.D.D.D.D.D.a.Z.Y , &.5.B.B.",
"B.B.B.2.' [ } L.H.F.D.N.N.N.N.N.M.N.N.N.N.N.N.N.a.m.B : =.5.B.B.",
"B.B.B.5.' ' t.b.b.b.b.b.b.b.b.b.b.b.b.b.b.b.b.b.u.m.i < <.B.B.B.",
"B.B.B.5.! ' t.v.h.v.h.v.h.h.h.v.h.h.v.h.h.v.h.h.i.n.r 1 <.B.B.B.",
"B.B.B.B.Q V t.h.h.g.h.h.h.h.h.h.h.h.g.h.g.g.h.h.$.X.9 3 1.B.B.B.",
"B.B.B.B.n n m.g.g.g.g.g.g.g.g.g.g.g.g.g.g.g.g.g.#.X.7 5 1.B.B.B.",
"B.B.B.B.L n Z.d.d.d.d.d.d.d.d.d.d.g.d.d.g.d.d.d.#.W $ 6 4.B.B.B.",
"B.B.B.B.P v A.d.d.d.d.d.d.d.d.d.d.d.d.d.d.d.d.d.+.W & &.4.B.B.B.",
"B.B.B.B.P j m.i.i.i.i.i.i.i.i.i.i.i.i.i.i.i.i.i.O.c > &.5.7.B.B.",
"B.B.B.B.k v l.i.y.i.i.i.i.$.i.$.i.i.i.i.i.i.i.i.O.c : =.B.B.B.B.",
"B.B.B.B.k m l.#.#.#.#.#.#.#.#.#.#.#.#.#.#.#.#.#.O.t < <.B.B.B.B.",
"B.B.B.B.f m s.+.#.#.+.#.#.#.+.#.+.#.+.#.#.` D x y q 3 1.B.B.B.B.",
"B.B.B.B.g m a.+.O.O.O.O.+.O.O.O...~ A c t 8 $ + < 3 %.4.B.B.B.B.",
"B.B.B.B.g ! w.o.o.O...O.` ^ N l 0 8 % : < 3 5 &.*.<.4.5.B.B.B.B.",
"B.B.B.B.H ! +..._ S b u 0 = @ : 1 3 5 &.=.1.1.3.5.B.B.B.B.o %.B.",
"B.B.B.B.h m b t 9 * + : 1 4 %.&.<.1.4.5.B.5.B.B.B.B.B.B.B.%.4.B.",
"B.B.B.B.,.a 2 < 3 5 %.*.<.1.4.5.. O X ; =.=.o o 3 o o %.B.. =.B.",
"B.B.B.B.5.<.*.=.1.1.4.5.B.B.B.B.  4 B.3 O &.  =.. &.&.. 4.  &.B.",
"B.B.B.B.B.5.5.5.B.B.B.B.B.B.B.B.  &.B.&.  &.  &.  B.B.  &.  &.B.",
"B.B.B.B.B.B.B.B.B.B.B.B.B.B.B.B.  3 B.3 O &.  4.. &.&.. B.  &.B.",
"B.B.B.B.B.B.B.B.B.B.B.B.B.B.B.B.  O . ; =.=.. B.%.o o %.B.  &.B.",
"B.B.B.B.B.B.B.B.B.B.B.B.B.B.B.B.  &.B.B.B.B.B.B.B.B.B.B.<.  =.B.",
"B.B.B.B.B.B.B.B.B.B.B.B.B.B.B.B.. =.B.B.B.B.B.B.B.B.B.4.. 1 B.B."
};
