/* XPM */
static char *makeXPM[] = {
/* columns rows colors chars-per-pixel */
"32 32 158 2",
"   c #8A7984",
".  c #705A8C",
"X  c #7E6FA3",
"o  c #F3F3F4",
"O  c #9A9DD1",
"+  c #8B8EB8",
"@  c #9599C4",
"#  c #9396C1",
"$  c #727AC4",
"%  c #AAB3F5",
"&  c #969CC6",
"*  c #979EC9",
"=  c #8B91B6",
"-  c #6474C5",
";  c #929DD4",
":  c #9FA9DA",
">  c #99A1CC",
",  c #CCD5FF",
"<  c #C3CEFF",
"1  c #6177C7",
"2  c #6F7CAE",
"3  c #97A4D2",
"4  c #556FC3",
"5  c #7382B5",
"6  c #9AA8D6",
"7  c #98A6D3",
"8  c #CAD7FF",
"9  c #7688BB",
"0  c #9DADD9",
"q  c #C7D6FF",
"w  c #CAD8FF",
"e  c #7A8FC2",
"r  c #BDCDF3",
"t  c #7D95C8",
"y  c #B1C5F1",
"u  c #B5C8F2",
"i  c #B7C9F2",
"p  c #BACCF3",
"a  c #7C9CDD",
"s  c #A5BDEE",
"d  c #B6CEFF",
"f  c #B6CEFE",
"g  c #626A7A",
"h  c #8A909C",
"j  c #819CCF",
"k  c #586172",
"l  c #576071",
"z  c #596273",
"x  c #626B7B",
"c  c #7A8291",
"v  c #84A3D6",
"b  c #83A2D5",
"n  c #545E6F",
"m  c #636C7B",
"M  c #8B94A3",
"N  c #808793",
"B  c #88ABDE",
"V  c #87A9DC",
"C  c #475263",
"Z  c #E9ECF0",
"A  c #81B0EC",
"S  c #8DB6E7",
"D  c #2F3B4A",
"F  c #6E839C",
"G  c #92C0F3",
"H  c #CEE4FC",
"J  c #717A84",
"K  c #DAEAFC",
"L  c #D1DBE6",
"P  c #E5EEF8",
"I  c #DBE2EA",
"U  c #9ECAF8",
"Y  c #A5D2FF",
"T  c #ACD5FF",
"R  c #B1D8FF",
"E  c #B3D8FE",
"W  c #B0D4FA",
"Q  c #B7DBFF",
"!  c #BBDDFF",
"~  c #C1E0FF",
"^  c #C3DFFC",
"/  c #C7E3FF",
"(  c #C6E2FE",
")  c #CEE6FE",
"_  c #E3F1FF",
"`  c #EFF7FF",
"'  c #F5FAFF",
"]  c #E4E9EE",
"[  c #EEF0F2",
"{  c #FDFEFF",
"}  c #4295E4",
"|  c #7BBAF2",
" . c #BFDFFE",
".. c #AAC4DB",
"X. c #CCE6FF",
"o. c #D2E9FF",
"O. c #D8ECFF",
"+. c #DCEEFE",
"@. c #DEEFFF",
"#. c #E8F4FF",
"$. c #D5DFE8",
"%. c #44A6F7",
"&. c #DFE6EC",
"*. c #99C8EA",
"=. c #F5FBFF",
"-. c #FAFDFF",
";. c #F3F6F8",
":. c #6EABD0",
">. c #8D969A",
",. c #6AAAA1",
"<. c #66B492",
"1. c #1E633E",
"2. c #3C694E",
"3. c #457652",
"4. c #4D7C59",
"5. c #5F7E61",
"6. c #00FE00",
"7. c #0A6E0A",
"8. c #0B7009",
"9. c #157511",
"0. c #1B7616",
"q. c #3DA229",
"w. c #49AD35",
"e. c #6C865E",
"r. c #78A65D",
"t. c #FFCC01",
"y. c #FFD739",
"u. c #FFE88D",
"i. c #FFC903",
"p. c #FFCE0F",
"a. c #FFDB4E",
"s. c #FFF0B8",
"d. c #E3AC38",
"f. c #C97510",
"g. c #E58128",
"h. c #DB8445",
"j. c #C96321",
"k. c #B25A27",
"l. c #B38B75",
"z. c #842809",
"x. c #851F0B",
"c. c #FE0000",
"v. c gray100",
"b. c gray70",
"n. c gray65",
"m. c #9A9A9A",
"M. c #8D8D8D",
"N. c #808080",
"B. c gray45",
"V. c gray40",
"C. c #5A5A5A",
"Z. c gray30",
"A. c gray25",
"S. c gray20",
"D. c gray15",
"F. c gray10",
"G. c gray5",
"H. c black",
/* pixels */
"6.6.6.6.6.6.6.6.6.6.6.6.6.6.6.6.6.6.6.6.6.6.6.6.6.6.6.6.6.6.6.6.",
"6.6.6.6.6.6.6.6.6.6.6.6.6.6.6.6.6.6.6.6.6.6.6.6.6.6.6.6.6.6.6.6.",
"6.6.6.6.6.6.6.6.6.6.6.6.6.6.6.6.6.6.6.6.6.6.6.6.6.6.6.6.6.6.6.6.",
"6.6.6.6.6.6.6.6.6.6.6.6.6.6.6.6.6.6.6.6.6.6.6.6.6.6.6.6.6.6.6.6.",
"6.6.6.V V V V V V B v V 6.6.6.6.6.6.6.6.6.6.6.6.6.6.6.6.6.6.6.6.",
"6.6.6.V u.v.v.v.v.v.v.V | F 6.6.6.6.6.6.6.6.6.6.6.6.6.6.6.6.6.6.",
"6.6.6.V p.a.s.{ -.' =.%.%.} M 6.6.6.6.6.c.c.c.c.c.c.6.6.6.6.6.6.",
"6.6.6.V y.t.t.d.;.` #., , % c 6.6.6.6.6.c.c.c.c.c.c.6.6.6.6.6.6.",
"6.6.6.V u.i.f.g.h.P _ @.O.< r c 6.6.6.6.c.c.c.c.c.c.6.6.6.6.6.6.",
"6.6.6.V { l.k.j.x.. K O.o.8 r x 6.6.6.6.6.6.6.c.c.c.6.6.6.6.6.6.",
"6.6.6.V o E   z.X $ 1 H X.w p z 6.6.6.6.6.6.6.c.c.c.6.6.6.6.6.6.",
"6.6.6.V [ ` ) S : ; 4 - ^ q i l 6.6.6.c.c.c.c.c.c.c.c.c.c.c.6.6.",
"6.6.6.b Z #._ +.W a O *.1...u l 6.6.6.6.c.c.c.c.c.c.c.c.c.6.6.6.",
"6.6.6.j ] _ @.O.o.( A ,.q.7.y n 6.6.6.6.6.c.c.c.c.c.c.c.6.6.6.6.",
"6.6.6.t &.@.O.o.X./  .G <.q.8.2.6.6.6.6.6.6.c.c.c.c.c.6.6.6.6.6.",
"6.6.6.e I O.o.X./ ~ ! Q U :.w.9.4.6.6.6.6.6.6.c.c.c.6.6.6.6.6.6.",
"6.6.6.9 $.o.X./ ~ ! Q R T f :.r.0.3.6.6.6.6.6.6.c.6.6.6.6.6.6.6.",
"6.6.6.5 L X./ ~ ! Q R T Y d s D e.5.6.6.6.6.6.6.6.6.6.6.6.6.6.6.",
"6.6.6.2 0 6 7 3 > * & @ # = + C J >.6.6.6.6.6.6.6.6.6.6.6.6.6.6.",
"6.6.6.6.h m k l l l l l l k g N 6.6.6.6.6.6.6.6.6.6.6.6.6.6.6.6.",
"6.6.6.6.6.6.6.6.6.6.6.6.6.6.6.6.6.6.6.6.6.6.6.6.6.6.6.6.6.6.6.6.",
"6.6.6.6.6.6.6.6.6.6.6.6.6.6.6.6.6.6.6.6.6.6.6.6.6.6.6.6.6.6.6.6.",
"6.6.6.6.6.6.6.6.6.n.G.m.6.S.C.B.F.F.H.D.b.V.F.F.H.C.V.H.G.m.6.6.",
"6.6.6.6.6.6.6.6.6.6.N.F.V.D.6.B.H.M.b.F.V.V.H.m.M.H.C.6.F.C.6.6.",
"6.6.6.6.6.6.6.6.6.6.6.A.H.n.6.B.S.6.6.V.S.V.F.6.6.H.M.6.Z.Z.6.6.",
"6.6.6.6.6.6.6.6.6.6.6.D.H.M.6.B.S.6.6.V.S.V.F.6.6.H.M.6.Z.Z.6.6.",
"6.6.6.6.6.6.6.6.6.6.V.S.N.F.b.B.H.m.n.F.V.V.F.6.6.H.M.6.Z.Z.6.6.",
"6.6.6.6.6.6.6.6.6.m.G.n.6.Z.A.B.G.F.H.S.6.V.F.6.6.H.M.6.Z.Z.6.6.",
"6.6.6.6.6.6.6.6.6.6.6.6.6.6.6.B.F.6.6.6.6.6.6.6.6.6.6.6.6.6.6.6.",
"6.6.6.6.6.6.6.6.6.6.6.6.6.6.6.B.F.6.6.6.6.6.6.6.6.6.6.6.6.6.6.6.",
"6.6.6.6.6.6.6.6.6.6.6.6.6.6.6.6.6.6.6.6.6.6.6.6.6.6.6.6.6.6.6.6.",
"6.6.6.6.6.6.6.6.6.6.6.6.6.6.6.6.6.6.6.6.6.6.6.6.6.6.6.6.6.6.6.6."
};
