/* XPM */
static char *turntableCam[] = {
/* columns rows colors chars-per-pixel */
"32 32 195 2",
"   c #030203",
".  c #09090A",
"X  c #070D11",
"o  c #0C0F12",
"O  c #0A1014",
"+  c #111315",
"@  c #161B1F",
"#  c #111B21",
"$  c #1F1E21",
"%  c #14222C",
"&  c #1E2227",
"*  c #1F282D",
"=  c #162733",
"-  c #1A2934",
";  c #1D2F3B",
":  c #212429",
">  c #2B2B2B",
",  c #2B2F32",
"<  c #20303C",
"1  c #283035",
"2  c #2B343B",
"3  c #323233",
"4  c #3E3E3E",
"5  c #223542",
"6  c #303A41",
"7  c #35424B",
"8  c #39454D",
"9  c #3D4952",
"0  c #3A4D59",
"q  c #45322F",
"w  c #59363E",
"e  c #761515",
"r  c #701C2E",
"t  c #76262B",
"y  c #5A3A42",
"u  c #414446",
"i  c #47494B",
"p  c #444E54",
"a  c #414E58",
"s  c #44535D",
"d  c #4E5256",
"f  c #5C5D5E",
"g  c #475661",
"h  c #4A5964",
"j  c #4E5E69",
"k  c #55626C",
"l  c #5C666C",
"z  c #5A6974",
"x  c #7E4E45",
"c  c #78484E",
"v  c #7D5C5F",
"b  c #626262",
"n  c gray42",
"m  c #627079",
"M  c #6C7377",
"N  c #6C737A",
"B  c #6F787F",
"V  c #747A7D",
"C  c #697882",
"Z  c #6BA98E",
"A  c #46FEAE",
"S  c #4BFEAD",
"D  c #51F7AC",
"F  c #51FBAD",
"G  c #5AF6B1",
"H  c #69DEA9",
"J  c #77CEA7",
"K  c #78CDA6",
"L  c #72D6A9",
"P  c #67E0A9",
"I  c #60EAAB",
"U  c #6CECB2",
"Y  c #63F2B0",
"T  c #77E7B4",
"R  c #7AE5B4",
"E  c #7FCACA",
"W  c #7CDADA",
"Q  c #7CE0E0",
"!  c #7AEDED",
"~  c #76FFFF",
"^  c #7BF2F2",
"/  c #78FFFF",
"(  c #8F0D0D",
")  c #831313",
"_  c #8B1616",
"`  c #8C1C1D",
"'  c #920505",
"]  c #960C0C",
"[  c #9A0302",
"{  c #980C0B",
"}  c #941313",
"|  c #951519",
" . c #95191A",
".. c #991E1E",
"X. c #8A1D24",
"o. c #962015",
"O. c #802528",
"+. c #892C2F",
"@. c #83302E",
"#. c #893030",
"$. c #942424",
"%. c #972F2F",
"&. c #9B2F20",
"*. c #9F2F2F",
"=. c #922E30",
"-. c #923131",
";. c #913A3A",
":. c #993B3B",
">. c #84484E",
",. c #8F4D4D",
"<. c #8D5858",
"1. c #904040",
"2. c #914847",
"3. c #9B4B4A",
"4. c #905253",
"5. c #9D5959",
"6. c #956344",
"7. c #8D6062",
"8. c #8B6969",
"9. c #8B7272",
"0. c #887D7D",
"q. c #9B6C6C",
"w. c #9A6B70",
"e. c #96797A",
"r. c #9E7373",
"t. c #9B7F7F",
"y. c #A44A4A",
"u. c #A45555",
"i. c #A65858",
"p. c #A06A6A",
"a. c #AC6666",
"s. c #AD6A6A",
"d. c #AB7474",
"f. c #B07676",
"g. c #848484",
"h. c #858789",
"j. c #848C8D",
"k. c #8C8789",
"l. c #888989",
"z. c #858F95",
"x. c #859A9A",
"c. c #8A9297",
"v. c #9F8485",
"b. c #909194",
"n. c #92979A",
"m. c #909C9D",
"M. c #9C9C9C",
"N. c #84A7A7",
"B. c #83AFAF",
"V. c #87BCA4",
"C. c #8BBAA5",
"Z. c #96ABA2",
"A. c #9EA1A1",
"S. c #A49799",
"D. c #A49C9F",
"F. c #A8979F",
"G. c #B08D8D",
"H. c #B49393",
"J. c #B19A9A",
"K. c #B89C9C",
"L. c #A29DA0",
"P. c #B4AD88",
"I. c #A0A2A2",
"U. c #A6A6A8",
"Y. c #A7A8A7",
"T. c #A2A9A8",
"R. c #AAAAAB",
"E. c #A8B3AE",
"W. c #B1A7AB",
"Q. c #B5A8A8",
"!. c #BAA6A6",
"~. c #B9A8A8",
"^. c #B3AEB0",
"/. c #B4B4B4",
"(. c #B0B9B5",
"). c #BBB2B2",
"_. c #BBBBBB",
"`. c #87DFB7",
"'. c #88DEB7",
"]. c #8EDBB8",
"[. c #91D9B8",
"{. c #9BD3B9",
"}. c #82E1B6",
"|. c #A5CEBB",
" X c #ADCABC",
".X c #A1D1BB",
"XX c #B5C5BE",
"oX c #B1C8BD",
"OX c #BAC3BF",
"+X c #9FC9CA",
"@X c #A3D9D9",
"#X c #BFC0C0",
"$X c #C0BFBF",
"%X c #C1C1BE",
"&X c #C0C0C0",
/* pixels */
"&X&X&X&X&X&X&X&X&X&X&X&X&X&X&X&X&X&X&X&X&X&X&X&X&X&X&X&X&X&X&X&X",
"&X&X&X&X&X&X&X&X&X&X&X&X&X&X&X&X&X&X&X&X&X&X&X&X&X&X&X&X&X&X&X&X",
"&X&X&X&X&X&X&X&X&X&X&X&X&X&X&X&X&X&X&X&X&X&X&X&X&X&X&X&X&X&X&X&X",
"&X&X&X&X&X&X&X&X&X&X&X&X&X&X&X&X&X&X&X&X&X&X&X&X&X&X&X&X&X&X&X&X",
"&X&X&X&X&X&X&X&X&X&X&X&X&X&X&X&X&X&X&X&X&X&X&X&X&X&X&X&X&X&X&X&X",
"&X&X&X&X&X&X&X&X&X&X&X&Xu.K.&X&X&X&X&X&X&X&X&X&X&X&X&X&X&X&X&X&X",
"&X&X&X&X&X&X&X&X&X&X&X#X#.f.&X&X_.^.&X&X&X&X&X&X&X&X&X&X&X&X&X&X",
"&X&X&X&X&X&X&X&X&X&X&X#X;...G.&X).q.&X&X&X X X X X&X&X&X&X&X&X&X",
"&X&X&Xd.a.).$X&X&X&X).i.| | X.i.d.p.&X&X$X{.U I G |.#X#X#X#X#X#X",
"&X&X&X!.s.*.$X$X&XH...} ] ] | | _ e u./.&X&XXX X&X].`.].#X#X#X#X",
"&X&X&X&XK...i._.H...,.<.Z 9.o.} o.$. .9.@X&X&X&X&X&X&X|.Y }.#X#X",
"&X&X#XK.3. . .$.` } N.x.~ ~ +X7.! ^ ! ^ / +X&X#X&X&X&X&X XU R #X",
"&X&X&XJ.;. . .` +.{ ;.0./ ~ Q B.~ ~ / / ~ ! ,.R.&X&X&X&X&X#XF R ",
"&X&X&X_.J.y._ ) c >.} _ -.j.x.8.W ~ / ~ ~ +X2.r P.&X&X&X&X&X}.S ",
"&X&X&X&X#X&X~.Q.S.e.w.%.] ' ' { $.1.1.1.1.` @.&.o.).&X&X&X&X#XS ",
"&X&X&X&X&X&X_.T.:.[ p.T.v.4.#.} ( ] ] ] ] | x 6.w.&X&X&X&X&X{.S ",
"&X&X&X&X&X).n.c.k.v I.I.I.T.U.t.e.:.=.t O.) 4.v./.&X&X&X&XXXF S ",
"&X&X&X&X_.d z h k A.A.b f b M.I.T.T.z.w X.y m.T.^.&X&X&X&XT S Y ",
"&X_.$X$Xh.# k s s Z h.      g.I.L.L.U.7.q Z Y.D.^.#X&X|.U S F {.",
"_.q U.$Xf o j 6 < y ; + $ . b M.L.L.L.C.A V.D.D.(.XXR F S Y  X#X",
"OXh.U.b.: : h h 0 % 5 : > > n M.L.L.J S J A.Z.L R F S F '.&X&X&X",
"#X#X&XC k C g h 6 5 5 C L.n.M.L.A.H A S H D F A S Y }.oX&X&X&X&X",
"&X&XU.2 m h j a # - : z L.A.L.V.D S S S A F }.'.#X#X&X&X&X&X&X&X",
"&X&Xi 2 h a a 6 o = = N ^.R.E.T T T S S S S }.{.XX#X&X&X&X&X&X&X",
"&X).3 2 j 2 2 8 X = z _.#X#X&X&X&X&XoX XoXoXR U R `. X{.&X&X&X&X",
"&X#X4 : h s s p , V _.#X&X&X&X&X&X&X&X&X&X&XoX.X{.{.|.[.&X&X&X&X",
"&X&XL.8 9 g C /./.&X&X&X&X&X&X&X&X&X&X&X&X&X&X&X&X&X&X&X&X&X&X&X",
"&X&X&X_.Y.I.$X&X&X&X&X&X&X&X&X&X&X&X&X&X&X&X&X&X&X&X&X&X&X&X&X&X",
"&X&X&X&X&X&X&X&X&X&X&X&X&X&X&X&X&X&X&X&X&X&X&X&X&X&X&X&X&X&X&X&X",
"&X&X&X&X&X&X&X&X&X&X&X&X&X&X&X&X&X&X&X&X&X&X&X&X&X&X&X&X&X&X&X&X",
"&X&X&X&X&X&X&X&X&X&X&X&X&X&X&X&X&X&X&X&X&X&X&X&X&X&X&X&X&X&X&X&X",
"&X&X&X&X&X&X&X&X&X&X&X&X&X&X&X&X&X&X&X&X&X&X&X&X&X&X&X&X&X&X&X&X"
};
