/* XPM */
static char *kaleidaTwelve[] = {
/* columns rows colors chars-per-pixel */
"32 32 163 2",
"   c #0B0B0B",
".  c gray6",
"X  c gray10",
"o  c #1E1E1E",
"O  c #202020",
"+  c #282828",
"@  c #2A2A2A",
"#  c #2D2D2D",
"$  c gray18",
"%  c #2F2F2F",
"&  c #323232",
"*  c #343434",
"=  c gray21",
"-  c #373737",
";  c gray22",
":  c #393939",
">  c #3A3A3A",
",  c gray23",
"<  c #3C3C3C",
"1  c gray24",
"2  c #3E3E3E",
"3  c #3F3F3F",
"4  c gray25",
"5  c #414141",
"6  c gray26",
"7  c #434343",
"8  c #444444",
"9  c gray27",
"0  c #464646",
"q  c gray28",
"w  c #484848",
"e  c #494949",
"r  c gray29",
"t  c #4B4B4B",
"y  c #4C4C4C",
"u  c gray30",
"i  c #4E4E4E",
"p  c gray31",
"a  c #505050",
"s  c #515151",
"d  c gray32",
"f  c #535353",
"g  c gray33",
"h  c #555555",
"j  c #565656",
"k  c gray34",
"l  c #585858",
"z  c gray35",
"x  c #5A5A5A",
"c  c #5B5B5B",
"v  c gray36",
"b  c #5D5D5D",
"n  c gray37",
"m  c #5F5F5F",
"M  c #606060",
"N  c gray38",
"B  c #626262",
"V  c gray39",
"C  c #646464",
"Z  c #656565",
"A  c gray40",
"S  c #676767",
"D  c #686868",
"F  c DimGray",
"G  c #6A6A6A",
"H  c gray42",
"J  c #6C6C6C",
"K  c #6D6D6D",
"L  c gray43",
"P  c #6F6F6F",
"I  c gray44",
"U  c #717171",
"Y  c #727272",
"T  c gray45",
"R  c #747474",
"E  c gray46",
"W  c #767676",
"Q  c #777777",
"!  c gray47",
"~  c #797979",
"^  c gray48",
"/  c #7B7B7B",
"(  c #7C7C7C",
")  c gray49",
"_  c #7E7E7E",
"`  c gray50",
"'  c #808080",
"]  c #818181",
"[  c gray51",
"{  c #838383",
"}  c #848484",
"|  c gray52",
" . c #868686",
".. c gray53",
"X. c #888888",
"o. c #898989",
"O. c gray54",
"+. c #8B8B8B",
"@. c #8D8D8D",
"#. c #8E8E8E",
"$. c #909090",
"%. c gray57",
"&. c #929292",
"*. c #939393",
"=. c gray58",
"-. c #959595",
";. c gray59",
":. c #979797",
">. c #989898",
",. c #9A9A9A",
"<. c #9B9B9B",
"1. c gray61",
"2. c gray62",
"3. c #9F9F9F",
"4. c #A0A0A0",
"5. c gray63",
"6. c #A2A2A2",
"7. c gray64",
"8. c #A4A4A4",
"9. c #A5A5A5",
"0. c gray65",
"q. c #A7A7A7",
"w. c gray66",
"e. c #A9A9A9",
"r. c #AAAAAA",
"t. c gray67",
"y. c gray68",
"u. c #AEAEAE",
"i. c #AFAFAF",
"p. c gray69",
"a. c #B1B1B1",
"s. c #B2B2B2",
"d. c gray70",
"f. c #B4B4B4",
"g. c gray71",
"h. c #B6B6B6",
"j. c #B7B7B7",
"k. c gray72",
"l. c #B9B9B9",
"z. c gray73",
"x. c #BBBBBB",
"c. c #BCBCBC",
"v. c gray74",
"b. c gray",
"n. c gray75",
"m. c #C0C0C0",
"M. c #C1C1C1",
"N. c gray76",
"B. c #C3C3C3",
"V. c gray77",
"C. c #C5C5C5",
"Z. c #C6C6C6",
"A. c gray78",
"S. c #C8C8C8",
"D. c gray79",
"F. c #CACACA",
"G. c #CBCBCB",
"H. c gray80",
"J. c #CDCDCD",
"K. c #CECECE",
"L. c gray81",
"P. c gray82",
"I. c #D2D2D2",
/* pixels */
"D.V.V.V.V.V.V.V.V.V.V.V.V.D.D.D.V.D.D.V.V.V.V.V.V.V.V.V.V.V.V.D.",
"m.m.m.m.m.m.m.m.m.m.m.m.V.g.2.p.g.,.p.V.m.m.m.m.m.m.m.m.m.m.m.V.",
"V.m.m.m.m.m.m.m.m.m.m.m.g.A m B m m B p.V.m.m.m.m.m.m.m.m.m.m.V.",
"V.m.m.m.m.m.m.m.m.m.m.V._ z G e 8 A m E V.m.m.m.m.m.m.m.m.m.m.V.",
"V.m.m.m.m.m.m.m.m.m.V.x.d m z O X j B d p.V.m.m.m.m.m.n.m.m.m.V.",
"V.m.m.m.m.V.V.V.m.m.V.5.8 j B 1 1 A j 8 2.V.m.m.V.V.V.m.m.m.m.V.",
"V.m.m.m.n.r.q.p.x.V.K...1 e ..E Y $.e 3 _ K.V.x.r.2.5.x.V.m.m.V.",
"V.m.m.m._ m B m A [ p.Y 1 e r...[ p.i 1 A r._ m z m B K x.m.m.V.",
"V.m.V.g.i A K B m d d e 1 d n.$.| V.j 1 8 d d m B G G i 5.V.m.V.",
"V.m.m.#.i 1 8 m d d d d 1 j V.#.| D.z 1 i i i d A 3 = e / x.m.V.",
"V.V.;.z A +   [ p.$.G i 1 z D.[ _ K.B , i G $.x.| . O B m _ V.V.",
"V.V./ j G j B 3 K n.K.t.K m K.Y K K.G G r.K.n.A 3 E z A z G V.V.",
"V.V.q.8 z z ..V...B | m.K.g.D.A m V.x.K.m.| m #.D.#.z z 8 2.V.V.",
"V.m.D.[ = i i [ K.m./ i _ p.p.d i p.p._ e _ m.K.| d i = / V.m.V.",
"V.m.m.V.E % 3 8 Y x.I.5.3 8 A m m B 8 3 5.I.n.Y 8 3 % K V.m.m.V.",
"V.m.m.V.D..., = , d ;.V.g.j j K K z i g.V.;.j , = , | D.m.m.m.V.",
"V.m.m.m.V.D.Y 8 d e m p.K._ m K K B E D.x.G e d e A x.V.m.m.m.V.",
"V.m.m.m.x.K z B z | m.D./ 3 8 z m 8 3 K m.D.;.m B z m r.D.m.m.V.",
"V.m.m.n.G z A m ,.K.p.B e E $.j d #.[ i j q.K.t.B B B z q.V.m.V.",
"V.m.m.E m K m q.D.| B #.m.K.D.A z V.K.V.,.G E n.n.A A A B g.m.V.",
"V.V.2.z K z ..;.z [ m.I.p.#.V./ K D.#.q.K.D.;.j _ ,.z K B _ V.V.",
"V.D._ z A = & e t.K.p.| j A D.../ K._ i E q.V.n.m + % z m B m.V.",
"V.V.q.i e , & ;.;./ m 8 e K m.;._ K./ i 8 d K ..,.8 = 8 8 ;.V.V.",
"V.m.V.q.j A G B z d 1 , d G m.,.[ V.Y j 1 , i j m K K j #.D.m.V.",
"V.m.m.n.z z m d 3 , z B i B p.2.[ V.K j j G , 1 e j m i 5.V.m.V.",
"V.m.m.V.,.z j m E q.D.#.i m ,.$.E g.B j K K.t...A m m | V.m.m.V.",
"V.m.m.m.V.V.n.V.D.V.V.5.e B [ E B $.B d [ V.V.D.D.m.V.V.m.m.m.V.",
"V.m.m.m.m.m.m.m.m.m.V.p.i A G 1 & B K i ,.D.m.m.m.m.m.m.m.m.m.V.",
"V.m.m.m.m.m.m.m.m.m.m.V.G z K e 1 G A j g.m.m.m.m.m.m.m.m.m.m.V.",
"V.m.m.m.m.m.m.m.m.m.m.V.2.e m d e B i _ D.m.m.m.m.m.m.m.m.m.m.V.",
"V.m.m.m.m.m.m.m.m.m.m.m.m.[ z K / z G x.m.m.m.m.m.m.m.m.m.m.m.V.",
"D.V.V.V.V.V.V.V.V.V.V.V.V.D.m.V.D.m.D.V.V.V.V.V.V.V.V.V.V.V.V.D."
};
