/* XPM */
static char *abxToybox[] = {
/* columns rows colors chars-per-pixel */
"32 32 256 2",
"   c #221B0B",
".  c #233319",
"X  c #2A2815",
"o  c #343D34",
"O  c #353C2F",
"+  c #153034",
"@  c #162058",
"#  c #113944",
"$  c #1E377A",
"%  c #353C52",
"&  c #2C3675",
"*  c #393769",
"=  c #2B3578",
"-  c #124023",
";  c #1F4E37",
":  c #384436",
">  c #304925",
",  c #3B663E",
"<  c #3D5157",
"1  c #3E4C78",
"2  c #347943",
"3  c #307243",
"4  c #5A1915",
"5  c #492917",
"6  c #4B2C0E",
"7  c #5A253A",
"8  c #641914",
"9  c #60150B",
"0  c #79291B",
"q  c #67324A",
"w  c #595832",
"e  c #62503B",
"r  c #6F4434",
"t  c #544C49",
"y  c #4E546B",
"u  c #467C49",
"i  c #587B56",
"p  c #5B627A",
"a  c #556275",
"s  c #635653",
"d  c #715356",
"f  c #645D72",
"g  c #62604E",
"h  c #6B734D",
"j  c #6A697B",
"k  c #787774",
"l  c #726E68",
"z  c #2A4999",
"x  c #304481",
"c  c #3853AD",
"v  c #355BB8",
"b  c #455686",
"n  c #585E82",
"m  c #56638E",
"M  c #4868B3",
"N  c #5260AF",
"B  c #5874B5",
"V  c #6A7695",
"C  c #716D82",
"Z  c #727682",
"A  c #757B94",
"S  c #6A79A6",
"D  c #6A7CB3",
"F  c #7679A8",
"G  c #757EB7",
"H  c #5879C7",
"J  c #4D6CCC",
"K  c #2C8749",
"L  c #33844C",
"P  c #308954",
"I  c #47834A",
"U  c #458A56",
"Y  c #558348",
"T  c #548F61",
"R  c #58966A",
"E  c #7D8A46",
"W  c #688E50",
"Q  c #638569",
"!  c #768568",
"~  c #718874",
"^  c #7E8F7C",
"/  c #76977B",
"(  c #6D9570",
")  c #66A37D",
"_  c #51AB73",
"`  c #74809B",
"'  c #7C9A84",
"]  c #6A83BA",
"[  c #7684A6",
"{  c #7A86B6",
"}  c #7AA888",
"|  c #74B08A",
" . c #778BC2",
".. c #813A30",
"X. c #B9171C",
"o. c #A52D30",
"O. c #A13935",
"+. c #B93031",
"@. c #B2312E",
"#. c #943C54",
"$. c #99623B",
"%. c #A35C37",
"&. c #995945",
"*. c #91595B",
"=. c #924F70",
"-. c #946F49",
";. c #886567",
":. c #8E7377",
">. c #93686E",
",. c #AF444F",
"<. c #A74468",
"1. c #AF7252",
"2. c #A6766C",
"3. c #AB7576",
"4. c #BF6E78",
"5. c #BA7574",
"6. c #B46C6B",
"7. c #C13C36",
"8. c #CD272B",
"9. c #CA413A",
"0. c #C75D57",
"q. c #D34543",
"w. c #DF4951",
"e. c #C74E50",
"r. c #C36E70",
"t. c #C07B69",
"y. c #CB7475",
"u. c #D26C68",
"i. c #D57570",
"p. c #E94949",
"a. c #F24745",
"s. c #F6554B",
"d. c #F37B73",
"f. c #EF6866",
"g. c #807F86",
"h. c #A5758D",
"j. c #C77E81",
"k. c #8F9045",
"l. c #9D9554",
"z. c #8B9170",
"x. c #9FA27F",
"c. c #A89E7C",
"v. c #B2A55D",
"b. c #ABA25E",
"n. c #BFB46E",
"m. c #B6AB6B",
"M. c #C28F7F",
"N. c #DA857B",
"B. c #C0B25E",
"V. c #CDA07E",
"C. c #D0AA6B",
"Z. c #F48478",
"A. c #E4887A",
"S. c #839484",
"D. c #8A978B",
"F. c #958A89",
"G. c #9D928E",
"H. c #939A93",
"J. c #98999B",
"K. c #8A8A91",
"L. c #8385A7",
"P. c #8B97B8",
"I. c #9A98AE",
"U. c #9799B5",
"Y. c #8B93AA",
"T. c #8CA394",
"R. c #98A599",
"E. c #8FAD8D",
"W. c #9CACA1",
"Q. c #9FA4AA",
"!. c #9DB2A3",
"~. c #9CA2B7",
"^. c #A99C99",
"/. c #BF8F91",
"(. c #BA9B9B",
"). c #AB8A84",
"_. c #B0AA9A",
"`. c #B5A082",
"'. c #A0AEA3",
"]. c #A9A8A6",
"[. c #ACAEBA",
"{. c #A8ABBA",
"}. c #AAB6AB",
"|. c #AFBBB3",
" X c #AFB0BA",
".X c #B4ABAB",
"XX c #B8A8A5",
"oX c #B4B3B3",
"OX c #BBBBBA",
"+X c #B3B4B8",
"@X c #B9B8AE",
"#X c #808FC3",
"$X c #8997C6",
"%X c #929CC7",
"&X c #9DA6C5",
"*X c #A3AAC2",
"=X c #A5ABC5",
"-X c #ABB2C6",
";X c #B3B7C4",
":X c #B4B9CC",
">X c #BABECB",
",X c #B5B9C5",
"<X c #B3BBD4",
"1X c #B8BFD7",
"2X c #BAC5BD",
"3X c #BDC7C9",
"4X c #BBC1D3",
"5X c #B9C0D8",
"6X c #BBD2C3",
"7X c #C58786",
"8X c #C39786",
"9X c #C59697",
"0X c #D38688",
"qX c #D49797",
"wX c #D78C90",
"eX c #C8A493",
"rX c #CCBC9F",
"tX c #CEAC92",
"yX c #C7A5A5",
"uX c #C0BDBC",
"iX c #C7B5B6",
"pX c #D6A8A7",
"aX c #D1BBA6",
"sX c #D6B7B6",
"dX c #C2B7A8",
"fX c #F6B893",
"gX c #C9C1AE",
"hX c #CDCDBF",
"jX c #DBCAB7",
"kX c #DBCFB3",
"lX c #E5C684",
"zX c #E3C192",
"xX c #C3C3C3",
"cX c #C3C5CC",
"vX c #CAC3C3",
"bX c #CACACA",
"nX c #C3CAC5",
"mX c #C1C6D4",
"MX c #C7CCDA",
"NX c #CDCED2",
"BX c #C7CBD4",
"VX c #CDD1CE",
"CX c #CFD1D6",
"ZX c #D1C8C8",
"AX c #D3D4CD",
"SX c #DFDBC4",
"DX c #D2D3D3",
"FX c #D2D4DA",
"GX c #D6D8DD",
"HX c #DBDBDB",
"JX c #D8D8D1",
"KX c #DDDEE0",
"LX c #E0D7C8",
"PX c #E2DDD0",
"IX c #E2E1CC",
"UX c #E2E2E2",
/* pixels */
"HXHXUXHXHXUXHXHXPXKXKXKXKXHXHXHXPXKXKXKXKXHXPXKXKXKXHXKXHXUXHXUX",
"UXUXUXUXUXUXUXUXUXUXUXUXUXUXKXUXUXUXUXUXUXUXUXUXUXUXUXUXUXUXUXUX",
"UXUXUXUXUXUXUXUXUXUXUXUXKXHXFXFXKXKXKXKXUXUXUXUXUXUXUXUXUXUXUXUX",
"UXUXUXUXUXUXUXUXHXHXFXNXBXcXxXBXMXMXMXCXNXFXGXGXUXUXUXKXUXUXUXUX",
"KXKXPXHXHXHXUXGXMX4X4X>XcXcXBX4X5X4X>X,X>X>X>X>XHXKXKXPXHXPXKXUX",
"HXKXKXHXHXHXHXFX1X5X1X1X4X1X1X1X<X,X;X:X:X;X,X,XGXKXKXHXHXHXKXKX",
"HXGXGXHXFXHXHXCX-XuXbXmX<X<X<X<X<X<X-X{.[.OX@X+XGXJXGXJXGXGXGXHX",
"GXJXJXFXJXJXFXDX{.dXIXPXsXyXxX4X:X-X*XQ.'.|.}. XJXGXGXDXJXJXJXGX",
"JXDXDXDXDXDXDXCX*XXXIXLXpX9XaXPXJX=X~.R.R.R.R. XDXDXDXDXDXDXDXDX",
"DXNXNXDXNXDXDXbX{.^.LXsXpXqXeXPXJX=XY.H.R.R.G. XDXNXDXNXDXDXDXNX",
"DXbXbXbXbXbXNXZX{.^.kXsXqXqX8XkXDX&XY.D.E.W.K.{.bXbXbXbXbXbXbXDX",
"bXbXbXbXbXbXcXbX*XG.kXpXj.wX0XrXDX%X[ ' E.D.S.[.bXvXbXbXbXbXvXbX",
"bXvXxXxXxXvX9XyXU.F.aXqX0XwX7X9XVX$X` ^ ^ ^ k |.cXbXxXxXxXxXnXbX",
"xXxXxXxXiX7X3.c.I.K.8X0XM.qX0X8XhX$X` ~ ' S.Z Y.R.T.|.xXxXxXvXxX",
"xXuXuXiX5.>.F J.I.V ].yXrXjXwXt.iX$XA ~ z.Z k :.z.k ( W.OXOXxXxX",
"xXOXyX6.:.] ] [ [ D G P.U.-XyXeXgX#XA z.j f ;.>.2.c.G.! ' |.OXxX",
"yX9Xr.5.h.h.g.{ G D D S F G  .$X&X{ V p j s d >.*.6.8Xc./ ) R.hX",
"j.y.q.p.s.s.w.w.e.<.=.#.+.q 1 N J J = + - > X 4 ..r t Y U K 3 ' ",
"/.7X@.1.3.=.<.,.q.s.a.a.+.5 6 :.P.b 7 0 3 P u , L P K 2 Y u 3 T.",
"(./.@.-.H v v c * 6.fXf.o.O 6 F.J.: 9 X.&._ K L , ; ; < b.k.3 W.",
"XX(.+.-.B $ t }.N y lXZ.o.. X F.H.: 4 X.9.( L E o @ & $ l k.u ].",
".XXX7.$.S z x ] H j C.d.o..   ^.J.O 8 8.9.T L w @ j v.k k W R {.",
"oXXXe.%.V c m ] v d C.Z.O.> t .X].: 4 8.e.T L O y m.B.l.v.W }  X",
"iXoX0.%.` z t _. .y C.Z.O.5 (.oXoXH.5 8.0.R Y < p b.g 1 l Y W.OX",
"uXiXy.%.>.F N B  .K.V.A.O.*.uXOXOX+XD.&.t.R W l b y & n h 2 |.xX",
"cXxXyXr.u.u.4.h.h.tXzXN.,..XxXxXxXxXhX) E.) ( b.p b a i i ' 2XbX",
"bXbXbXsXiXpXqXqXi.i.i.u./.nXbXxXbXbXVX6XE.) ( ! l R ' !.|.xXbXbX",
"DXCXNXNXDXNXDXbXZXvXsXpXvXVXAXDXDXVXVXAX6X| / T.}.2XnXDXDXNXDXDX",
"JXDXDXJXFXJXDXDXJXDXJXDXJXDXDXJXJXJXDXDXDX2XnXDXDXAXDXHXDXDXDXHX",
"HXGXHXGXGXHXHXGXGXGXGXHXGXHXGXHXFXHXHXGXHXVXDXJXHXHXHXHXHXGXHXHX",
"UXHXHXKXHXUXHXHXKXHXPXHXHXHXHXHXHXHXHXHXHXHXHXHXHXGXHXHXHXHXHXHX",
"bXbXbXbXbXxXbXZXbXbXBXbXbXbXbXbXbXbXbXbXbXbXbXbXbXbXbXbXbXbXbXbX"
};
