/* XPM */
static char * image_name[]={
"32 32 105 2",
"  	c #C9C9C9",
". 	c #C4C4C4",
"X 	c #C2C2C2",
"o 	c #B0B0B0",
"O 	c #7E88AB",
"+ 	c #ABABAB",
"@ 	c #8F8F8F",
"# 	c #2F2F64",
"$ 	c #4955A5",
"% 	c #999999",
"& 	c #BDBDBD",
"* 	c #B5B5B5",
"= 	c #363636",
"- 	c #121212",
"; 	c #9E9E9E",
": 	c #5470AA",
"> 	c #BABABA",
", 	c #6A6A8D",
"< 	c #595959",
"1 	c #949494",
"2 	c #A3A3A3",
"3 	c #2B568F",
"4 	c #2D5790",
"5 	c #285085",
"6 	c #778899",
"7 	c #ADADAD",
"8 	c #BFBFBF",
"9 	c #969696",
"0 	c #376093",
"q 	c #2C5791",
"w 	c #2C5892",
"e 	c #2D5995",
"r 	c #1F1F1F",
"t 	c #384B66",
"y 	c #315483",
"u 	c #2D5992",
"i 	c #2D5993",
"p 	c #636363",
"a 	c #B8B8B8",
"s 	c #2C5994",
"d 	c #919191",
"f 	c #3469AD",
"g 	c #274D80",
"h 	c #171717",
"j 	c #2A558D",
"k 	c #5E5E5E",
"l 	c #A6A6A6",
"z 	c #545454",
"x 	c #A8A8A8",
"c 	c #295289",
"v 	c #3C68A1",
"b 	c #30609F",
"n 	c #2A538A",
"m 	c #2A548C",
"M 	c #1A1A1A",
"N 	c #2C5893",
"B 	c #2B558E",
"V 	c #5F929E",
"C 	c #708090",
"Z 	c #666666",
"A 	c #BFBFC0",
"S 	c #2D5A95",
"D 	c #262626",
"F 	c #366DB4",
"G 	c #2F5E9B",
"H 	c #2D5A96",
"J 	c #274E81",
"K 	c #295288",
"L 	c #274E82",
"P 	c #3C5A80",
"I 	c #285186",
"U 	c #0D0D0D",
"Y 	c #3366A8",
"T 	c #2C5790",
"R 	c #295187",
"E 	c #2B5790",
"W 	c #285185",
"Q 	c #284F84",
"! 	c #030303",
"~ 	c #3264A6",
"^ 	c #2B5690",
"/ 	c #2B5791",
"( 	c #284F83",
") 	c #29528A",
"_ 	c #3469AE",
"` 	c #8C8C8C",
"' 	c #2D5994",
"] 	c #3161A2",
"[ 	c #284F82",
"{ 	c #274E80",
"} 	c #335784",
"| 	c #3264A5",
" .	c #285084",
"..	c #2C5992",
"X.	c #A1A1A1",
"o.	c #242424",
"O.	c #212121",
"+.	c #9C9C9C",
"@.	c #575757",
"#.	c #B3B3B3",
"$.	c #5C5C5C",
"%.	c #305280",
"&.	c #274F82",
"*.	c #325889",
"=.	c #295287",
"  . . . . . . . . . . . . . . . . . . . . . . . . . . . . . . . ",
"X X X X X X X X X X X X X X X X o O + X X X X X X X X X X X X X ",
". X X X X X X X X X X X X X X X @ # $ % & X X X X X X X X X X X ",
". X X X X X X X X X X X X X X X * = - # o X X X X X X X X X X X ",
". X X X X X X X X X X X X ; : + X > , < 1 > X X X X X X X X X X ",
". X X X X X X X X X X X 2 3 3 4 : : 5 , 6 6 7 o * X X X X X X X ",
". X X X X X X ; : , 8 9 0 q w e 3 # r t , y u i p X + % a X X X ",
". X X X X 2 : 3 s t d f w t g t h r t # t t j k l X < z * X X X ",
". X X x : 3 3 w c # v b n m # M # N t # B t t , V C Z & A X X X ",
". X X k t w N S D # F G # # # 5 H N J # K t # t L t , P 1 X X X ",
". X X , # # I D U b Y T K R B w E K W B j t t q Q # t k a X X X ",
". X X d # # D ! t ~ E q E E ^ 3 / ( ) / K / R t # # t , X X X X ",
". X X a t # h # _ t # 5 N E 3 ^ m t n 3 5 t # # # t # ` X X X X ",
". X X X a k # ' ] # # # t n N N t t Q w t # # # # t # 7 X X X X ",
". X X X X X 1 # t # # # # # t j t J t # # # t # t # t X X X X X ",
". X X X X X 7 # # # # # # # # # K # # # # # t # t # , A > X X X ",
". X X X X * d # # # # # # # # # [ # # # # # t t t # , t , X X X ",
". X X X & $ { t ( # # # # # # { # # # # # # # t # # t # 6 X X X ",
". X X X 2 # } t t # # # # # # |  .# # # # # # t # t # # l X X X ",
". X X X a , , , # # # # # # # ..[ # # # # # t # t # t % X X X X ",
". X X X X X 8 X.t # # # # # # # # # # # D # # , , @ * X X X X X ",
". X X X X X X X 6 # t # # # # # # # o.O.# # d X l , +.A X X X X ",
". X X X X X X +.# # ` , # # # # D O.D # @.7 * , # 6 X X X X X X ",
". X X X X X l # # # , #.p # # # o.# t 9 & X.t # d X X X X X X X ",
". X X X X X + @.# $.> X X 6 # # # # t ; a %.# 1 X X X X X X X X ",
". X X X X X X & C * X X X X +.t t &.t 6 o t 1 X X X X X X X X X ",
". X X X X X X X X X X X X 7 : *.K { t > X o X X X X X X X X X X ",
". X X X X X X X X X X X X , t =.t # 2 X X X X X X X X X X X X X ",
". X X X X X X X X X X X X 2 # t # , X X X X X X X X X X X X X X ",
". X X X X X X X X X X X X & t # < A X X X X X X X X X X X X X X ",
"X X X X X X X X X X X X X X + Z o X X X X X X X X X X X X X X X ",
"  . . . . . . . . . . . . . . . . . . . . . . . . . . . . . . . "
};
