/* XPM */
static char *abxPushPose[] = {
/* columns rows colors chars-per-pixel */
"32 32 249 2",
"   c #B74F4F",
".  c #B75050",
"X  c #B75353",
"o  c #B45757",
"O  c #B75555",
"+  c #B75656",
"@  c #B45959",
"#  c #B55B5B",
"$  c #B75A5A",
"%  c #B45F5F",
"&  c #B75D5D",
"*  c #B85A5A",
"=  c #B85B5B",
"-  c #B85F5F",
";  c #AC6D6D",
":  c #A47777",
">  c #A37A7A",
",  c #A77C7C",
"<  c #B56565",
"1  c #B06A6A",
"2  c #B26C6C",
"3  c #B46868",
"4  c #B46A6A",
"5  c #B86363",
"6  c #B96565",
"7  c #B86767",
"8  c #B96767",
"9  c #BA6969",
"0  c #BB6B6B",
"q  c #B86D6D",
"w  c #BB6C6C",
"e  c #BB6D6D",
"r  c #BA6E6E",
"t  c #BA6F6F",
"y  c #B67C7C",
"u  c #B97373",
"i  c #BB7272",
"p  c #BB7575",
"a  c #BB7777",
"s  c #BC7373",
"d  c #BC7575",
"f  c #B87B7B",
"g  c #BB7878",
"h  c #BE7B7B",
"j  c #BC7F7F",
"k  c #BD7E7E",
"l  c #BE7C7C",
"z  c #BF7E7E",
"x  c gray59",
"c  c #9F9191",
"v  c #9B9B9B",
"b  c #9D9999",
"n  c gray61",
"m  c #9D9D9D",
"M  c #AA8F8F",
"N  c #A49191",
"B  c #AF9B9B",
"V  c #B28080",
"C  c #B68484",
"Z  c #B68C8C",
"A  c #BC8181",
"S  c #BD8080",
"D  c #BF8080",
"F  c #BA8A8A",
"G  c #BD8A8A",
"H  c #BF8B8B",
"J  c #BD8C8C",
"K  c #BF8C8C",
"L  c #BF8D8D",
"P  c #B59C9C",
"I  c #BF9191",
"U  c #BE9797",
"Y  c #B99898",
"T  c #BD9A9A",
"R  c #BF9E9E",
"E  c #A0A0A0",
"W  c gray63",
"Q  c #A2A2A2",
"!  c gray64",
"~  c gray65",
"^  c #A7A7A7",
"/  c #AEA2A2",
"(  c gray66",
")  c #ADAAAA",
"_  c #ACACAC",
"`  c gray68",
"'  c #AEAEAE",
"]  c #BBA3A3",
"[  c #BBA5A5",
"{  c #BEA2A2",
"}  c gray70",
"|  c #B5B2B2",
" . c gray71",
".. c #BFB2B2",
"X. c #BCB4B4",
"o. c #BDB7B7",
"O. c gray73",
"+. c #BFB8B8",
"@. c #BCBCBC",
"#. c gray74",
"$. c gray75",
"%. c #C08787",
"&. c #C08989",
"*. c #C18888",
"=. c #C28989",
"-. c #C08C8C",
";. c #C38E8E",
":. c #C38F8F",
">. c #C48D8D",
",. c #C19292",
"<. c #C29090",
"1. c #C29191",
"2. c #C09595",
"3. c #C19595",
"4. c #C39797",
"5. c #C49191",
"6. c #C59595",
"7. c #C59696",
"8. c #C59797",
"9. c #C69595",
"0. c #C79696",
"q. c #C09898",
"w. c #C09999",
"e. c #C39D9D",
"r. c #C49B9B",
"t. c #C79999",
"y. c #C79A9A",
"u. c #C89898",
"i. c #C99E9E",
"p. c #C7A2A2",
"a. c #C4A6A6",
"s. c #C5A7A7",
"d. c #C0ABAB",
"f. c #C6ADAD",
"g. c #C7ACAC",
"h. c #C7AFAF",
"j. c #CBA0A0",
"k. c #CAA2A2",
"l. c #CAA3A3",
"z. c #CDA7A7",
"x. c #C8A8A8",
"c. c #C9AEAE",
"v. c #CDA8A8",
"b. c #CDAAAA",
"n. c #CEAAAA",
"m. c #CFAAAA",
"M. c #CDADAD",
"N. c #CEADAD",
"B. c #C1B2B2",
"V. c #C2B6B6",
"C. c #C6B3B3",
"Z. c #C6B5B5",
"A. c #C1B9B9",
"S. c #C0BBBB",
"D. c #C2BCBC",
"F. c #C7B8B8",
"G. c #CBB5B5",
"H. c #CBB7B7",
"J. c #CCB3B3",
"K. c #CFB1B1",
"L. c #CFB2B2",
"P. c #CEB4B4",
"I. c #CABCBC",
"U. c #CCBABA",
"Y. c #CFBEBE",
"T. c #D1B0B0",
"R. c #D2B3B3",
"E. c #D0B6B6",
"W. c #D3B4B4",
"Q. c #D2BBBB",
"!. c #D0BEBE",
"~. c #D0BFBF",
"^. c #D4B9B9",
"/. c #D7BEBE",
"(. c #C0C0C0",
"). c #C1C1C1",
"_. c gray76",
"`. c #C3C3C3",
"'. c gray77",
"]. c #C7C5C5",
"[. c #C6C6C6",
"{. c gray78",
"}. c #C8C3C3",
"|. c #CAC2C2",
" X c #C9C6C6",
".X c #CAC7C7",
"XX c #CEC5C5",
"oX c gray79",
"OX c #CAC8C8",
"+X c #CACACA",
"@X c #CFC8C8",
"#X c #CFC9C9",
"$X c gray80",
"%X c #CDCDCD",
"&X c #CFCCCC",
"*X c #CFCDCD",
"=X c #CECECE",
"-X c #D0C0C0",
";X c #D2C2C2",
":X c #D0C7C7",
">X c #D7C0C0",
",X c #D7C1C1",
"<X c #D4C7C7",
"1X c #D7C6C6",
"2X c #D3CBCB",
"3X c #D2CECE",
"4X c #D5CACA",
"5X c #D7C8C8",
"6X c #D6CBCB",
"7X c #D7CACA",
"8X c #D4CFCF",
"9X c #D6CDCD",
"0X c #D9C4C4",
"qX c #D8CACA",
"wX c #D8CBCB",
"eX c #D9CDCD",
"rX c #D9CFCF",
"tX c #DCCFCF",
"yX c #D0D0D0",
"uX c LightGray",
"iX c #D4D2D2",
"pX c #D5D2D2",
"aX c #D7D3D3",
"sX c #D5D5D5",
"dX c gray84",
"fX c #D9D1D1",
"gX c #D9D2D2",
"hX c #DAD3D3",
"jX c #D8D7D7",
"kX c #DBD5D5",
"lX c #DCD7D7",
"zX c #D8D8D8",
"xX c gray85",
"cX c #DCD9D9",
"vX c #DCDBDB",
"bX c #DFD8D8",
"nX c gainsboro",
"mX c #DDDCDC",
"MX c #DDDDDD",
"NX c #DEDDDD",
"BX c gray87",
"VX c #DFDFDF",
"CX c #E0DDDD",
"ZX c gray88",
"AX c #E1E0E0",
"SX c #E1E1E1",
"DX c #E2E2E2",
"FX c gray89",
"GX c #E4E4E4",
/* pixels */
"VXVXVXVXvXVXVXvXVXvXVXVXvXMXVXVXvXVXVXvXVXVXvXVXvXVXVXVXvXVXVXVX",
"FXDXDXDXDXDXDXDXDXDXDXDXDXDXDXDXDXDXDXDXDXDXDXDXDXDXDXDXDXDXDXDX",
"FXDXDXDXDXDXDXDXDXDXDXDXDXDXDXDXVXbXbXDXDXDXDXDXDXDXDXDXDXDXDXGX",
"FXDXDXDXDXVXDXDXDXDXVXVXDXhX0X,X/./.,XDXDXVXDXVXDXVXDXVXDXDXDXDX",
"VXVXvXVXVXVXVXvXVXvXVXVXVX1XW.W.R.W.E.VXVXVXVXvXVXVXvXVXVXVXMXDX",
"VXMXvXvXvXvXvXvXvXvXvXvXVXhXm.z.m.z.R.bXvXvXvXvXvXvXvXvXvXvXaXvX",
"vXxXxXxXxXxXxXxXvXxXdXvXxXdXz.j.j.j.j.dXvXxXxXxXxXxXxXxXxXvXY.5X",
"xXdXdXdXdXsXsXxXdXdXdXdXdXdXn.9.u.l.P.aXsXdXdXdXdXdXdXdXsXdXl.5X",
"dXuXuXuXsXuXuXuXuXuXuXuXuXuXXX9.r.dXuXaXuXdXuXuXsXuXsXuX3XJ.:.2X",
"sXyXyXyXyXyXyXyXyXyXyXyXuXuXuX3.:.+X3X3X+XXXXXU.f.a.9.:.:.9.9.Y.",
"yX$X$X$X$X$X$X$X$X$X$X$X+X+Xg.z %.6.,.G %.h h h h G r.f.|.$X,.G.",
"$XoXoXoXoXoX+XoXoXoXoXoX+X+X,.s s s s h 3.r.a.Z.}.+X+X.X+XZ.i I.",
"+X[.[.[.[.[.[.[.`.[.[.[.[.[.k 0 9 9 0 s A :.3.U U U H I H s w Z.",
"oX`.`._.`._._._.`.`.`.`.`.@.9 6 5 6 6 6 6 9 w a A H U U T ..V..X",
"`.(.(.(.(.(.(.(.(.(.(.(.).T 5 - - 5 { B.o.#.).).).).).(.).).(.`.",
"_.#.#.#.#.#.#.#.#.#.#.#.o.< * * * a @.@.(.@.@.@.@.@.(.@.@.@.@.).",
").O.O.O.O.@.O.O.O.O.O.O.g O O O O Y O.O.O.O.O.O.O.O.O.O.O.O.O.(.",
"E v v v v v v v n n n , X       O b n n n n n n n n n n n n n Q ",
"v v x x v x x x x x :           > x x x x x x x x x x x x x x n ",
"E v v v v v v b v c           ; v v v n v v v v v v v n v v n Q ",
"( E E E E E E E E 1           # N E E E E E E E E E E m E E E ^ ",
"` ~ ~ ~ ~ ~ ~ ~ M     # 1 X     % ~ ~ ~ ~ ^ ~ ~ ^ ~ ~ ~ ~ ~ ~ ' ",
" .` ` ` ` ` ` ) < X 4 / ` B 4 X X y ' ' ' ' ' ' ' ' ' ' ' ' '  .",
"O. . . . . . .C # y |  . . . .Z & # P  . . . . . . . . .}  . .O.",
").@.@.@.@.@.[ 5 Z #.O.@.@.@.O.@.] < q X.#.#.#.#.#.#.#.#.#.#.#.(.",
"+X).'.).'.#.d &.`.`.).`.`.`.}.B.k w g X._._._._.`.(.`.`.(.`.(.oX",
"+X+X+X+XXXG :..X$X$X$XXX+X+Xf.k A a.oXoX+X+X+X+X+X+X+X+XoXoX+X=X",
"dXuX+XuXs.6.3X+XyXyXyX+XuXG.&.s.XXuXyXyXyXyXyXyXyXyXyXyXyXyXyXsX",
"kXdXkX|.u.<X3XaXsXsXsXdXY.i.|.dXdXsXsXsXdXdXsXdXsXsXdXdXsXsXsXxX",
"vXvX9Xz.z.z.s.W.dXvXxX2Xz.n.R.L.5XxXxXxXxXxXxXxXxXxXxXxXxXxXxXvX",
"VXvXbX3X9X3XhXhXbXVXVXhXwXwX5X9XvXvXvXVXMXMXMXMXvXMXMXMXMXvXvXVX",
"$X$X+X$XXX+X$XXX+X+X+X+X+X+X+X+X+X+X+X+X+X+X+X+X+X+X+X+X+X+X+XyX"
};
