/* XPM */
static char *abxPicker[] = {
/* columns rows colors chars-per-pixel */
"32 32 49 1",
"  c #B95656",
". c #BA5757",
"X c #BC5D5D",
"o c #BF6464",
"O c #C67676",
"+ c #C87C7C",
"@ c #CA7E7E",
"# c #CA7F7F",
"$ c gray59",
"% c #9B9B9B",
"& c gray61",
"* c #A0A0A0",
"= c gray63",
"- c gray65",
"; c gray68",
": c gray71",
"> c gray73",
", c #BCBCBC",
"< c gray74",
"1 c #CB8383",
"2 c #CD8686",
"3 c #CE8A8A",
"4 c #D08D8D",
"5 c #D08E8E",
"6 c #D39595",
"7 c #D59999",
"8 c #D69B9B",
"9 c #D69C9C",
"0 c #D8A0A0",
"q c #D9A4A4",
"w c #DAA6A6",
"e c #DBAAAA",
"r c #C0C0C0",
"t c #C3C3C3",
"y c #C6C6C6",
"u c gray79",
"i c #CACACA",
"p c gray80",
"a c #D0D0D0",
"s c LightGray",
"d c #D5D5D5",
"f c gray84",
"g c gray85",
"h c gainsboro",
"j c #DDDDDD",
"k c gray87",
"l c #E1E1E1",
"z c #E2E2E2",
"x c gray89",
/* pixels */
"jjgjjjjjjjjjjjjjjjjjjjjjjjhjjjjj",
"xxxxxxxxxxxxxxxxxxxxxxxxxxxxxxxx",
"xxjxxxxxxxxxxxxkxxxxxkxxxxxxxxxx",
"xxxxjxxjkxkxeeeeeeeexxkxxkkxxkxk",
"jjjjjjjxjjkjqqeqqqqejjjjjjjjjjjj",
"jjjjjgjghhjjqqqqqqqqhhhhjjjhhhhj",
"gggggggggggg00000000gggggggggggg",
"fffffffffffg99999999ffffffffffff",
"sfsssssssfss88886889ssssssssssss",
"spspssspspsp66566666sspspssspsps",
"pppppppppppppppppppppppppppppppp",
"uuuu35335533p533533p33533553uuuu",
"yyyy33333333y333333y33333333yyyy",
"tttt22222322t222322t22222222tttt",
"tt,ttt,ttt,tt111111tt<ttt<t<ttt<",
">,,,,,,,,,,,,@@@@@@,,,,,,,,,,<,,",
">>>>>>>>>>>>,++++++>>>>>>>>>>>>>",
"&&&&&&&&&&&&&&&&&&&&&&&&&&&&&&&&",
"$$$$$$$$$$$$        $$$$$$$$$$$$",
"%%%%%&&&%%&&. ..... %%&&%%%%%%%%",
"***=*===****XXXXXXXX**======*===",
"------------oooooooo------------",
";;;;;;;;;;;;;;;;;;;;;;;;;;;;;;;;",
":::::::::::OOO::::OOO:::::::::::",
",,,,,,,,,,,@@@,,,,@@1,,,,,,,,,,,",
"ttttttttttt222tttt232ttttttttttt",
"pupupppuppp335ppuu353uuuupupuuuu",
"pspsppsppsp666psss666ssppspsssps",
"ffsfgfsffff888ffsf889fsffsffsffs",
"ggggggggggg000gggg090ggggggggggg",
"hjjjjjjjjjjjjjjjjjjjjjjjjjjjjjjj",
"upuupuupupuuuupuupuupuupuuupuupu"
};
