/* XPM */
static char *abxPendulate[] = {
/* columns rows colors chars-per-pixel */
"32 32 251 2",
"   c #B74F4F",
".  c #B65151",
"X  c #B75050",
"o  c #B65252",
"O  c #B65353",
"+  c #B75353",
"@  c #B55555",
"#  c #B45656",
"$  c #B65454",
"%  c #B65555",
"&  c #B75555",
"*  c #B65656",
"=  c #B75656",
"-  c #B35A5A",
";  c #B25D5D",
":  c #B35C5C",
">  c #B35D5D",
",  c #B75A5A",
"<  c #B55E5E",
"1  c #B75C5C",
"2  c #B75F5F",
"3  c #B85A5A",
"4  c #B85F5F",
"5  c #AE6262",
"6  c #AC6666",
"7  c #AD6B6B",
"8  c #AC6D6D",
"9  c #AD6C6C",
"0  c #A77272",
"q  c #A37A7A",
"w  c #A77B7B",
"e  c #A97474",
"r  c #AC7070",
"t  c #AE7070",
"y  c #AF7676",
"u  c #A97878",
"i  c #AE7F7F",
"p  c #B16464",
"a  c #B36464",
"s  c #B56060",
"d  c #B56363",
"f  c #B56464",
"g  c #B56565",
"h  c #B76464",
"j  c #B76565",
"k  c #B86262",
"l  c #B86565",
"z  c #B86767",
"x  c #B96666",
"c  c #B86D6D",
"v  c #B96C6C",
"b  c #B86F6F",
"n  c #BB6C6C",
"m  c #BA6E6E",
"M  c #B37171",
"N  c #B37979",
"B  c #B27C7C",
"V  c #B67A7A",
"C  c #B67D7D",
"Z  c #B97373",
"A  c #BB7171",
"S  c #BA7272",
"D  c #BC7373",
"F  c #B97878",
"G  c #BE7B7B",
"H  c #BE7E7E",
"J  c #9F8383",
"K  c #9E8686",
"L  c #998F8F",
"P  c #9A8E8E",
"I  c gray59",
"U  c #989191",
"Y  c #989292",
"T  c #9F9393",
"R  c #9E9696",
"E  c #9B9B9B",
"W  c gray61",
"Q  c #9D9D9D",
"!  c #A08181",
"~  c #A28787",
"^  c #A48181",
"/  c #A48484",
"(  c #A08F8F",
")  c #A18E8E",
"_  c #A78B8B",
"`  c #A78C8C",
"'  c #AA8181",
"]  c #AC8585",
"[  c #AB8D8D",
"{  c #AA8F8F",
"}  c #A29C9C",
"|  c #A99898",
" . c #A89A9A",
".. c #A99A9A",
"X. c #A89C9C",
"o. c #A89E9E",
"O. c #AF9C9C",
"+. c #AF9F9F",
"@. c #B28181",
"#. c #B28383",
"$. c #B18686",
"%. c #B68989",
"&. c #B68B8B",
"*. c #B98080",
"=. c #B98181",
"-. c #BA8383",
";. c #B98585",
":. c #BA8787",
">. c #BA8F8F",
",. c #B99393",
"<. c #B99595",
"1. c #BA9797",
"2. c #BC9191",
"3. c #BE9393",
"4. c #B99D9D",
"5. c #BD9A9A",
"6. c #BF9B9B",
"7. c #BF9E9E",
"8. c #A0A0A0",
"9. c #A1A0A0",
"0. c gray63",
"q. c #A2A2A2",
"w. c gray64",
"e. c #A7A1A1",
"r. c #A6A5A5",
"t. c gray65",
"y. c #A7A7A7",
"u. c #A8A2A2",
"i. c #AEA0A0",
"p. c #AEA7A7",
"a. c gray66",
"s. c #ACACAC",
"d. c gray68",
"f. c #B5A0A0",
"g. c #B5A4A4",
"h. c #B5A6A6",
"j. c #B5AAAA",
"k. c #B5ADAD",
"l. c #B9A6A6",
"z. c #BCA5A5",
"x. c #BCA7A7",
"c. c #B9A8A8",
"v. c #BBADAD",
"b. c #BCA9A9",
"n. c #BCAAAA",
"m. c gray70",
"M. c #B5B3B3",
"N. c gray71",
"B. c #BAB4B4",
"V. c #BAB5B5",
"C. c #BDB4B4",
"Z. c #BDB5B5",
"A. c #BCB6B6",
"S. c #BFB5B5",
"D. c gray73",
"F. c #BDB8B8",
"G. c #BFB9B9",
"H. c #BCBCBC",
"J. c #BDBCBC",
"K. c gray74",
"L. c gray75",
"P. c #C18484",
"I. c #C18888",
"U. c #C08B8B",
"Y. c #C18B8B",
"T. c #C38F8F",
"R. c #C48D8D",
"E. c #C19191",
"W. c #C19292",
"Q. c #C49191",
"!. c #C59595",
"~. c #C79696",
"^. c #C09999",
"/. c #C39D9D",
"(. c #C39F9F",
"). c #C79B9B",
"_. c #C69C9C",
"`. c #C0A4A4",
"'. c #C4A1A1",
"]. c #C7A2A2",
"[. c #C0A8A8",
"{. c #C5ACAC",
"}. c #C6AEAE",
"|. c #CBA0A0",
" X c #CBA1A1",
".X c #CAA2A2",
"XX c #C8A7A7",
"oX c #C8A9A9",
"OX c #C9AEAE",
"+X c #CFAAAA",
"@X c #C2B6B6",
"#X c #C4B2B2",
"$X c #C7B5B5",
"%X c #C7B6B6",
"&X c #C0BABA",
"*X c #C2BEBE",
"=X c #C3BFBF",
"-X c #C7BABA",
";X c #CAB0B0",
":X c #CBB9B9",
">X c #C8BFBF",
",X c #CCBBBB",
"<X c #D1B3B3",
"1X c #D2B3B3",
"2X c #D3B4B4",
"3X c #D0BABA",
"4X c #C0C0C0",
"5X c #C1C1C1",
"6X c #C3C1C1",
"7X c gray76",
"8X c #C3C2C2",
"9X c #C3C3C3",
"0X c gray77",
"qX c #C6C6C6",
"wX c gray78",
"eX c #C9C4C4",
"rX c #CFC1C1",
"tX c #CEC6C6",
"yX c gray79",
"uX c #CACACA",
"iX c #CFCACA",
"pX c gray80",
"aX c #CDCDCD",
"sX c #CFCCCC",
"dX c #CECECE",
"fX c #D3C0C0",
"gX c #D2C7C7",
"hX c #D7C3C3",
"jX c #D7C9C9",
"kX c #D7CFCF",
"lX c #D9C4C4",
"zX c #D8CACA",
"xX c #DAC8C8",
"cX c #D0D0D0",
"vX c LightGray",
"bX c #D4D2D2",
"nX c #D5D5D5",
"mX c gray84",
"MX c #D8D8D8",
"NX c gray85",
"BX c #DFDBDB",
"VX c gainsboro",
"CX c #DDDDDD",
"ZX c gray87",
"AX c #DFDFDF",
"SX c #E0DDDD",
"DX c gray88",
"FX c #E1E1E1",
"GX c #E2E2E2",
"HX c gray89",
"JX c #E4E4E4",
/* pixels */
"AXAXAXAXVXAXAXVXAXVXAXAXVXVXAXAXVXAXAXVXAXVXAXAXVXVXAXAXVXAXVXAX",
"HXGXGXGXGXGXGXGXGXGXGXGXGXGXGXGXGXGXGXGXGXGXGXGXGXGXGXGXGXGXGXGX",
"HXGXGXGXGXGXGXGXGXGXGXGXGXGXGXGXGXGXGXGXGXGXGXGXGXGXGXGXGXGXGXHX",
"HXGXGXGXGXAXGXGXGXGXAXAXGXVXhXxXAXGXAXGXGXAXGXAXGXGXAXGXGXGXGXHX",
"AXVXAXAXAXAXAXVXAXAXAXAXAXhX2X2XlXAXAXVXAXAXVXAXAXAXVXAXAXAXAXAX",
"AXVXVXVXVXVXVXVXVXVXVXVXAX1X+X+XjXAXVXVXVXVXVXVXVXVXVXVXVXVXVXAX",
"VXmXmXVXVXmXmXVXVXmXVXVXkX_..XfXVXVXmXVXmXVXmXVXmXVXmXVXVXmXmXVX",
"VXmXmXmXmXmXmXmXmXmXbXmX3X~..XmXbXmXmXmXmXmXmXmXmXcXmXmXmXmXmXVX",
"mXcXmXcXvXvXvXvXvXvXvXvX).R.rXcXvXvXvXvXvXvXvXvXcXmXcXmXcXmXcXVX",
"cXcXcXcXdXkXdXdXcXcXdX,XP.oXcXcXcXcXcXcXcXcXcXdXcXcXcXcXcXcXcXcX",
"cXaXaXaXpXpXaXpXaXaXaXU.U.aXaXyXaXuXuXaXaXaXuXaXaXaXyXaXyXaXaXcX",
"aXyXyXyXyXyXyXyXyXyX(.D -XyXyXyXyXyXyXyXyXyXyXyXyXyXyXyXyXyXyXaX",
"yXqXqXqXqXqXqXqXqX#Xn ^.qXqXqXqXqXqXqXqXqXqXqXqXqXqXqXqXqXqXqXyX",
"qX9X8XqX8X9X9X8X@Xv v =X9X9X9X9X9X9X9X9X9X9X9X9X9X9X9X9XqX9X9XqX",
"qX9XD.8X&X2.S v l k 5.9X9X9X=X9X4X4X9XD.=X=X@XA.9XD.9X9X9X9X9X9X",
"9XD.D.v.l 3 3 3 3 3 z.D.D.D.D.A.D.=XD.b.D.b.-.A.9XD.D.D.D.D.D.9X",
"4XD.V.k & & & & & $ S D.B.,.c.<.4.D.V.<.> l x.D.D.D.D.D.D.D.D.=X",
"w.R e       +       O ( E ( 8 - $ > $ $ 8 O / W W W W W W W W 0.",
"W K 5                 K I I I L $ 0 ! Y I 6 O Y I q L I I I I W ",
"0.w ,                 ^ E E E E ; ~ E E E (   8 7 e E W E E E w.",
"a.' >                 _ 0.8.8.0.; ` 0.0.Q 0.a   r 0.0.0.0.Q 0.a.",
"s. .N               $ e.e.{  .o.O  .r. .[ g $   ] r.a.r.i ] a.s.",
"N.s.p.> & + O $ + + M s.s.f.#.d $ g d d g N +.O #.s.s.#.N O.s.M.",
"D.N.N.4.> , 3 , 3 l j.N.N.N.N.4 &.h.h.k.N.N.N.g %.N.C V N.N.N.D.",
"4XD.D.D.C.C F -.<.A.D.D.D.9X:.F D.D.D.D.D.D.D.S >.v :.D.D.D.D.9X",
"wX9X9X9X8XqX9X9X9XqX&X`.@X5.2.8XqXqXqX8XqX=X(.D S `.8X8XqXqX9XyX",
"aXuXuXuXpXyXyXyXyXyX,X'.2.2.(.}.$X$X}.'.2.H G U.eXyXyXpXyXyXyXaX",
"vXcXcXcXcXcXcXcXcXcXaXeXbXgX,XOX.X!.Q.Q._.OXXXaXcXcXcXcXcXcXaXmX",
"mXmXmXmXmXmXmXmXmXvXmXmXmXvXmXmXmXmXmXvXcXbXgXcXcXmXmXmXmXcXmXVX",
"VXmXVXmXVXmXmXVXmXVXVXmXVXVXmXmXVXmXmXVXVXmXVXVXVXmXVXmXVXVXVXVX",
"AXAXAXAXVXAXAXVXAXVXAXAXVXVXAXAXAXAXAXVXAXAXAXAXAXVXAXAXVXAXVXAX",
"aXyXyXyXyXyXyXyXyXyXyXyXyXyXyXyXyXyXyXyXyXyXyXyXyXyXyXyXyXyXyXaX"
};
