/* XPM */
static char *abxSmartKey[] = {
/* columns rows colors chars-per-pixel */
"32 32 223 2",
"   c #B74F4F",
".  c #B65353",
"X  c #B75353",
"o  c #B25B5B",
"O  c #B25C5C",
"+  c #B25D5D",
"@  c #B75A5A",
"#  c #B75B5B",
"$  c #AF6161",
"%  c #AF6565",
"&  c #AE6767",
"*  c #AF6666",
"=  c #AE6D6D",
"-  c #AF6C6C",
";  c #A77171",
":  c #AA7272",
">  c #AA7373",
",  c #AA7474",
"<  c #AC7777",
"1  c #AE7F7F",
"2  c #B16565",
"3  c #B36666",
"4  c #B76565",
"5  c #B46B6B",
"6  c #B66B6B",
"7  c #B66C6C",
"8  c #B86262",
"9  c #B86363",
"0  c #B86565",
"q  c #B86666",
"w  c #B86767",
"e  c #B86868",
"r  c #B86A6A",
"t  c #B96A6A",
"y  c #B96B6B",
"u  c #B86D6D",
"i  c #B96D6D",
"p  c #BA6E6E",
"a  c #BA6F6F",
"s  c #B27C7C",
"d  c #B87171",
"f  c #B97272",
"g  c #BA7070",
"h  c #BA7171",
"j  c #B97575",
"k  c #B97676",
"l  c #BB7676",
"z  c #BC7575",
"x  c #BC7676",
"c  c #B97A7A",
"v  c #B97E7E",
"b  c #BB7D7D",
"n  c #BC7B7B",
"m  c #BE7B7B",
"M  c #BE7C7C",
"N  c #9A8D8D",
"B  c #979393",
"V  c #979595",
"C  c gray59",
"Z  c #9B9B9B",
"A  c #9D9999",
"S  c #9D9A9A",
"D  c gray61",
"F  c #9D9D9D",
"G  c #A48484",
"H  c #AB8E8E",
"J  c #AA9191",
"K  c #AB9191",
"L  c #AF9A9A",
"P  c #B28787",
"I  c #B18A8A",
"U  c #B88080",
"Y  c #BE8585",
"T  c #BF8585",
"R  c #B09191",
"E  c #B09595",
"W  c #B69999",
"Q  c #B99696",
"!  c #B99797",
"~  c #BC9696",
"^  c #BE9494",
"/  c #BB9898",
"(  c #BD9C9C",
")  c #A0A0A0",
"_  c gray63",
"`  c #A2A2A2",
"'  c gray64",
"]  c #A7A1A1",
"[  c gray65",
"{  c #A7A7A7",
"}  c #AEA7A7",
"|  c gray66",
" . c #ACACAC",
".. c gray68",
"X. c #B5A3A3",
"o. c #B9A1A1",
"O. c #BBA6A6",
"+. c #BFA1A1",
"@. c #BAAAAA",
"#. c #BCAAAA",
"$. c #BCAFAF",
"%. c gray70",
"&. c #B5B0B0",
"*. c gray71",
"=. c #BAB3B3",
"-. c #BCB7B7",
";. c #BAB9B9",
":. c gray73",
">. c #BCB9B9",
",. c #BCBBBB",
"<. c #BDBBBB",
"1. c #BCBCBC",
"2. c gray74",
"3. c gray75",
"4. c #C08282",
"5. c #C08484",
"6. c #C18888",
"7. c #C08B8B",
"8. c #C28989",
"9. c #C28A8A",
"0. c #C38B8B",
"q. c #C28F8F",
"w. c #C38E8E",
"e. c #C29393",
"r. c #C49090",
"t. c #C59292",
"y. c #C59393",
"u. c #C59595",
"i. c #C59696",
"p. c #C29C9C",
"a. c #C59898",
"s. c #C79999",
"d. c #C59F9F",
"f. c #C89A9A",
"g. c #C89F9F",
"h. c #C99E9E",
"j. c #C5A7A7",
"k. c #CAA3A3",
"l. c #C9A5A5",
"z. c #CAA5A5",
"x. c #CCA3A3",
"c. c #CCA5A5",
"v. c #C9AAAA",
"b. c #C8AFAF",
"n. c #CBACAC",
"m. c #CBADAD",
"M. c #CAAFAF",
"N. c #CDA8A8",
"B. c #CEABAB",
"V. c #CEADAD",
"C. c #C1B1B1",
"Z. c #C3B1B1",
"A. c #C5BFBF",
"S. c #CDB3B3",
"D. c #CFB0B0",
"F. c #CFB6B6",
"G. c #C8BEBE",
"H. c #D0ACAC",
"J. c #D0ADAD",
"K. c #D0AEAE",
"L. c #D0AFAF",
"P. c #D1B2B2",
"I. c #D0BABA",
"U. c #D2B8B8",
"Y. c #D3BBBB",
"T. c #C0C0C0",
"R. c #C1C1C1",
"E. c #C2C0C0",
"W. c gray76",
"Q. c #C3C3C3",
"!. c gray77",
"~. c #C6C6C6",
"^. c gray78",
"/. c #C8C2C2",
"(. c #CDC0C0",
"). c #CDC1C1",
"_. c #CEC6C6",
"`. c #C9C8C8",
"'. c gray79",
"]. c #CBC8C8",
"[. c #CACACA",
"{. c #CFCBCB",
"}. c gray80",
"|. c #CDCDCD",
" X c #CECECE",
".X c #D3C0C0",
"XX c #D3C2C2",
"oX c #D0C5C5",
"OX c #D0C7C7",
"+X c #D2C6C6",
"@X c #D6C5C5",
"#X c #D3C9C9",
"$X c #D2CCCC",
"%X c #D4CDCD",
"&X c #D4CECE",
"*X c #D6CCCC",
"=X c #D9CFCF",
"-X c #DACFCF",
";X c #D0D0D0",
":X c #D2D0D0",
">X c LightGray",
",X c #D5D4D4",
"<X c #D5D5D5",
"1X c gray84",
"2X c #DAD1D1",
"3X c #D8D7D7",
"4X c #DAD4D4",
"5X c #DCD5D5",
"6X c #D8D8D8",
"7X c gray85",
"8X c #DBDADA",
"9X c #DDDADA",
"0X c gainsboro",
"qX c #DDDCDC",
"wX c #DDDDDD",
"eX c #DEDDDD",
"rX c gray87",
"tX c #DFDFDF",
"yX c gray88",
"uX c #E1E1E1",
"iX c #E2E2E2",
"pX c gray89",
"aX c #E4E4E4",
/* pixels */
"tXtXtXtX8XtXtX8X8XtXrX8XtXrX8XrXrXrX8XrXtXtX8XtXtX8XtXtX8XtXtXtX",
"pXiXiXiXiXiXpXiXpXpXpXpXpXpXpXpXpXpXpXpXiXiXiXiXiXiXiXiXiXpXiXiX",
"pXiXiXiXiXiXiXiXpXpXpXpXiXpXiXpXiXiXiXiXiXiXiXiXiXiXiXiXiXiXiXpX",
"pXiXiXiXtXiXiXiXtXpXtXtXtXiXtXiXiXiXtXiXiXiXeXiXiXiXtXiXiXiXiXpX",
"tXtXtXtXtXtXtXtXtXtXtXtXtXtXtXtX8X8X2X2X5XeXtXtXtXtXtXtXtXtXtXtX",
"tX8X8X8X8X8X8X8X8X8X8X8X8X=X@XU.L.S.H.H.H.Y.5X9X8X8X8X8X8X8X8XtX",
"8X0X7X7X7X7X8X7X8X8X8XXXm.x.N.m.c.x.x.x.c.x.H.3X0X7X7X7X7X7X7X8X",
"7X1X1X1X1X<X<X7X$X+Xk.f.k.U.#X1XS.d.f.f.f.f.d.*X1X1X1X1X1X1X1X8X",
"1X>X>X>X<X&X<X_.d.t.t.m.$X<X&X_.k.t.u.t.t.e.M.&X>X>X>X>X>X>X>X1X",
"<X;X;X;X;X&X`.a.0.0.t.).&X).b.u.w.0.0.0.q.q.).&X;X;X;X;X;X;X;X>X",
";X}.}.}.}.}.M.4.4.4.4.e.w.8.4.4.4.4.4.4.4.d.`.}.}.}.}.}.}.}.}.;X",
"}.'.'.'.`.`.p.b M m m b M m m M m m b b Y ).`.`.'.'.'.'.'.'.'.}.",
"[.~.~.~.~.R.T x x x x x x x x x x x x 5.Z.~.~.~.~.~.~.~.~.!.~.[.",
"~.Q.Q.Q.R.R.b g p p h 7 p p p p 7 h 7 j.!.R.R.~.Q.Q.Q.!.!.Q.Q.'.",
"!.T.T.T.R.T.~ 7 y y y y p y y y y y g ( R.T.T.T.T.T.T.T.T.T.T.!.",
"Q.2.2.2.2.2.2./ n g 7 y w y w w w w j #.&.2.2.2.2.2.2.2.2.2.2.T.",
"2.2.:.2.:.:.2.2.:.2.=.#.o.~ 7 v 8 8 w 7 g / :.:.:.:.2.:.:.2.:.R.",
"[ Z Z Z Z Z Z Z Z Z Z Z Z Z O Z X       O ; Z Z Z Z Z Z Z Z Z _ ",
"Z C C C C C C C C C C C C V $ N ;     O C B C C C C C C C C C Z ",
"_ Z Z Z Z Z Z C Z Z Z Z Z Z & G >     X 3 & ; Z Z Z Z Z Z Z C [ ",
"| _ _ _ _ _ _ _ _ _ _ _ _ ) = = <           & _ _ _ _ _ [ _ _ [ ",
"..[ [ [ [ [ [ [ [ [ [ [ | [ K 1 K       3 H L [ [ [ [ [ [ [ [ ..",
"%...........................I K E X X X 5 } P s L ............%.",
":.*.*.*.*.*.*.*.*.*.*.*.*.*.X.5 &.4 # # # # # 5 W *.*.*.*.*.*.:.",
"R.2.2.2.:.2.2.:.2.2.:.2.2.:.2.k >.h 8 8 5 v O.:.>.2.2.2.2.2.2.T.",
"'.R.!.!.Q.Q.Q.Q.Q.Q.Q.Q.Q.Q.!.k Z.b p h ^ T.!.Q.~.R.!.!.T.!.!.!.",
"}.`.`.}.[.[.'.'.[.[.[.'.[.[.[.j.b M b 5.A.`.[.[.`.`.}.'.}.'.'.}.",
"<X;X&X;X;X;X;X;X;X;X;X;X;X;X;X;Xm.0.8.u.}.&X;X;X&X;X;X;X;X;X;X<X",
"7X<X<X<X<X1X<X<X<X<X<X<X<X<X<X<X1XS.a.k.<X<X<X1X<X<X<X<X<X<X<X7X",
"8X7X7X0X7X7X7X7X7X0X7X7X7X7X7X8X8X8XXX*X1X0X7X7X7X7X7X0X7X7X7X8X",
"rXrXrX8XrX8X8XrX8XrX8X8X8XtXtX8XtXtXtXtXrXrX8XrX8XrX8XrXrX8X8XtX",
"|.[.[.[.[.'.[.}.[.}.}.}.'.}.`.`.`.`.`.`.[.[.[.[.[.[.[.[.}.[.[.;X"
};
