/* XPM */ 
static const unsigned char * abxtangents_xpm[] = {
"32 32 267 2",
"  	c None",
"! 	c #DDDDDD",
"# 	c #E3E3E3",
"$ 	c #E2E2E2",
"% 	c #E1E1E1",
"& 	c #DEDEDE",
"' 	c #DCDCDC",
"( 	c #D9D9D9",
") 	c #D6D6D6",
"* 	c #D6D5D5",
"+ 	c #D6D1D1",
", 	c #D5CBCB",
"- 	c #D5C6C6",
". 	c #D4C1C1",
"0 	c #D4C3C3",
"1 	c #D5CACA",
"2 	c #D6D4D4",
"3 	c #D5D0D0",
"4 	c #D5C5C5",
"5 	c #D4C4C4",
"6 	c #D5CECE",
"7 	c #D3D3D3",
"8 	c #D2CCCC",
"9 	c #D1BBBB",
": 	c #D0B2B2",
"; 	c #D2C6C6",
"< 	c #D3D2D2",
"= 	c #D2CBCB",
"> 	c #D0ACAC",
"? 	c #CF9B9B",
"@ 	c #CE9797",
"A 	c #CE9595",
"B 	c #CE9898",
"C 	c #D2C4C4",
"D 	c #D0A9A9",
"E 	c #CE9696",
"F 	c #CFA4A4",
"G 	c #D2CACA",
"H 	c #D0D0D0",
"I 	c #D0CACA",
"J 	c #CDA6A6",
"K 	c #CB8F8F",
"L 	c #CB8D8D",
"M 	c #CB9292",
"N 	c #CDA9A9",
"O 	c #CEB0B0",
"P 	c #CEB1B1",
"Q 	c #CDA4A4",
"R 	c #CB8E8E",
"S 	c #CCA0A0",
"T 	c #CDA2A2",
"U 	c #CEB3B3",
"V 	c #CCCCCC",
"W 	c #CAB4B4",
"X 	c #C68585",
"Y 	c #C68383",
"Z 	c #C68484",
"[ 	c #C9A2A2",
"] 	c #C9C9C9",
"^ 	c #C7AAAA",
"_ 	c #C37D7D",
"` 	c #C37C7C",
"a 	c #C37E7E",
"b 	c #C38282",
"c 	c #C48383",
"d 	c #C48484",
"e 	c #C38080",
"f 	c #C37F7F",
"g 	c #C38181",
"h 	c #C7AFAF",
"i 	c #C6C6C6",
"j 	c #C5B6B6",
"k 	c #C18080",
"l 	c #C07676",
"m 	c #C07979",
"n 	c #C39A9A",
"o 	c #C4AFAF",
"p 	c #C4B1B1",
"q 	c #C4ACAC",
"r 	c #C28C8C",
"s 	c #C07777",
"t 	c #C07878",
"u 	c #C29393",
"v 	c #C4ADAD",
"w 	c #C4AEAE",
"x 	c #C39C9C",
"y 	c #C18383",
"z 	c #C18787",
"{ 	c #C4A7A7",
"| 	c #C6C2C2",
"} 	c #C3C3C3",
"~ 	c #C3C0C0",
" !	c #C1AFAF",
"!!	c #BF9494",
"#!	c #C1AAAA",
"$!	c #C3BEBE",
"%!	c #C3C1C1",
"&!	c #C1A9A9",
"'!	c #BD7878",
"(!	c #BE8A8A",
")!	c #C09A9A",
"*!	c #C09C9C",
"+!	c #C09D9D",
",!	c #BF9191",
"-!	c #BD7A7A",
".!	c #BE8181",
"0!	c #C1AEAE",
"1!	c #C3C2C2",
"2!	c #C0C0C0",
"3!	c #C0BEBE",
"4!	c #BFB1B1",
"5!	c #BB8282",
"6!	c #BB7B7B",
"7!	c #BEABAB",
"8!	c #C0BFBF",
"9!	c #C0BBBB",
":!	c #BEA1A1",
";!	c #BA7373",
"<!	c #BC8D8D",
"=!	c #BFB5B5",
">!	c #BDBDBD",
"?!	c #BDB8B8",
"@!	c #BA9696",
"A!	c #B66363",
"B!	c #BA9898",
"C!	c #BDB9B9",
"D!	c #BCB5B5",
"E!	c #B98C8C",
"F!	c #B77272",
"G!	c #BA9999",
"H!	c #BABABA",
"I!	c #BAB9B9",
"J!	c #B8A7A7",
"K!	c #B47272",
"L!	c #B57676",
"M!	c #B9ABAB",
"N!	c #B47575",
"O!	c #B47171",
"P!	c #9C9C9C",
"Q!	c #9B9494",
"R!	c #976060",
"S!	c #932525",
"T!	c #986A6A",
"U!	c #9C9797",
"V!	c #9C9696",
"W!	c #986767",
"X!	c #932626",
"Y!	c #975858",
"Z!	c #9B9292",
"[!	c #969696",
"]!	c #969595",
"^!	c #947979",
"_!	c #8D2A2A",
"`!	c #8E3333",
"a!	c #947E7E",
"b!	c #948080",
"c!	c #8E3636",
"d!	c #8C1E1E",
"e!	c #947878",
"f!	c #9B9B9B",
"g!	c #9A9191",
"h!	c #965757",
"i!	c #922929",
"j!	c #976666",
"k!	c #9B9595",
"l!	c #9B9898",
"m!	c #976A6A",
"n!	c #901010",
"o!	c #976161",
"p!	c #A1A1A1",
"q!	c #A1A0A0",
"r!	c #A19C9C",
"s!	c #9E7878",
"t!	c #983333",
"u!	c #9A5050",
"v!	c #A08F8F",
"w!	c #A0A0A0",
"x!	c #9E8989",
"y!	c #983B3B",
"z!	c #984242",
"{!	c #9E8888",
"|!	c #A09F9F",
"}!	c #A6A6A6",
"~!	c #A6A2A2",
" #	c #A38181",
"!#	c #9E4646",
"##	c #9E4242",
"$#	c #A38484",
"%#	c #A6A3A3",
"&#	c #A5A0A0",
"'#	c #A27070",
"(#	c #9D3939",
")#	c #A16C6C",
"*#	c #A59E9E",
"+#	c #ADADAD",
",#	c #ADACAC",
"-#	c #ACA2A2",
".#	c #AA8888",
"0#	c #A75959",
"1#	c #A64E4E",
"2#	c #AA8A8A",
"3#	c #ADA8A8",
"4#	c #AC9C9C",
"5#	c #A76262",
"6#	c #AA8787",
"7#	c #ADA7A7",
"8#	c #B5B5B5",
"9#	c #B5B3B3",
":#	c #B4ABAB",
";#	c #B39B9B",
"<#	c #B17C7C",
"=#	c #AE5B5B",
">#	c #AF6565",
"?#	c #B29090",
"@#	c #B5B0B0",
"A#	c #B39C9C",
"B#	c #AF6666",
"C#	c #AF6464",
"D#	c #B29191",
"E#	c #B4ADAD",
"F#	c #B5B4B4",
"G#	c #BAA8A8",
"H#	c #BA9F9F",
"I#	c #B88A8A",
"J#	c #B67070",
"K#	c #B56D6D",
"L#	c #B88888",
"M#	c #BAA7A7",
"N#	c #BCB7B7",
"O#	c #BCBCBC",
"P#	c #BCB8B8",
"Q#	c #B99E9E",
"R#	c #B67474",
"S#	c #B67272",
"T#	c #B88F8F",
"U#	c #BAA4A4",
"V#	c #BBADAD",
"W#	c #BBB0B0",
"X#	c #BBB1B1",
"Y#	c #BE8080",
"Z#	c #BD7979",
"[#	c #C1ABAB",
"]#	c #C2BBBB",
"^#	c #BC7373",
"_#	c #BE8383",
"`#	c #BF8C8C",
"a#	c #BF8F8F",
"b#	c #C79E9E",
"c#	c #C8ABAB",
"d#	c #C9B8B8",
"e#	c #C9C2C2",
"f#	c #CAC9C9",
"g#	c #CACACA",
"h#	c #C9C0C0",
"i#	c #C8B5B5",
"j#	c #C7A5A5",
"k#	c #C69797",
"l#	c #C59090",
"m#	c #C58E8E",
"n#	c #D0C9C9",
"o#	c #D0CDCD",
"p#	c #D0CFCF",
"q#	c #D0CCCC",
"r#	c #CFC7C7",
"s#	c #CFC5C5",
"t#	c #CFC4C4",
"u#	c #D5D5D5",
"! ! ! ! ! ! ! ! ! ! ! ! ! ! ! ! ! ! ! ! ! ! ! ! ! ! ! ! ! ! ! ! ",
"# # # # # # # # # # # # # # # # # # # # # # # # # # # # # # # # ",
"$ $ $ $ $ $ $ $ $ $ $ $ $ $ $ $ $ $ $ $ $ $ $ $ $ $ $ $ $ $ $ $ ",
"% % % % % % % % % % % % % % % % % % % % % % % % % % % % % % % % ",
"& & & & & & & & & & & & & & & & & & & & & & & & & & & & & & & & ",
"' ' ' ' ' ' ' ' ' ' ' ' ' ' ' ' ' ' ' ' ' ' ' ' ' ' ' ' ' ' ' ' ",
"( ( ( ( ( ( ( ( ( ( ( ( ( ( ( ( ( ( ( ( ( ( ( ( ( ( ( ( ( ( ( ( ",
") ) ) ) ) ) ) ) ) ) ) ) * + , - . 0 1 2 ) ) ) ) ) * 3 4 5 6 * ) ",
"7 7 8 9 : ; < 7 7 7 7 7 = > ? @ A A B C 7 7 7 7 7 = D E A F G 7 ",
"H I J K L M N O O P P P Q R L L L L R S O P P P O T R L L R U H ",
"V W X Y Y Y Y Z Z Z Z Z Z Y Y Y Y Y Y Z Z Z Z Z Z Z Y Y Y Y [ V ",
"] ^ _ ` ` ` a b c c d d e ` ` ` ` ` ` f c c c d c g ` ` ` a h ] ",
"i j k l l m n o p p p q r s l l l l t u v p p p p w x y z { | i ",
"} ~  !!!!!#!$!} } } %!&!'!(!)!*!+!,!-!.!0!1!} } } } 1!$!%!} } } ",
"2!2!2!3!3!2!2!2!2!2!4!5!6!7!8!2!2!9!:!;!<!=!2!2!2!2!2!2!2!2!2!2!",
">!>!>!>!>!>!>!>!>!?!@!A!B!C!>!>!>!>!D!E!F!G!C!>!>!>!>!>!>!>!>!>!",
"H!H!H!H!H!H!H!H!I!J!K!L!M!H!H!H!H!H!I!J!N!O!J!I!H!H!H!H!H!H!H!H!",
"P!P!P!P!P!P!P!P!Q!R!S!T!U!P!P!P!P!P!P!V!W!X!Y!Z!P!P!P!P!P!P!P!P!",
"[![![![![![![!]!^!_!`!a!]![![![![![![!]!b!c!d!e!]![![![![![![![!",
"f!f!f!f!f!f!f!g!h!i!j!k!f!f!f!f!f!f!f!f!l!m!n!o!k!f!f!f!f!f!f!f!",
"p!p!p!p!p!q!r!s!t!u!v!q!p!p!p!p!w!w!w!w!w!x!y!z!{!|!w!w!w!w!w!w!",
"}!}!}!}!}!~! #!###$#%#}!}!}!}!}!}!}!}!}!}!&#'#(#)#*#}!}!}!}!}!}!",
"+#+#+#,#-#.#0#1#2#3#+#+#+#+#+#+#+#+#+#+#+#,#4#5#1#6#7#+#+#+#+#+#",
"8#9#:#;#<#=#>#?#@#8#8#8#8#8#8#8#8#8#8#8#8#8#9#A#B#C#D#E#F#8#8#8#",
"G#H#I#J#K#L#M#N#O#O#O#O#O#O#O#O#O#O#O#O#O#O#O#P#Q#R#S#T#U#V#W#X#",
"Y#'!Z#,![#]#1!} } } } } } } } } } } } } } } } } ~ 0!(!^#'!_#`#a#",
"b#c#d#e#f#g#g#g#g#g#g#g#g#g#g#g#g#g#g#g#g#g#g#g#g#f#h#i#j#k#l#m#",
"n#o#p#H H H H H H H H H H H H H H H H H H H H H H H H p#q#r#s#t#",
"u#u#u#u#u#u#u#u#u#u#u#u#u#u#u#u#u#u#u#u#u#u#u#u#u#u#u#u#u#u#u#u#",
"( ( ( ( ( ( ( ( ( ( ( ( ( ( ( ( ( ( ( ( ( ( ( ( ( ( ( ( ( ( ( ( ",
"! ! ! ! ! ! ! ! ! ! ! ! ! ! ! ! ! ! ! ! ! ! ! ! ! ! ! ! ! ! ! ! ",
"g#g#g#g#g#g#g#g#g#g#g#g#g#g#g#g#g#g#g#g#g#g#g#g#g#g#g#g#g#g#g#g#"};