/* XPM */
static char *BL_xpm[]={
"34 34 279 2",
"      c #000000",
" 0    c #BBBBBB",
" 1    c #FFFFFF",
" 2    c #AAAAAA",
" 3    c #222222",
" 4    c #888888",
" 5    c #777777",
" 6    c #ADADAD",
" 7    c #CCCCCC",
" 8    c #444444",
" 9    c #EEEEEE",
" a    c #999999",
" b    c #DDDDDD",
" c    c #666666",
" d    c #1F1F1F",
" e    c #1D2623",
" f    c #183328",
" g    c #1E211F",
" h    c #1C1C1C",
" i    c #1E1B1D",
" j    c #262A1E",
" k    c #449514",
" l    c #220924",
" m    c #182121",
" n    c #1E1E1E",
" o    c #211F1E",
" p    c #211821",
" q    c #1A1A1A",
" r    c #1D1D1D",
" s    c #39250C",
" t    c #E8EC00",
" u    c #0D071F",
" v    c #16191F",
" w    c #151B1E",
" x    c #161C1F",
" y    c #191D1F",
" z    c #211723",
" A    c #25421B",
" B    c #5B7F1F",
" C    c #F4EF00",
" D    c #0B800C",
" E    c #612C1C",
" F    c #3A291F",
" G    c #1B1D1E",
" H    c #0F151E",
" I    c #0C1C21",
" J    c #1B241E",
" K    c #156B14",
" L    c #1A181E",
" M    c #76850D",
" N    c #E0FF08",
" O    c #FFF006",
" P    c #EDFB14",
" Q    c #FFCB9B",
" R    c #FFB388",
" S    c #FF864A",
" T    c #CE5929",
" U    c #75381E",
" V    c #311F07",
" W    c #9DD310",
" X    c #090011",
" Y    c #201D1F",
" Z    c #191919",
" &    c #232A1E",
"0     c #655E05",
"00    c #FFEC01",
"01    c #6A3525",
"02    c #A97455",
"03    c #C86A38",
"04    c #DB6542",
"05    c #FFB390",
"06    c #FFAF92",
"07    c #BF7A2C",
"08    c #C2E200",
"09    c #0D4F34",
"0a    c #181818",
"0b    c #17131F",
"0c    c #321408",
"0d    c #D7FF04",
"0e    c #210A28",
"0f    c #1E2427",
"0g    c #1E1F24",
"0h    c #282527",
"0i    c #6B2E2C",
"0j    c #D7C13E",
"0k    c #EBFF4D",
"0l    c #F1EA00",
"0m    c #B5EE04",
"0n    c #1A351E",
"0o    c #181618",
"0p    c #1E1821",
"0q    c #241918",
"0r    c #4D6B1A",
"0s    c #14141D",
"0t    c #12181B",
"0u    c #0D181F",
"0v    c #0D1016",
"0w    c #03081E",
"0x    c #195112",
"0y    c #78A50C",
"0z    c #FFF338",
"0A    c #9A930A",
"0B    c #1C2B22",
"0C    c #181414",
"0D    c #1E1D20",
"0E    c #202020",
"0F    c #22201F",
"0G    c #231F1D",
"0H    c #100D25",
"0I    c #1E1F1C",
"0J    c #121E21",
"0K    c #0E2F00",
"0L    c #FFFA67",
"0M    c #481526",
"0N    c #1B2120",
"0O    c #161616",
"0P    c #315C1A",
"0Q    c #102122",
"0R    c #050E1D",
"0S    c #6D4313",
"0T    c #FFCE7D",
"0U    c #1F0E23",
"0V    c #201B21",
"0W    c #1D1622",
"0X    c #0C2630",
"0Y    c #B1E10F",
"0Z    c #2A1E26",
"0&    c #61291C",
"1     c #FF8C52",
"10    c #BE6B52",
"11    c #001219",
"12    c #151515",
"13    c #161F1F",
"14    c #12241F",
"15    c #203D16",
"16    c #F3FF06",
"17    c #B6611D",
"18    c #FF7640",
"19    c #FF9263",
"1a    c #1E191F",
"1b    c #181E1D",
"1c    c #131313",
"1d    c #191F22",
"1e    c #1E1420",
"1f    c #5A7426",
"1g    c #CED509",
"1h    c #FFFD04",
"1i    c #FFD451",
"1j    c #D19F4A",
"1k    c #2E1D32",
"1l    c #151B1A",
"1m    c #121212",
"1n    c #161B22",
"1o    c #B73D00",
"1p    c #FFBE90",
"1q    c #CCD48F",
"1r    c #EEE900",
"1s    c #27A102",
"1t    c #103A1F",
"1u    c #13131C",
"1v    c #0B1C26",
"1w    c #B74000",
"1x    c #FFAB82",
"1y    c #974A3A",
"1z    c #203E31",
"1A    c #D9F300",
"1B    c #1A2624",
"1C    c #1C2022",
"1D    c #201E1D",
"1E    c #111111",
"1F    c #1D1F20",
"1G    c #0F2021",
"1H    c #FF6E39",
"1I    c #824940",
"1J    c #1C131C",
"1K    c #122D2B",
"1L    c #53B115",
"1M    c #1F1A20",
"1N    c #20211E",
"1O    c #101010",
"1P    c #081E26",
"1Q    c #641900",
"1R    c #FFCE8A",
"1S    c #0F3924",
"1T    c #190E1D",
"1U    c #1E2420",
"1V    c #1A3E1B",
"1W    c #1D231F",
"1X    c #240923",
"1Y    c #201A1E",
"1Z    c #0F0F0F",
"1&    c #071D25",
"2     c #540002",
"20    c #FFEA82",
"21    c #0E3505",
"22    c #0E000F",
"23    c #111D20",
"24    c #12111D",
"25    c #24201E",
"26    c #163A26",
"27    c #1B2A21",
"28    c #113226",
"29    c #AA8B00",
"2a    c #FFE335",
"2b    c #84A717",
"2c    c #17591A",
"2d    c #03091B",
"2e    c #00111F",
"2f    c #04181F",
"2g    c #05141D",
"2h    c #0B0010",
"2i    c #43A812",
"2j    c #27271E",
"2k    c #0E0E0E",
"2l    c #19401E",
"2m    c #C2E605",
"2n    c #E8E300",
"2o    c #F2F737",
"2p    c #FEF968",
"2q    c #AB4433",
"2r    c #934F27",
"2s    c #63392A",
"2t    c #3A201F",
"2u    c #1A1325",
"2v    c #BFF90C",
"2w    c #364A1D",
"2x    c #1E2423",
"2y    c #0D0D0D",
"2z    c #1D2F1E",
"2A    c #343D1C",
"2B    c #A7DA08",
"2C    c #886E43",
"2D    c #FF8056",
"2E    c #FFA984",
"2F    c #FFA979",
"2G    c #FF814B",
"2H    c #CD6840",
"2I    c #799F48",
"2J    c #F7ED00",
"2K    c #84B617",
"2L    c #165F14",
"2M    c #0D080C",
"2N    c #160017",
"2O    c #6EBD18",
"2P    c #002418",
"2Q    c #310D30",
"2R    c #754127",
"2S    c #CE6426",
"2T    c #ED7239",
"2U    c #DA8E59",
"2V    c #9DD13E",
"2W    c #F9E700",
"2X    c #E4E900",
"2Y    c #1C8611",
"2Z    c #0B070C",
"2&    c #223C1E",
"3     c #222523",
"30    c #0F1A1B",
"31    c #000D12",
"32    c #00131E",
"33    c #061324",
"34    c #12151B",
"35    c #0F1112",
"36    c #B4EC0B",
"37    c #3B3A14",
"38    c #202A1E",
"39    c #0B0B0B",
"3a    c #1D201E",
"3b    c #1E2021",
"3c    c #1C1E1F",
"3d    c #1A1C1D",
"3e    c #1B1A1D",
"3f    c #0A001C",
"3g    c #6ED714",
"3h    c #2B2919",
"3i    c #0A0A0A",
"3j    c #235418",
"3k    c #1D2322",
"3l    c #090909",
"                                                                    ",
"                                                                    ",
"                                                                    ",
"   0 1 1 1 2   1 1 1 1   3 1 1 4   1 1   1 1 5 1 1 1 1 6 1 7 8 1 9  ",
"   0 1 0 1 9   1 1 0 2   a 1 1 b   1 1   1 1 3 5 1 1 5 3 0 1 1 1 3  ",
"   0 1 1 1 0   1 1 1 1   9 1 0 1   1 1   1 1     1 1       1 1 5    ",
"   0 1 5 9 1   1 b 5 5 3 1 1 1 1 4 9 1 5 1 9     1 1       0 1      ",
"   0 1 1 1 7   1 1 1 1 a 1 a 5 1 b c 1 1 1 c     1 1       0 1      ",
"                                                                    ",
" d e f d d d d d d d g d d h                                        ",
" i j k l m n o o o d p d d q   1 1       1 0 0 1 8 5 1   0 1 1 1 0  ",
" r s t u v w x x y d z g d q   1 1       1 0 0 1 1 5 1   0 1 0 0 c  ",
" A B C D E F G H I J K L d q   1 1       1 0 0 1 1 9 1   0 1 1 1 5  ",
" M N O P Q R S T U V W X Y Z   1 1 5 5   1 0 0 1 5 1 1   0 1 5 5 8  ",
" &0 00010203040506070809 Y0a   1 1 1 1   1 0 0 1   7 1   0 1 1 1 0  ",
"0b0c0d0e0f0g0h0i0j0k0l0m0n0o                                        ",
"0p0q0r0s0t0u0v0w0x0y0z0A0B0C                                        ",
" d0D0b0E0F0G0H0I0J0K0L0M0N0O                                        ",
" d Y L d d g0P0Q0R0S0T0U0V0O                                        ",
" d d g o0W0X0Y0Z0&1 1011 d12                                        ",
" d d d131415161718191a1b d1c                                        ",
" d d1d1e1f1g1h1i1j1k1l0F d1m                                        ",
" d o1n1o1p1q1r1s1t1u o d d1m                                        ",
" o1v1w1x1y1z1A1B1C1D d d d1E                                        ",
"1F1G1H1I1J1K1L1M d d g1N d1O                                        ",
"1P1Q1R1S1T1U1V1D d1W1X1Y d1Z                                        ",
"1&2 2021222324 n25 o2627 g1Z                                        ",
"28292a2b2c2d2e2f2g2h2i2j1M2k               8 1 1 1 c     3 1 1 1 3  ",
"2l2m2n2o2p2q2r2s2t2u2v2w2x2y   2 0   9 5   a 1 8 1 0     2 1 8 1 a  ",
"2z2A2B2C2D2E2F2G2H2I2J2K2L2M   5 1 c 1 3     3 b 1 8     0 1   1 0  ",
"1D2N2O2P2Q2R2S2T2U2V2W2X2Y2Z     1 1 b a a 3 1 1 4 8 a a a 1 8 1 2  ",
" d1N2&3 30313233343536373839     2 1 8 1 1 a 1 1 1 0 1 1 3 1 1 1 3  ",
" d g L3a o3b3c3d3e3f3g3h0D3i                                        ",
" d d Y d d d d d d3e3j3k1N3l                                        "};
