/* XPM */
static char *matchPivots[] = {
/* columns rows colors chars-per-pixel */
"32 32 164 2",
"   c black",
".  c #0C0C0C",
"X  c #191919",
"o  c #252525",
"O  c #353523",
"+  c #3F3F3F",
"@  c #404040",
"#  c #4C4C4C",
"$  c gray40",
"%  c gray42",
"&  c #7B7A64",
"*  c #747474",
"=  c #7C7C7C",
"-  c #7C7E94",
";  c #6D6DA6",
":  c #6F6FB4",
">  c #6161C3",
",  c #6B6BD4",
"<  c #7373CB",
"1  c #7C7CCF",
"2  c #7E925B",
"3  c #72A26F",
"4  c #72A171",
"5  c #79BB79",
"6  c #7FC279",
"7  c #7FCB7F",
"8  c #837D51",
"9  c #A24C4C",
"0  c #BB5852",
"q  c #BB5F5B",
"w  c #A86743",
"e  c #A37348",
"r  c #AE6F6F",
"t  c #A77264",
"y  c #A07E7A",
"u  c #BD6F6F",
"i  c #BD7272",
"p  c #FE0000",
"a  c #FC0B0B",
"s  c #F51E1E",
"d  c #F81313",
"f  c #EF2F2F",
"g  c #EE3232",
"h  c #EA3E3E",
"j  c #F22626",
"k  c #F02C2C",
"l  c #C47623",
"z  c #D3623C",
"x  c #C06D4B",
"c  c #C56B6B",
"v  c #CB6B6B",
"b  c #CE7878",
"n  c #DE6262",
"m  c #DB6C6C",
"M  c #D97373",
"N  c #E54E4E",
"B  c #EA4040",
"V  c #E45151",
"C  c #97975A",
"Z  c #9E9E6C",
"A  c #81B87A",
"S  c #8DB672",
"D  c #A1A149",
"F  c #ACAC51",
"G  c #BDA954",
"H  c #BBB542",
"J  c #BEBD52",
"K  c #BCBC5B",
"L  c #ADAD66",
"P  c #B3B36A",
"I  c #B5B572",
"U  c #BBBB73",
"Y  c #BABA7A",
"T  c #9AC44A",
"R  c #98CD4E",
"E  c #93C257",
"W  c #97C759",
"Q  c #98C652",
"!  c #AAC342",
"~  c #ABD24D",
"^  c #A9D35A",
"/  c #CA981C",
"(  c #CD8D29",
")  c #C3AC25",
"_  c #CBB461",
"`  c #C0C05C",
"'  c #CCCC51",
"]  c #CCCC58",
"[  c #C5C566",
"{  c #C0C06A",
"}  c #CACA6F",
"|  c #C4C476",
" . c #C1C17F",
".. c #CDCD74",
"X. c #D2D264",
"o. c #DADA60",
"O. c #D2D27A",
"+. c #808080",
"@. c #8C8C8C",
"#. c #838396",
"$. c #8D8D94",
"%. c #8E8E9B",
"&. c #97968A",
"*. c #9B9B8D",
"=. c #949494",
"-. c #9A9A9A",
";. c #8282B9",
":. c #9C9CA2",
">. c #9C9CB0",
",. c #81B680",
"<. c #AD8A8A",
"1. c #A69891",
"2. c #A79999",
"3. c #B38181",
"4. c #B68A84",
"5. c #A3A680",
"6. c #A2A28D",
"7. c #A9A985",
"8. c #A3A392",
"9. c #A2A29A",
"0. c #AAA59F",
"q. c #A9A991",
"w. c #ACA99B",
"e. c #BEBE80",
"r. c #A3A3A3",
"t. c #ADADA0",
"y. c #ACACAC",
"u. c #B2AEA0",
"i. c #B0B0AC",
"p. c #BABAA1",
"a. c #BCBAA9",
"s. c #B4B4B4",
"d. c #B5BFB5",
"f. c #BDB7B7",
"g. c #BBB8B7",
"h. c #BDBDBD",
"j. c #8F8FCD",
"k. c #8181D2",
"l. c #9A9AC3",
"z. c #AEAEC5",
"x. c #BABAC0",
"c. c #85C585",
"v. c #83CE83",
"b. c #8DC985",
"n. c #A8C6A8",
"m. c #BEC0BE",
"M. c #BEC0C0",
"N. c #C48C8C",
"B. c #C49A9A",
"V. c #CF9292",
"C. c #CD9999",
"Z. c #D58080",
"A. c #D08C8C",
"S. c #C6ADAD",
"D. c #C9A4A4",
"F. c #C3B5B5",
"G. c #C0BCBC",
"H. c #C0BFC0",
"J. c #C4C484",
"K. c #C9C985",
"L. c #CBCB88",
"P. c #C3C397",
"I. c #C9C99F",
"U. c #C0C0C0",
/* pixels */
"U.U.U.U.U.U.U.U.U.U.n.n.h.x.U.U.U.U.U.U.U.U.U.U.U.U.U.U.U.U.U.U.",
"U.U.U.U.U.U.U.U.U.U.v.c.s.h.U.U.U.U.U.U.U.U.U.U.U.U.U.U.U.U.U.U.",
"U.U.U.U.U.U.U.U.U.U.v.5 r.g.M.U.U.U.h.U.U.U.U.U.U.U.U.U.U.U.U.U.",
"U.U.U.U.U.U.U.U.M.M.7 5 r.g.M.U.U.U.S.A.U.U.U.U.U.U.U.U.U.U.U.U.",
"U.U.U.U.U.U.U.U.U.U.7 5 r.g.U.U.U.U.M s U.D.n g j h Z.h.U.U.U.U.",
"U.U.U.U.U.U.U.U.U.M.b.A r.g.U.U.U.U.f p j p d a p p p n U.U.U.U.",
"U.U.U.U.U.U.I.L.L.K.^ W I J.K.P.g.A.p p d V.U.h.V p p a D.U.U.U.",
"U.U.U.U.h.U.o.| U Y R T L U [ ] w.b d p k U.U.U.h.d p p V U.U.U.",
"M.U.U.m.h.U.o.9.-.r.S 3 @.-.q.` 6.i.G.m f F.M.M.U.g p p B m.M.U.",
"U.U.U.U.U.h.X.-.r.s.^ Q *.y.p.[ 6.y.h.U.U.h.U.M.F.a p p V m.U.U.",
"U.U.U.U.x.h.X.r.i.O.~ ! J 0.a...8.i.h.U.n.n.h.h.F.n s p C.U.U.U.",
"U.U.U.U.M.h.} :.9.5.C / / q 4._ 1.y.h.U.v.c.s.h.h.m.C.m h.U.U.U.",
"U.U.x.U.U.z.%.: > - H ) l 9 0 z q i N.B.6 5 r.g.m.m.U.U.U.U.U.U.",
"U.U.h.j.1 < #.; $.&.F D & = y G t r u c e w -.s.m.U.U.U.U.U.U.U.",
"h.k., < ;.-.K @.-.y.9.&.=.r.u.{ &.=.r.2.2 8 $.i.m.h.U.U.U.U.U.U.",
"x.l.>.:.r.r.' P Y K.J.J. .J...' 1.y.s.s.A 3 =.i.U.U.U.U.U.U.U.U.",
"U.h.i.y.s.g.i.r.r.y.y.y.y.y.y.r.7.e.L.K.^ E I J.K.P.h.h.h.h.U.U.",
"U.x.x.h.M.x.h.s.s.s.g.g.h.s.s.s.] U U Y R T L I [ ] w.g.x.U.U.U.",
"U.U.U.U.M.M.U.U.M.M.U.U.x.U.U.U.X.-.-.r.S 4 @.-.q.` 6.i.h.U.U.U.",
"U.U.U.M.M.M.U.U.U.U.U.U.U.U.U.U.X.9.r.s.^ T *.y.p.[ 6.y.h.U.U.U.",
"U.U.U.U.U.U.U.U.U.U.U.U.U.U.U.U.X.r.i.O.~ ! ' 0.a.} 8.y.h.U.U.U.",
"U.U.U.U.U.U.U.U.U.U.U.U.U.U.U.U.} :.t.Z C / ( w 4._ 1.i.h.U.U.U.",
"U.U.U.U.U.U.U.U.U.U.U.U.U.U.U.z.%.: > - H ) l 9 0 z q i N.B.G.h.",
"U.U.U.U.U.U.U.U.U.U.U.U.x.j.1 < #.; $.&.F D & - y G t r u c v v ",
"U.U.U.U.U.U.U.= o U.U.k., 1 ;.-.K @.-.y.0.&.=.:.u.{ &.=.:.2.<.3.",
"U.U.U.U.U.U.U.s.= U.U.l.>.:.r.r.' P Y O Z e.J.J...] 8.y.s.s.y.y.",
"U.U.-.. @ X * -.. = o h.* o * o o % @     =.y.i.y.r.2.i.m.x.M.h.",
"U.U.@.  -.@.  =   s.  -.+ # . @.@.. r.  @.d.g.g.g.s.s.h.m.M.M.M.",
"U.U.@.  U.U.  @.  U.@ #   *   U.h.  @.  @.U.U.U.U.U.U.U.U.U.U.U.",
"U.U.@.  -.@.. =   U.=   o s.. =.@.. U.  @.U.U.U.U.U.U.U.U.U.U.U.",
"U.U.@.  o X = -.. U.h.. $ U.= o o = U.$   r.U.U.U.U.U.U.U.U.U.U.",
"U.U.=.  U.U.U.U.U.U.U.U.U.U.U.U.U.U.U.U.U.U.U.U.U.U.U.U.U.U.U.U."
};
