/* XPM */
static char *matchChannels[] = {
/* columns rows colors chars-per-pixel */
"32 32 65 1",
"  c #020202",
". c #0D0D0D",
"X c #141414",
"o c #1B1B1B",
"O c #222121",
"+ c #2A2A2A",
"@ c #323232",
"# c #3A3A3A",
"$ c #444444",
"% c #4A4242",
"& c #4C4C4C",
"* c #504848",
"= c #525252",
"- c #585757",
"; c #5A5A5A",
": c #665C5C",
"> c #6A5D5E",
", c #626262",
"< c #6B6B6B",
"1 c #716566",
"2 c #746A6A",
"3 c #737373",
"4 c #7D7272",
"5 c #7A7A7A",
"6 c #7F8080",
"7 c #847677",
"8 c #857678",
"9 c #847979",
"0 c #8A7B7B",
"q c #8A7F80",
"w c #838383",
"e c #8D8080",
"r c #8B8B8B",
"t c #948485",
"y c #958788",
"u c #958A8B",
"i c #9A8B8B",
"p c #9B908F",
"a c #939393",
"s c #9E9797",
"d c #9A9A9A",
"f c #9FA0A0",
"g c #A49595",
"h c #A59798",
"j c #A49897",
"k c #A69999",
"l c #A89697",
"z c #AA9B9B",
"x c #B09E9F",
"c c #A4A4A4",
"v c #ACA2A2",
"b c #ABABAB",
"n c #B3A3A3",
"m c #B6A9AA",
"M c #B9A6A6",
"N c #BAA7A8",
"B c #BBAAAB",
"V c #BDAFB0",
"C c #B3B3B3",
"Z c #BDB1B1",
"A c #B9B7B8",
"S c #BBBBBB",
"D c #C0ACAD",
"F c #C0C0C0",
"G c #C8C8C8",
/* pixels */
"FFFFFFFFFFFFFFGFSFFFFFFFFFFFFFFF",
"FSFFFFFFFFFFFFDZZZZZZBAFGDFFSFFF",
"FSabSSSACCSCbbAtxBmNNBmbSFFFFFSF",
"SFra5<rr533dabV1lBNNNBi5bFFSSFFF",
"bCccardaaaadccAkNZBZZBq-fFFSFFFF",
"$X@oXXXoXoXoOoqBmBBBBB9&fFFFFFSF",
"@ $@+$@#@$#O$O29lDNNNN7&fFFFSFFF",
"#.+#$<&&&&=o@X4uzMnnnn7*dAAASSSS",
"daaadararrww56szggggjj2$rbbbbbCC",
"FGaCSCCcdaad3wu>7tetee>#5aaaadfc",
"ASaa3;33;&$;;<<%:22<11*@,33356rd",
"CSACcdacSbcFFFFCSSDCbSxgnmmnNx<6",
"CFFGbaacGbwc6wrarwacaFyeNBNBNz-3",
"CFFFr;,rSAdbwdadaddbfSziBBBVBk$,",
"CFFSfr,$#$$#@@#####$#-ZBBBBBBk#-",
"CFFSbdr+ X$o@+O++++o++iymBNNNg@=",
"CFFFr,<o .$#6-;&,;&o+OuemBBNBg@=",
"CFFFa3=,5555rww6rww55wDBZZBZBz@=",
"CFFSbd5dGCfGGFGSSSGAaFniBBNNng@=",
"bd5<<;&wSb6d,6wr355caFt8NNNNNg@=",
"c;OXX..5SSbbrcfcacdbcFnjBBBBBl@=",
"b6;==$#6SSGFSFGFGGGSASBnBBBBBg@=",
"Sbcfaw<aSFFS5wfrdadcrFu0BBNNNg@=",
"FFFSbd6dSFFSdrrw5rwbdFgyBBBNNp@=",
"FFFSbd5dSFFFGFGGFGGFGDZBBBBBDg@=",
"SFSSCd5dSFFSrfbcCbCbfSluNBNBNg@=",
"FFFSbdwdSSFS655355wbaGy9NBBBNg@=",
"FFFSCfwfFFFFSbbCcCbSASmzBBBBBx#;",
"FFFSCcrdbbbbbbbbbbbcbckjjgjjxp&,",
"SFFSCca5,=#@@@@@@@@@@@@@@@@@#$;3",
"FFSFSbdr5,;=========&==&=&==;,3w",
"FFFSSCbcar6553353553555555555wrd"
};
