/* XPM */
static char *matchXform[] = {
/* columns rows colors chars-per-pixel */
"32 32 203 2",
"   c gray5",
".  c gray10",
"X  c gray15",
"o  c gray20",
"O  c #3E3E3E",
"+  c #1E1D6A",
"@  c #3E3E50",
"#  c #2C2C6D",
"$  c #363671",
"%  c #3A3A72",
"&  c #3B4242",
"*  c #563636",
"=  c #5D3B3C",
"-  c #672A2A",
";  c #6D2222",
":  c #653E3E",
">  c #6F3A3A",
",  c #762929",
"<  c #4A3C43",
"1  c #483C48",
"2  c #473D56",
"3  c #5B3E43",
"4  c #41413B",
"5  c #4D6C38",
"6  c #6A583D",
"7  c #66663F",
"8  c #6F6B3B",
"9  c #434343",
"0  c #46454B",
"q  c #434C4C",
"w  c #494345",
"e  c #4A4649",
"r  c #4C4C44",
"t  c #4A4A49",
"y  c #434254",
"u  c #424159",
"i  c #415044",
"p  c #4B514B",
"a  c #4B5351",
"s  c #4C5559",
"d  c #4B5A53",
"f  c #4C5A5C",
"g  c #534444",
"h  c #50404A",
"j  c #524E44",
"k  c #514948",
"l  c #594342",
"z  c #504D50",
"x  c #5B4D56",
"c  c #545345",
"v  c #51544B",
"b  c #565A44",
"n  c #5B5A41",
"m  c #535354",
"M  c #505854",
"N  c #595356",
"B  c #5A5559",
"V  c #585A56",
"C  c #595A5A",
"Z  c #414166",
"A  c #4A4A67",
"S  c #425467",
"D  c #4F5D61",
"F  c #4A5868",
"G  c #4A5E71",
"H  c #496356",
"J  c #4B6558",
"K  c #4C6B59",
"L  c #4A724A",
"P  c #48705E",
"I  c #51674F",
"U  c #506943",
"Y  c #5D6144",
"T  c #5C674C",
"R  c #56625C",
"E  c #536952",
"W  c #516A5E",
"Q  c #5B6150",
"!  c #5A615E",
"~  c #5E764C",
"^  c #51785C",
"/  c #4F6268",
"(  c #477561",
")  c #4B7662",
"_  c #4A7864",
"`  c #556361",
"'  c #556B61",
"]  c #5F6467",
"[  c #5F6769",
"{  c #507062",
"}  c #5D7067",
"|  c #614743",
" . c #646464",
".. c #6B6062",
"X. c #6B6B6B",
"o. c #696F74",
"O. c #6E7678",
"+. c #706F6F",
"@. c #727272",
"#. c #7A7577",
"$. c #7A7A79",
"%. c #121280",
"&. c #1A1F8A",
"*. c #14149D",
"=. c #1109B9",
"-. c #26268F",
";. c #2E2E83",
":. c #353CA9",
">. c #0303E6",
",. c #0000ED",
"<. c #747D81",
"1. c #7673B1",
"2. c #128D12",
"3. c #0FB20F",
"4. c #16B916",
"5. c #2C9C2C",
"6. c #3C803C",
"7. c #37B134",
"8. c #01C900",
"9. c #0BC70B",
"0. c #3BCA4A",
"q. c #56835A",
"w. c #52826B",
"e. c #548F6A",
"r. c #5D8D76",
"t. c #4AB84A",
"y. c #57B557",
"u. c #628D6C",
"i. c #608975",
"p. c #698F7C",
"a. c #60B05F",
"s. c #6EB96E",
"d. c #76BA76",
"f. c #699981",
"g. c #688FA6",
"h. c #6FA289",
"j. c #73A38C",
"k. c #7FB595",
"l. c #7BB299",
"z. c #8E1919",
"x. c #931415",
"c. c #833333",
"v. c #B71010",
"b. c #A93838",
"n. c #C60E0E",
"m. c #DD0404",
"M. c #FE0000",
"N. c #FC0B0B",
"B. c #F51E1E",
"V. c #F81313",
"C. c #EF2F2F",
"Z. c #EE3232",
"A. c #EA3E3E",
"S. c #F22626",
"D. c #F02C2C",
"F. c #C47F7F",
"G. c #DE6262",
"H. c #DB6C6C",
"J. c #D77979",
"K. c #D97373",
"L. c #E54E4E",
"P. c #EA4040",
"I. c #E45151",
"U. c #808080",
"Y. c #858D8F",
"T. c #8D8D8D",
"R. c #959495",
"E. c gray61",
"W. c #81B79D",
"Q. c #92BA92",
"!. c #9ABE9A",
"~. c #A5A5A5",
"^. c #AEA8AB",
"/. c #AEBFAE",
"(. c #ABBCB7",
"). c #BBACA4",
"_. c gray70",
"`. c #B1BFB1",
"'. c #B5BCBC",
"]. c #BCBBBD",
"[. c #BCBCC1",
"{. c #84C3A4",
"}. c #8FC3A9",
"|. c #90C2AA",
" X c #97C7B0",
".X c #9BCAB4",
"XX c #A7C7B7",
"oX c #A0CAB6",
"OX c #A4CAB8",
"+X c #AAC8B9",
"@X c #B3C0B3",
"#X c #B1C5BC",
"$X c #BBC2BE",
"%X c #BEC1C0",
"&X c #CE9494",
"*X c #CD9A9A",
"=X c #D58080",
"-X c #D18D8D",
";X c #C6ADAD",
":X c #C9A4A4",
">X c #C3B5B5",
",X c #C0BCBC",
"<X c #C0C0C0",
/* pixels */
"<X<X<X<X<X<X<X<X<X<X<X<X<X<X<X<X<X<X<X<X<X<X<X<X$X].<X<X<X<X<X<X",
"<X<X<X<X<X<X$X@X@X<X,X$X<X<X<X<X<X<X<X<X<X<X<X<X<X<X<X<X<X<X<X<X",
"<X<X<X].<X<X,X!.Q.<X<X<X<X<X<X<X<X<X].].<X<X<X,X<X<X<X<X<X<X<X<X",
"<X<X<X<X<X<X<Xd.a.<X<X<X<X<X<X<X<X<X;X-X<X<X<X<X<X<X<X<X<X<X<X<X",
"].<X<X<X<X<X<Xy.7.<X<X,X<X<X<X<X<X<XK.B.<X:XG.Z.D.A.=X].<X<X<X].",
"<X<X<X].#X+X.X0.8.e.l..X#X$X<X<X<X<XC.M.S.M.V.N.M.M.M.G.<X<X<X<X",
"#X.X{.f.} C B 6.5.v x B ! p.{.oX,X-XM.M.V.&X<X,XI.M.M.N.:X<X<X<X",
"|.K W R C B B B V B ! ' R { K J ).J.V.M.C.<X<X<X].V.M.M.I.<X<X<X",
"OXe t d ) ' ' ' K { _ H t q w m #X<X,XH.C.>X<X<X,XZ.M.M.P.<X<X<X",
"#X' e e t q K q.U b j e t t t d #X<X<X<X<X<X<X<X>XN.M.M.L.<X<X,X",
"<Xr.9 t t 0 Y T 5 b 7 t t t e d #X].<X<X<X<X<X<X>XH.B.M.*X<X<X$X",
"<Xh.< r t t Y d q t Y t q t e d #X<X<X<X<X<X<X<X,X@X&XH.].<X<X<X",
",Xk.1 % t & Q S 2 3 6 r > g q d #X<X<X<X<X<X<X<X@Xd.<X<X<X<X<X<X",
"<Xg.=.>.$ Z Y ~ 6 b 8 : m.v.= d #X<X<X<X<X<X<X<XQ.t.<X].<X<X<X<X",
"1.:.&.+ 2 t r ^ p c c e ; z.x.| #X<X<X<X<X~.C e 2.4.R.,X<X].<X<X",
"].(.E r t t t ( q q e t q q e t %X<X<XR.m z B m 3.9.v z ! E.<X<X",
"<X<Xf.< e t e ( q t t t t < w w.%X^. .C d C C B L L B C V z k X.",
"<X<X$XW.M < e P a t t < w r.}.$X%X$.m X.#. .N m I V V C m ! o.V ",
"<X<X<X<XXXf.< d d < t f. X$X<X<X,X$.9 e z X.O.o.^ ` C N X.X.z e ",
"<X<X<X<X].<X|.w.J j.oX<X<X].<X<X,X$.9 q r 9 / ] u.<.[ o. .e r C ",
"<X<X<X<X<X<X<X#XOX<X<X<X<X<X<X<X<X$.e t t q f e i C Y.t e t e @.",
"<X<X<X,X<X$X<X<X<X<X<X<X<X<X<X<X%X$.9 r r r F y h l ..e q q & E.",
"<X$X<X<X<X<X<X<X<X<X<X<X<X<X<X<X<X$.9 t -.Z G s f ` C g g c.- $X",
"<X<X<X<X<X,X<X<X<X<X<X<X<X<X,X<X<X$.9 *.,.;.p a a s C e t v.m.=X",
"<X<X<X<X<X<X<X<X<X<X<X<X,X<X<X<X<XO.+ *.# 0 t t e C  .e t * , b.",
"<X<X<X<X<X<XU.o.<X<X<X<X<X<X<X<X<X[.Z 4 r t t t 9 X.C r q O '.$X",
"<X<X<X<X<X<XX E.$X<X<X<X<X<X<X<X<X<X<X~.9 e t t 9 +.m e r ].].<X",
"<X_.9 ].4  .  @.@.X < _.o & @.X X z o X <X@.& t e #.q z <X<X<X<X",
"<X<XT.. T.<Xo <Xo <X<. .o _.T.C [.X <Xo <X<X<XN & #.C <X<X<X<X<X",
"<X<XT.. T.<Xo <Xo <XU.X.o <XT. .<Xo <Xo <X<X<X<XE.R.<X<X<X<X<X<X",
"<X_.9 ].9 _.o <X@.o 1 _.o <XT. .<Xo <Xo <X<X<X<X<X<X<X<X<X<X<X].",
"<X<X<X<X].<X<X<X<X<X$X<X<X<X<X<X<X<X<X<X<X<X<X<X<X<X<X<X<X<X<X<X"
};
