/* XPM */
static char *matchAnim[] = {
/* columns rows colors chars-per-pixel */
"32 32 136 2",
"   c black",
".  c gray5",
"X  c gray10",
"o  c gray15",
"O  c gray20",
"+  c gray25",
"@  c gray30",
"#  c gray40",
"$  c gray45",
"%  c #3B77A2",
"&  c #775FB9",
"*  c #526EC9",
"=  c #6D6DD0",
"-  c #7272CE",
";  c #7A7ACD",
":  c #7474D2",
">  c #7474D8",
",  c #7279D0",
"<  c #7878D6",
"1  c #23B966",
"2  c #3DA270",
"3  c #0FC146",
"4  c #42B979",
"5  c #58BE7D",
"6  c #769675",
"7  c #44CB67",
"8  c #54CB6B",
"9  c #5CD371",
"0  c #63CE6B",
"q  c #7ECC7E",
"w  c #7CD27D",
"e  c #34958C",
"r  c #4485A2",
"t  c #578BB0",
"y  c #47A28F",
"u  c #56AC8C",
"i  c #5BB882",
"p  c #6A80BD",
"a  c #6CBB91",
"s  c #78A1AE",
"d  c #7E88CD",
"f  c #6FC485",
"g  c #FE0000",
"h  c #FC0B0B",
"j  c #F51E1E",
"k  c #F81313",
"l  c #EF2F2F",
"z  c #EE3232",
"x  c #EA3E3E",
"c  c #F22626",
"v  c #F02C2C",
"b  c #CE7777",
"n  c #C97D76",
"m  c #CC7C7C",
"M  c #D06D6D",
"N  c #DE6262",
"B  c #DB6C6C",
"V  c #D27373",
"C  c #D47C7C",
"Z  c #D97373",
"A  c #E54E4E",
"S  c #EA4040",
"D  c #E45151",
"F  c #AD6698",
"G  c #857DCE",
"H  c #809066",
"J  c #AA8F60",
"K  c #AF9169",
"L  c #BA8B74",
"P  c #B09369",
"I  c #BA9675",
"U  c #AAA56C",
"Y  c #CC8176",
"T  c #C0917C",
"R  c #808080",
"E  c #8D8D8D",
"W  c #9A9A9A",
"Q  c #87BE8E",
"!  c #94BCA6",
"~  c #A897BC",
"^  c #A9B999",
"/  c #BAA491",
"(  c #BFAA9D",
")  c #B8B09F",
"_  c gray65",
"`  c #A4BFAB",
"'  c #ACB2A5",
"]  c #AEBEA4",
"[  c #BBACA4",
"{  c gray70",
"}  c #B1BFB1",
"|  c #BBBBB3",
" . c #BEBFBC",
".. c #8484D1",
"X. c #9B9BC6",
"o. c #9C9CCA",
"O. c #B5B1C1",
"+. c #BEBEC0",
"@. c #83CE83",
"#. c #84CC8A",
"$. c #8BCA8B",
"%. c #89C893",
"&. c #80D380",
"*. c #88D288",
"=. c #9EC28E",
"-. c #91C795",
";. c #93C993",
":. c #9CC79C",
">. c #99CA94",
",. c #9CCA9A",
"<. c #A3C6A3",
"1. c #A3C9A3",
"2. c #ABC4AB",
"3. c #A8C8A8",
"4. c #ACC1B1",
"5. c #B3C3B2",
"6. c #B1C6BC",
"7. c #B8C1B7",
"8. c #BBC0BB",
"9. c #CC8282",
"0. c #CD8989",
"q. c #C48392",
"w. c #C79A9A",
"e. c #CC9393",
"r. c #CA9C9C",
"t. c #D28080",
"y. c #D18C8C",
"u. c #C3A297",
"i. c #C6A1A1",
"p. c #C0A7AF",
"a. c #C5ADAD",
"s. c #C9A3A3",
"d. c #C8A8A8",
"f. c #C2B4B3",
"g. c #C0BBBB",
"h. c #C0C0C0",
/* pixels */
"h.h.h.h.h.h.h.h.h.h.h.h.h.h.h.h.h.h.h.h.h.h.h.h.h.h.h.h.h.h.h.h.",
"h.h.h.h.h.h.h.h.h.h.h.h.h.h.h.h.h.h.h.h.g.h.h.h.h.h.h.h.h.h.h.h.",
"h.h.h.h.h.h.h.h.h.h.h.h.h.h.h.g.h.h.h.h.a.y.h.h.h.h.h.h.h.h.h.h.",
"h.h.h.h.h.h.8.-.f 5.h.h.g.i.0.C 6 h.h.h.Z j h.d.N z v x Y h.h.h.",
"h.h.h.h.h.h.;.0 7 w 8.a.Y M t.r.)  .h.h.l g c g k h g g g N h.h.",
"h.h.h.h.h.;.@.8.h.) K I / g.h.h.+.g.f.y.g g k e.h.g.D g g h s.h.",
"h.h.h.h.<.&.8.h.d.C L ,.h.h.h.h.h.h.[ C k g v h.h.h.h.k g g D h.",
"h.h.8.8.w 8.h.r.V s.h.*.2.h.h.h.h.h.6.h.g.B v f.h.h.h.z g g S h.",
"h.h.h.;.2.g.y.9.a.h.h.3.$. .h.h.h.h.6.h.h.h.h.h.h.h.f.h g g A h.",
"h.h.1.>.f.C Y g.+.h.h.h.>.1.h.h.h.h.6.h.h.h.h.h.h.h.f.B j g r.h.",
"8.8.>.u.C e.h.h.h.h.h.h.5.f 5.+.h.h.6.h.h.h.g.8.h.+.8.} r.B g.g.",
"h.,.I t.s.h.h.h.h.h.h.h.h.3.*.8.h.:.8 9 } h.g.w.m C n i h.h.h.h.",
"2.K q.O.+.+.+.+.+.+.+.+.+.h.! @.$.@.%.Q =.u.C C e.f.g.h.h.h.h.h.",
"2 & G < : : - - : : - - : : ; r 3 5.h.h.Y J ] g.h.h.g.h.h.h.h.h.",
"y , < - - - - - - - - - - - , u e h.d.V e.^ 1.h.h.h.h.h.h.h.h.h.",
"+.+.+.h.+.+.+.h.+.h.+.h.h.h.$.] h.s.m r.h.7.w 5.h.h.h.h.h.h.h.h.",
"h.h.h.h.h.h.h.h.h.h.h.h.h.2.:.h.0.b f.g.h.h.2.;.h.h.h.h.h.h.h.h.",
"h.h.h.h.h.h.h.h.h.h.h.h.8.*.f.t.9.f.h.h.h.h.8.$.:.h.h.h.h.h.h.h.",
"h.h.h.h.h.h.h.h.h.h.h.h.>./ t.e.g.h.h.h.h.h.8.5.@.5.h.h.h.h.h.h.",
"h.h.h.h.h.h.h.h.h.h.+.2.U C [ h.h.h.h.h.h.h.h.h.} *.8.h.h.h.h.h.",
"h.h.h.h.h.h.h.h.h.h.h.6 F ~ o.o.o.X.X.X.X.X.X.o.o.s 5 a h.h.h.h.",
"h.h.h.h.h.h.h.h.h.h.h.% < > = = = = = = = = = = = < * 1 h.h.h.h.",
"h.h.h.h.h.h.h.h.h.h.h.t ..; ; ; ; ; ; ; ; ; ; ; ; ..d 4 h.h.h.h.",
"h.h.h.h.h.h.h.h.h.h.h.h.h.h.h.h.+.h.h.h.+.h.h.h.h.h.h.h.h.h.h.h.",
"h.h.h.h.h.h.h.h.h.h.h.O E h.h.h.h.h.h.h.h.h.h.h.h.h.h.h.h.h.h.h.",
"h.h.h.h.h.h.h.h.h.h.h.h.h.h.h.h.h.h.h.h.h.h.h.h.h.h.h.h.h.h.h.h.",
"h.#     X _ X X   o { O E X o   @ o   # h.h.h.h.h.h.h.h.h.h.h.h.",
"h.h.h.h.. E X # { . E O E X # W   E $ o h.h.h.h.h.h.h.h.h.h.h.h.",
"5.$ @     R X K h.X E O E X E h.  h.E X h.h.h.h.h.h.h.h.h.h.h.h.",
" .. & E . s X E h.X E O E X E h.  h.E X h.h.h.h.h.h.h.h.h.h.h.h.",
" .+   o o # X E h.X E O E X E h.  h.E X h.h.h.h.h.h.h.h.h.h.h.h.",
"h. .h.h.h.h.+.O.h.h.h.h.h.h.h.h.h.h.h.h.h.h.h.h.h.h.h.h.h.h.h.h."
};
