/* XPM */
static char * documents and settings\cam\my documents\maya\2008\prefs\icons\shotviewplayblast_xpm[] = {
"22 23 5 1",
" 	c #a0a0a4",
".	c Gray70",
"X	c Black",
"o	c #777777",
"O	c Gray100",
"                      ",
"                      ",
"                  .X  ",
"               oXXXX  ",
"            oXXXOOXX  ",
"          XXXXXXOOXX  ",
"       oXXXXOOXXXXXX  ",
"     oXXOOXXOOXXoX    ",
"   XXXXXOOXXoXXo      ",
"  XXOOXXXXXXo         ",
"  XXOOXXo             ",
"  XXXXXXXXXXXXXXXXXX  ",
"  XXOOXXOOXXOOXXOOXX  ",
"  XXOOXXOOXXOOXXOOXX  ",
"  XXXXXXXXXXXXXXXXXX  ",
"  XXXXXXXXXXXXXXXXXX  ",
"  XXOOOOOOOOOOOOOOXX  ",
"  XXOOOOOOOOOOOOOOXX  ",
"  XXOOOOOOOOOOOOOOXX  ",
"  XXXXXXXXXXXXXXXXXX  ",
"  XXXXXXXXXXXXXXXXXX  ",
"                      ",
"                      "};
