/* XPM */
static char * image_name[]={
"32 32 65 2",
"  	c #C2C2C2",
". 	c #B6E2CE",
"X 	c #BFBFC1",
"o 	c #BFBFC0",
"O 	c #DEB887",
"+ 	c #F5DEB3",
"@ 	c #BFBFBF",
"# 	c #BDBDBD",
"$ 	c #BEBFC1",
"% 	c #EEDD82",
"& 	c #D4D4D4",
"* 	c #D6D6D6",
"= 	c #BABABA",
"- 	c #D9D9D9",
"; 	c #B6E191",
": 	c #FFE4C4",
"> 	c #DBDBDB",
", 	c #D1D1D1",
"< 	c #E9967A",
"1 	c #ADADAD",
"2 	c #DCDCDC",
"3 	c #DEDEDE",
"4 	c #96522D",
"5 	c #C4C4C4",
"6 	c #8B4513",
"7 	c #91535D",
"8 	c #E0E0E0",
"9 	c #FAEBD7",
"0 	c #6B3939",
"q 	c #ABABAB",
"w 	c #B7644D",
"e 	c #B3B37E",
"r 	c #B0B0B0",
"t 	c #F7F7F7",
"y 	c #EBEBEB",
"u 	c #E3E3E3",
"i 	c #E5E5E5",
"p 	c #9B7071",
"a 	c #A6A6A6",
"s 	c #BDB76B",
"d 	c #EDEDED",
"f 	c #FAF0E6",
"g 	c #E8E8E8",
"h 	c #8C8C8C",
"j 	c #BC8F8F",
"k 	c #F0F0F0",
"l 	c #55562F",
"z 	c #8A8A8A",
"x 	c #C7C7C7",
"c 	c #B8860B",
"v 	c #575757",
"b 	c #B3B3B3",
"n 	c #F4A460",
"m 	c #999999",
"M 	c #8F8F8F",
"N 	c #636363",
"B 	c #949494",
"V 	c #969696",
"C 	c #696969",
"Z 	c #A3A3A3",
"A 	c #666666",
"S 	c #9E9E9E",
"D 	c #5C5C5C",
"F 	c #B5B5B5",
"G 	c #919191",
"                                                                ",
"                                                                ",
"                                                                ",
"                                                                ",
"                  . X . o . .                                   ",
"                . O + + + O + @ # @ $ $ . .                     ",
"                O % + + + + + + + + + + O O O # . .             ",
"            . + + + & * & & & * * + + + + + + + O O O =         ",
"          $ O + + * * & * - * & * & + + + & & + + + + O O #     ",
"        ; O + : * * - > - - - - * - * * + + + + + + , + < 1     ",
"    . + + + - - > - - - > 2 3 > & * - * + * * & , + + < 4 1 5   ",
"    . O + 3 3 3 2 3 > - > 2 2 2 > 2 > * + & * * & + O 6 7 +     ",
"    . O + : 2 3 8 3 3 3 9 3 > 3 2 - - & : * * + * + 4 0 q       ",
"    + + 9 * - - 2 8 3 3 8 8 9 9 8 > - - > - * + : < 7 7 O       ",
"  . O < + 9 > > 2 8 8 8 8 3 9 3 2 2 2 2 > 2 * * + w e e r       ",
"    O < < : t y 9 u i 9 8 3 - 2 8 3 2 2 - - + > < p e + a =     ",
"    1 < 4 s O 9 d f g 8 9 8 > 3 3 2 3 8 2 & 2 + 4 e O O h       ",
"    j w w 4 4 4 < + 9 k y 9 8 3 > > 3 2 - - + s l a O l z x     ",
"  . + O 4 4 < 4 w 4 s < + + 8 9 9 8 9 > : O c w p + v l b       ",
"  . + + O e e w < s 4 4 4 4 4 s < < O < n s w p O p 0 m 5       ",
"    O O + + j j e w 4 4 w 4 4 s w 6 w 4 4 w e e j 0 e x         ",
"    O j < O + + O O < < s 4 4 < 4 4 w 4 4 7 j O M N             ",
"    O B p s < < < < < < < < < s 4 w 4 p p e j q p B x           ",
"      r p 7 4 w < < < < n n < < < < j O + O O q e =             ",
"        # V C l l w w s < % O < s s s < < O + j Z 5             ",
"          5 # q V p A l 4 e s s < w s s 4 j O p                 ",
"              5 x x O S p D l 4 p w w p 7 7 p F                 ",
"                      5 O q G e e j e p p e b 5                 ",
"                          5 5   5                               ",
"                                                                ",
"                                                                ",
"                                                                "
};
