/* XPM */ 
static const unsigned char * getbackplate_xpm[] = {
"32 32 856 2",
"  	c None",
"! 	c #C3BFBD",
"# 	c #DDDFE5",
"$ 	c #E7EBF2",
"% 	c #D0CED3",
"& 	c #C5C5D0",
"' 	c #D6D6E0",
"( 	c #D8D8E1",
") 	c #D5D6DB",
"* 	c #DFE0E5",
"+ 	c #D0D1D6",
", 	c #D5D7DF",
"- 	c #C0BFC6",
". 	c #302E30",
"0 	c #262323",
"1 	c #211D1E",
"2 	c #1E1A1B",
"3 	c #363234",
"4 	c #BDBBC4",
"5 	c #D2D1D8",
"6 	c #E1E0E6",
"7 	c #E3E3E6",
"8 	c #E3E3E5",
"9 	c #E7E7E9",
": 	c #EBEBED",
"; 	c #EEEEF0",
"< 	c #DEDEE0",
"= 	c #D6D6D8",
"> 	c #DBD9DC",
"? 	c #E0DEE1",
"@ 	c #D2D0D3",
"A 	c #C6C4C6",
"B 	c #BFBEBD",
"C 	c #C5C3C2",
"D 	c #DADCE2",
"E 	c #E8EAF1",
"F 	c #DAD9DF",
"G 	c #C4C4CF",
"H 	c #D3D3DD",
"I 	c #D9D9E2",
"J 	c #DEDFE4",
"K 	c #CACBD0",
"L 	c #DBDCE4",
"M 	c #C5C4CC",
"N 	c #2F2D2F",
"O 	c #201C1D",
"P 	c #343032",
"Q 	c #B6B4BD",
"R 	c #D2D2D9",
"S 	c #DFDEE3",
"T 	c #E0E0E2",
"U 	c #E2E3E4",
"V 	c #E6E6E8",
"W 	c #DCDCDE",
"X 	c #D2D2D4",
"Y 	c #D3D1D4",
"Z 	c #E1DFE2",
"[ 	c #CFCDD0",
"] 	c #C8C6C7",
"^ 	c #BFBFBD",
"_ 	c #C9C9CB",
"` 	c #D9DAE0",
"a 	c #E4E5EA",
"b 	c #E1E1E8",
"c 	c #C3C3CE",
"d 	c #CBCBD5",
"e 	c #D9D9E1",
"f 	c #DBDCE1",
"g 	c #CBCCD1",
"h 	c #CDCED3",
"i 	c #E5E6EF",
"j 	c #BBBAC1",
"k 	c #2B292B",
"l 	c #242120",
"m 	c #1F1B1C",
"n 	c #2F2B2D",
"o 	c #B0AEB8",
"p 	c #CFCED5",
"q 	c #E1E0E5",
"r 	c #DCDBDE",
"s 	c #E1E1E3",
"t 	c #E2E2E4",
"u 	c #ECECEE",
"v 	c #D9D9DB",
"w 	c #D1D1D3",
"x 	c #DFDDE0",
"y 	c #CAC8CC",
"z 	c #CBC9CA",
"{ 	c #C1C0BE",
"| 	c #D5D8DF",
"} 	c #D8D9DF",
"~ 	c #DDDDE2",
" !	c #E3E3EB",
"!!	c #C7C7D1",
"#!	c #C0BFCA",
"$!	c #D6D7DF",
"%!	c #D3D4D9",
"&!	c #EAEBF3",
"'!	c #ACABB2",
"(!	c #292729",
")!	c #242121",
"*!	c #1F1A1C",
"+!	c #1C1819",
",!	c #292527",
"-!	c #ABA9B3",
".!	c #DDDCE1",
"0!	c #E1E0E3",
"1!	c #EBEAED",
"2!	c #D3D3D5",
"3!	c #CBCBCD",
"4!	c #D9D6D9",
"5!	c #C9C7CA",
"6!	c #CECBCC",
"7!	c #C4C2BF",
"8!	c #DFDFE8",
"9!	c #D6D7E0",
":!	c #D5D5DF",
";!	c #DDDEE5",
"<!	c #CECFD6",
"=!	c #B1B1BB",
">!	c #D3D3DF",
"?!	c #CFCFDA",
"@!	c #D3D3DC",
"A!	c #E8E8EE",
"B!	c #E3E3EA",
"C!	c #9E9CA2",
"D!	c #262226",
"E!	c #231E20",
"F!	c #1F1A1B",
"G!	c #1D1819",
"H!	c #252122",
"I!	c #949396",
"J!	c #CFCFD1",
"K!	c #D5D5D7",
"L!	c #DDDDDF",
"M!	c #E6E6E9",
"N!	c #E5E4E9",
"O!	c #CECDD2",
"P!	c #C8C7CC",
"Q!	c #D5D4D8",
"R!	c #D1CFD4",
"S!	c #C6C4C2",
"T!	c #E3E3EC",
"U!	c #D1D1DB",
"V!	c #CFD0D7",
"W!	c #D1D1D8",
"X!	c #ABABB5",
"Y!	c #D1D1DD",
"Z!	c #D6D6E1",
"[!	c #EAEAF0",
"]!	c #D4D4DB",
"^!	c #89878E",
"_!	c #211C21",
"`!	c #1E1A1D",
"a!	c #1B1819",
"b!	c #1A1718",
"c!	c #1D1A1B",
"d!	c #777778",
"e!	c #BFBFC1",
"f!	c #D0D0D2",
"g!	c #EAE9EC",
"h!	c #CCCBD0",
"i!	c #C7C6CB",
"j!	c #D6D4D9",
"k!	c #CCCACF",
"l!	c #C9C7CC",
"m!	c #CECDD4",
"n!	c #CAC8C8",
"o!	c #E5E5EF",
"p!	c #D0D0DA",
"q!	c #CDCDD7",
"r!	c #C9C9D1",
"s!	c #CBCBD2",
"t!	c #B0B0BA",
"u!	c #DBDBE7",
"v!	c #E4E4EF",
"w!	c #E7E7F0",
"x!	c #E5E6EB",
"y!	c #C5C4CB",
"z!	c #76747B",
"{!	c #1E191D",
"|!	c #1A1719",
"}!	c #181818",
"~!	c #161616",
" #	c #141414",
"!#	c #6C6C6E",
"##	c #A9A9AB",
"$#	c #E6E5E8",
"%#	c #C4C3C8",
"&#	c #CECCD1",
"'#	c #C7C5CA",
"(#	c #D3D2D5",
")#	c #D2D0CC",
"*#	c #DBDBE5",
"+#	c #C2C2CC",
",#	c #BFC0C8",
"-#	c #C2C3CB",
".#	c #AFAFB9",
"0#	c #C3C3CF",
"1#	c #D2D3DF",
"2#	c #E1E2EC",
"3#	c #DDDFE7",
"4#	c #B2B0B7",
"5#	c #6A686D",
"6#	c #1C181C",
"7#	c #1A181A",
"8#	c #171718",
"9#	c #171717",
":#	c #0E0E0F",
";#	c #6E6E70",
"<#	c #A8A7AA",
"=#	c #C1C0C1",
">#	c #CECECE",
"?#	c #C8C8C9",
"@#	c #DAD9DB",
"A#	c #E0DEE3",
"B#	c #BCBBC0",
"C#	c #BDBCC0",
"D#	c #CBC9CE",
"E#	c #C5C3C8",
"F#	c #D8D5DC",
"G#	c #D0CDCF",
"H#	c #D7D7E1",
"I#	c #C1C1CB",
"J#	c #B2B4BF",
"K#	c #B6B9C5",
"L#	c #A5A4B0",
"M#	c #9B9AA7",
"N#	c #BFC1CE",
"O#	c #CED1DE",
"P#	c #CFD2DF",
"Q#	c #A39FA5",
"R#	c #666264",
"S#	c #17171A",
"T#	c #161618",
"U#	c #161619",
"V#	c #0E0E10",
"W#	c #615F62",
"X#	c #B0AEB3",
"Y#	c #BCBAB8",
"Z#	c #C9C9C3",
"[#	c #CAC9C6",
"]#	c #D5D4D4",
"^#	c #E5E3E6",
"_#	c #DCDADD",
"`#	c #AFADB0",
"a#	c #BDBBBE",
"b#	c #BEBCBF",
"c#	c #BCBABD",
"d#	c #D8D6D9",
"e#	c #DFDDDF",
"f#	c #D2D0D1",
"g#	c #DDDDE7",
"h#	c #C2C3CC",
"i#	c #B7B8C1",
"j#	c #918F99",
"k#	c #7F7D89",
"l#	c #CCCEDB",
"m#	c #C8CAD7",
"n#	c #CFD1DE",
"o#	c #9F9BA1",
"p#	c #635F62",
"q#	c #161518",
"r#	c #131315",
"s#	c #141416",
"t#	c #0F0F10",
"u#	c #4A484B",
"v#	c #A4A2A7",
"w#	c #C0BFBD",
"x#	c #C7C4BE",
"y#	c #C6C3BE",
"z#	c #D8D4D2",
"{#	c #E9E5E6",
"|#	c #E7E5E8",
"}#	c #A3A1A4",
"~#	c #B7B5B8",
" $	c #B9B7BA",
"!$	c #C0BEC1",
"#$	c #C3C1C4",
"$$	c #C7C5C7",
"%$	c #D2D0D0",
"&$	c #E0DFE9",
"'$	c #D0D0DB",
"($	c #C4C4CE",
")$	c #A9A9B1",
"*$	c #9E9CA3",
"+$	c #827D85",
",$	c #75707A",
"-$	c #CACCDA",
".$	c #DCDEEC",
"0$	c #9B979E",
"1$	c #605C5F",
"2$	c #121214",
"3$	c #0F0F11",
"4$	c #111113",
"5$	c #434043",
"6$	c #8B898D",
"7$	c #AAA8A5",
"8$	c #BFBAB1",
"9$	c #B9B2AC",
":$	c #C0B9B5",
";$	c #D9D3D2",
"<$	c #D7D5D8",
"=$	c #9F9DA0",
">$	c #959396",
"?$	c #A2A0A3",
"@$	c #B3B1B4",
"A$	c #C4C2C5",
"B$	c #CECCCE",
"C$	c #D2D0D2",
"D$	c #CDD2DE",
"E$	c #DEDEE5",
"F$	c #E0E1E9",
"G$	c #CCCDD7",
"H$	c #B9B7C0",
"I$	c #9A98A1",
"J$	c #706E78",
"K$	c #BFC1CA",
"L$	c #C8CAD2",
"M$	c #BDBFC6",
"N$	c #9C9A9E",
"O$	c #8B888B",
"P$	c #78787A",
"Q$	c #78797C",
"R$	c #7A7B80",
"S$	c #7D7E83",
"T$	c #818287",
"U$	c #8E9197",
"V$	c #A5A7AF",
"W$	c #A9ACB1",
"X$	c #BDBDBE",
"Y$	c #C4C2C2",
"Z$	c #C5C1C2",
"[$	c #C3BFC1",
"]$	c #969497",
"^$	c #A9A7AC",
"_$	c #C1C0C5",
"`$	c #BDBBC0",
"a$	c #C4C3C6",
"b$	c #D5D3D4",
"c$	c #D8D6D0",
"d$	c #CDD5DF",
"e$	c #ECEBF1",
"f$	c #E6E8EF",
"g$	c #CCD0DB",
"h$	c #C0C0CC",
"i$	c #AFAFBC",
"j$	c #B5B6C1",
"k$	c #BABBC0",
"l$	c #B7B8BC",
"m$	c #A3A5A6",
"n$	c #979899",
"o$	c #969698",
"p$	c #99989A",
"q$	c #9C9EA2",
"r$	c #A1A4AB",
"s$	c #AAADB3",
"t$	c #B5B8BE",
"u$	c #BAC0C6",
"v$	c #C2C9CF",
"w$	c #C8CFD5",
"x$	c #CAD0D5",
"y$	c #CBD0D3",
"z$	c #CDCECF",
"{$	c #CDCCCC",
"|$	c #B4B2B4",
"}$	c #807E82",
"~$	c #939197",
" %	c #A4A3AB",
"!%	c #ADADB3",
"#%	c #C4C4C7",
"$%	c #D3CCC8",
"%%	c #EDEEF4",
"&%	c #DBDFE6",
"'%	c #CFD1DB",
"(%	c #BABAC6",
")%	c #A2A2AE",
"*%	c #ABACB7",
"+%	c #B6BAC2",
",%	c #A9ADB2",
"-%	c #A3A7AA",
".%	c #A4A6AB",
"0%	c #A4A5AA",
"1%	c #A5A5AA",
"2%	c #A7A9AD",
"3%	c #A7AAAE",
"4%	c #ABAEB2",
"5%	c #AEB1B5",
"6%	c #AEB3B1",
"7%	c #B1B6B3",
"8%	c #ABAFAC",
"9%	c #A7A9A3",
":%	c #A4A49D",
";%	c #A9A8A0",
"<%	c #ADACA8",
"=%	c #747375",
">%	c #959299",
"?%	c #B8B7BF",
"@%	c #B6B5BB",
"A%	c #C3C3C6",
"B%	c #DAD9DA",
"C%	c #D9D2C9",
"D%	c #D9D5D5",
"E%	c #DBDFE8",
"F%	c #BCBDC7",
"G%	c #A5A5B1",
"H%	c #9695A1",
"I%	c #A3A4B0",
"J%	c #BDC3CD",
"K%	c #A9AFB6",
"L%	c #999FA3",
"M%	c #979BA1",
"N%	c #979AA0",
"O%	c #989BA1",
"P%	c #979A9E",
"Q%	c #95999A",
"R%	c #969A9B",
"S%	c #969996",
"T%	c #969895",
"U%	c #969793",
"V%	c #979691",
"W%	c #9E9B94",
"X%	c #A4A198",
"Y%	c #A9A99F",
"Z%	c #999797",
"[%	c #A6A3AC",
"]%	c #BBBAC2",
"^%	c #CDCCD2",
"_%	c #CCCCCF",
"`%	c #D6D5D2",
"a%	c #D0CBC1",
"b%	c #C6C3C3",
"c%	c #E4E5EB",
"d%	c #DCE1E6",
"e%	c #CDCDD4",
"f%	c #B4B6C1",
"g%	c #A0A1AE",
"h%	c #92929B",
"i%	c #B4BAC3",
"j%	c #A9AEB6",
"k%	c #979CA3",
"l%	c #9FA4A8",
"m%	c #A4A8AD",
"n%	c #A6ABB0",
"o%	c #A8ACAF",
"p%	c #A7A9AA",
"q%	c #A4A7A8",
"r%	c #A5A8A9",
"s%	c #A5A7A6",
"t%	c #A4A6A5",
"u%	c #A3A5A4",
"v%	c #A0A19F",
"w%	c #969592",
"x%	c #8D8A85",
"y%	c #97948B",
"z%	c #ABAA9E",
"{%	c #9A9695",
"|%	c #9C9A9D",
"}%	c #AEADB4",
"~%	c #C5C4C9",
" &	c #D2D2D6",
"!&	c #D1D0D3",
"#&	c #CDC8C7",
"$&	c #D0CDCD",
"%&	c #E2E5EE",
"&&	c #EEF5F7",
"'&	c #EFF1F7",
"(&	c #D2D7E2",
")&	c #B2B8CA",
"*&	c #868C99",
"+&	c #A8ABB3",
",&	c #ADB0B9",
"-&	c #9497A1",
".&	c #8C9095",
"0&	c #919597",
"1&	c #969A9D",
"2&	c #9A9C9F",
"3&	c #9C9C9E",
"4&	c #9B9C9E",
"5&	c #999B9A",
"6&	c #969897",
"7&	c #939594",
"8&	c #90908F",
"9&	c #8B8A87",
":&	c #8D8C86",
";&	c #A19C95",
"<&	c #A7A79F",
"=&	c #8C928D",
">&	c #949093",
"?&	c #AAA8AD",
"@&	c #B6B5B9",
"A&	c #D4D3D7",
"B&	c #D4CBC9",
"C&	c #C3C2C3",
"D&	c #E6E4E6",
"E&	c #F0F0F2",
"F&	c #F4F6FD",
"G&	c #B9B7C2",
"H&	c #979CA7",
"I&	c #A7AAB3",
"J&	c #A1A4AD",
"K&	c #9CA0A4",
"L&	c #9DA1A4",
"M&	c #9B9FA2",
"N&	c #9A9D9F",
"O&	c #9A9B9D",
"P&	c #989A9A",
"Q&	c #989A99",
"R&	c #9B9B9A",
"S&	c #999996",
"T&	c #999892",
"U&	c #9B9590",
"V&	c #A4A19A",
"W&	c #868880",
"X&	c #8D878C",
"Y&	c #ABAAAD",
"Z&	c #CDCDCF",
"[&	c #D8D8DA",
"]&	c #D4D2D3",
"^&	c #CBC6C0",
"_&	c #BDBCBB",
"`&	c #C8C5C1",
"a&	c #DBD5D5",
"b&	c #F1F1F9",
"c&	c #CBBFBB",
"d&	c #7E655D",
"e&	c #706362",
"f&	c #A9AEB8",
"g&	c #A6A9B2",
"h&	c #A0A3AC",
"i&	c #93979C",
"j&	c #95999C",
"k&	c #969B9D",
"l&	c #999C9E",
"m&	c #999A9C",
"n&	c #9C9E9D",
"o&	c #9B9D9C",
"p&	c #9A9B9A",
"q&	c #95928D",
"r&	c #999890",
"s&	c #988D81",
"t&	c #856860",
"u&	c #989394",
"v&	c #B9BCBD",
"w&	c #DBDBDB",
"x&	c #E4E5E5",
"y&	c #D1D0CF",
"z&	c #BCBCBB",
"{&	c #BDBCBC",
"|&	c #CAC7C8",
"}&	c #9D857E",
"~&	c #976E5E",
" '	c #6E5A4F",
"!'	c #8F9399",
"#'	c #9E9EA8",
"$'	c #9EA2A8",
"%'	c #9C9FA2",
"&'	c #999B9E",
"''	c #96979B",
"('	c #97999B",
")'	c #969798",
"*'	c #949597",
"+'	c #98999B",
",'	c #989A98",
"-'	c #9A9A97",
".'	c #979592",
"0'	c #969490",
"1'	c #999993",
"2'	c #826E62",
"3'	c #8D5247",
"4'	c #8B6E5E",
"5'	c #BDBAB8",
"6'	c #EBE6E9",
"7'	c #E1DED9",
"8'	c #C8C7C7",
"9'	c #BFBFBE",
":'	c #BFBFBF",
";'	c #B6B1B0",
"<'	c #99766D",
"='	c #97685A",
">'	c #845D56",
"?'	c #876C6E",
"@'	c #888E90",
"A'	c #929499",
"B'	c #9C9BA0",
"C'	c #9D9EA2",
"D'	c #999A9E",
"E'	c #98999C",
"F'	c #969799",
"G'	c #959698",
"H'	c #999A9A",
"I'	c #9C9E9A",
"J'	c #9C9B97",
"K'	c #94938F",
"L'	c #8B8A86",
"M'	c #898784",
"N'	c #827A72",
"O'	c #7E5545",
"P'	c #8B5941",
"Q'	c #8D6C5F",
"R'	c #DDD3D6",
"S'	c #C9C7C3",
"T'	c #BFBEBE",
"U'	c #C0C0C0",
"V'	c #BAB5B2",
"W'	c #996F61",
"X'	c #835146",
"Y'	c #93615D",
"Z'	c #835F5E",
"['	c #6C706F",
"]'	c #737276",
"^'	c #7F7D82",
"_'	c #95979B",
"`'	c #A1A2A6",
"a'	c #A4A5A8",
"b'	c #A4A5A7",
"c'	c #A2A3A5",
"d'	c #A3A4A6",
"e'	c #A3A3A7",
"f'	c #A1A3A3",
"g'	c #9D9F9C",
"h'	c #94948F",
"i'	c #7F7E7A",
"j'	c #74736F",
"k'	c #8F8E8A",
"l'	c #8D8F88",
"m'	c #76594C",
"n'	c #945C45",
"o'	c #855037",
"p'	c #A2928F",
"q'	c #C5C6C5",
"r'	c #BEBCBA",
"s'	c #9A7665",
"t'	c #804E43",
"u'	c #65433D",
"v'	c #7C7574",
"w'	c #868287",
"x'	c #878687",
"y'	c #818183",
"z'	c #838488",
"{'	c #86878B",
"|'	c #8B8C8F",
"}'	c #8C8D8F",
"~'	c #8C8D8E",
" (	c #8B8C8E",
"!(	c #8A8B8E",
"#(	c #8A8C8B",
"$(	c #898B88",
"%(	c #8B8B86",
"&(	c #8A8986",
"'(	c #8C8D86",
"((	c #908C82",
")(	c #8D605F",
"*(	c #905F4E",
"+(	c #835B41",
",(	c #A9A09C",
"-(	c #C3C4C4",
".(	c #C0C1C1",
"0(	c #A28B80",
"1(	c #804A41",
"2(	c #4E3831",
"3(	c #7E7C7C",
"4(	c #8B8B91",
"5(	c #878489",
"6(	c #88878A",
"7(	c #8D8F91",
"8(	c #909193",
"9(	c #929394",
":(	c #939393",
";(	c #929292",
"<(	c #929290",
"=(	c #90918F",
">(	c #8F8F8D",
"?(	c #8C8B88",
"@(	c #84837F",
"A(	c #807F7B",
"B(	c #8C8C86",
"C(	c #949087",
"D(	c #6B4E46",
"E(	c #85553F",
"F(	c #92725B",
"G(	c #C0BFBF",
"H(	c #BFC0BF",
"I(	c #ABA19D",
"J(	c #8B544E",
"K(	c #573731",
"L(	c #868081",
"M(	c #94959B",
"N(	c #87868A",
"O(	c #858587",
"P(	c #8E9091",
"Q(	c #8E8F91",
"R(	c #8E8E8F",
"S(	c #8F8F8F",
"T(	c #8D8D8D",
"U(	c #8C8C8C",
"V(	c #8C8C8A",
"W(	c #8B8B89",
"X(	c #8A8A88",
"Y(	c #898885",
"Z(	c #83827E",
"[(	c #878682",
"](	c #979791",
"^(	c #969086",
"_(	c #66473B",
"`(	c #824E37",
"a(	c #A49080",
"b(	c #C4C6C7",
"c(	c #B4B3B3",
"d(	c #966A65",
"e(	c #623932",
"f(	c #6F676A",
"g(	c #93959B",
"h(	c #8E9094",
"i(	c #8F9092",
"j(	c #8D8E90",
"k(	c #8F9090",
"l(	c #8E8E8D",
"m(	c #8E8E8C",
"n(	c #8D8D8A",
"o(	c #8B8B87",
"p(	c #888883",
"q(	c #8B8986",
"r(	c #8E857A",
"s(	c #704535",
"t(	c #92624E",
"u(	c #BBB6B2",
"v(	c #C1C2C2",
"w(	c #B9BABA",
"x(	c #A38985",
"y(	c #754B40",
"z(	c #82706E",
"{(	c #919294",
"|(	c #647374",
"}(	c #767B7D",
"~(	c #99989B",
" )	c #9A9A9D",
"!)	c #8A8A8A",
"#)	c #8C8D8C",
"$)	c #8F908D",
"%)	c #949491",
"&)	c #999A97",
"')	c #9B9496",
"()	c #797777",
"))	c #737973",
"*)	c #A4A49B",
"+)	c #8D7365",
",)	c #7A4932",
"-)	c #A5897C",
".)	c #C3C5C6",
"0)	c #C0C0BF",
"1)	c #B7B7B6",
"2)	c #D0D0D3",
"3)	c #9C7C77",
"4)	c #834E43",
"5)	c #A37B76",
"6)	c #9A7C7E",
"7)	c #80787E",
"8)	c #88888D",
"9)	c #8A898E",
":)	c #89898B",
";)	c #898B89",
"<)	c #878A88",
"=)	c #888A89",
">)	c #888886",
"?)	c #888885",
"@)	c #888986",
"A)	c #848681",
"B)	c #827B72",
"C)	c #AB8F84",
"D)	c #9F7566",
"E)	c #7F5441",
"F)	c #967865",
"G)	c #BCBCB9",
"H)	c #C1C1C2",
"I)	c #B6B5B4",
"J)	c #D2D9E3",
"K)	c #E4E2EA",
"L)	c #BCB5B3",
"M)	c #B19F9C",
"N)	c #AA8E88",
"O)	c #B7AFB2",
"P)	c #C1C3C9",
"Q)	c #B7B7BD",
"R)	c #B2B2B6",
"S)	c #B0B1B2",
"T)	c #B2B3B4",
"U)	c #B4B4B4",
"V)	c #BBBBBB",
"W)	c #C8CACA",
"X)	c #B4A397",
"Y)	c #996B62",
"Z)	c #AA7E76",
"[)	c #A8998C",
"])	c #CAC0BB",
"^)	c #CCC6C1",
"_)	c #BDBEBE",
"`)	c #B7B6B5",
"a)	c #CDD6E1",
"b)	c #E5ECF8",
"c)	c #E8EAF9",
"d)	c #E2E9F4",
"e)	c #D9E4EA",
"f)	c #D8DDE3",
"g)	c #D4D6DE",
"h)	c #CED1D8",
"i)	c #CBCDD2",
"j)	c #CBCCCF",
"k)	c #CDCED1",
"l)	c #D5D5D6",
"m)	c #DCDDDE",
"n)	c #D3CCCD",
"o)	c #D8C4C9",
"p)	c #EADDE2",
"q)	c #E9EDEC",
"r)	c #E5EAEB",
"s)	c #CBCCCC",
"t)	c #D1D5DE",
"u)	c #E5EAEF",
"v)	c #DFE5E7",
"w)	c #DCDFE8",
"x)	c #D8D7E6",
"y)	c #D5D7E2",
"z)	c #D3D7E0",
"{)	c #D3D6E0",
"|)	c #D5D8E0",
"})	c #D8D9DE",
"~)	c #DCDDE2",
" *	c #DAD9DE",
"!*	c #DCDBDF",
"#*	c #DFDFE3",
"$*	c #DFE1E5",
"%*	c #DFE6E8",
"&*	c #E1E4E5",
"'*	c #E8E1E2",
"(*	c #E3E2E4",
")*	c #CACACB",
"**	c #D2D4DC",
"+*	c #E7E7F4",
",*	c #DFE1ED",
"-*	c #D8DBE6",
".*	c #D5D7E3",
"0*	c #D3D5E1",
"1*	c #D1D3DF",
"2*	c #D2D4E0",
"3*	c #D1D4DF",
"4*	c #D2D5DE",
"5*	c #D9D9DE",
"6*	c #D9D8DD",
"7*	c #D8D7DC",
"8*	c #DBDADF",
"9*	c #DEDCDF",
":*	c #DFDFE1",
";*	c #E0E1E3",
"<*	c #E3E2E2",
"=*	c #CCCBCC",
"! # $ % & ' ( ) * + , - . 0 1 2 3 4 5 6 7 8 9 : ; < = > ? @ A B ",
"C D E F G H I J ) K L M N 0 O O P Q R S T U V : ; W X Y Z [ ] ^ ",
"_ ` a b c d e f g h i j k l m m n o p q r s t V u v w [ x y z { ",
"| } ~  !!!#!$!%!g f &!'!(!)!*!+!,!-!p .!0!< V s 1!2!3!@ 4!5!6!7!",
"8!9!:!;!<!=!>!?!@!A!B!C!D!E!F!G!H!I!J!K!< L!8 M!N!O!P!Q!R!P![ S!",
"T!U!?!V!W!X!Y!Z!T![!]!^!_!`!a!b!c!d!e!w f!L!< g!N!h!i!j!k!l!m!n!",
"o!p!q!r!s!t!u!v!w!x!y!z!{!|!}!~! #!###_ 3!f!< $#N!P!%#&#l!'#(#)#",
"*#d +#,#-#.#0#1#2#3#4#5#6#7#8#9#:#;#<#=#>#?#@#7 A#B#C#D#E#E#F#G#",
"H#' I#J#K#L#M#N#O#P#Q#R#S#T#U#T#V#W#X#Y#Z#[#]#^#_#`#a#b#c#d#e#f#",
"g#H#q!h#i#j#k#l#m#n#o#p#q#r#s#s#t#u#v#w#x#y#z#{#|#}#~# $!$#$$$%$",
"&$'$($)$*$+$,$-$.$.$0$1$2$3$2$4$:#5$6$7$8$9$:$;$<$=$>$?$@$A$B$C$",
"D$E$F$G$H$I$J$K$L$M$N$O$P$Q$R$S$T$U$V$W$X$Y$Z$[$~#]$^$_$`$a$b$c$",
"d$e$f$g$h$i$j$k$l$m$n$o$p$q$r$s$t$u$v$w$x$y$z${$|$}$~$ %!%#%h!$%",
"1!%%&%'%(%)%*%+%,%-%.%0%1%2%3%4%5%6%7%7%8%9%:%;%<%=%>%?%@%A%B%C%",
"D%%%E%F%G%H%I%J%K%L%M%N%O%P%Q%Q%R%S%T%S%U%V%W%X%Y%Z%[%]%^%_%`%a%",
"b%c%d%e%f%g%h%i%j%k%l%m%n%o%p%q%r%s%t%u%v%w%x%y%z%{%|%}%~% &!&#&",
"$&%&&&'&(&)&*&+&,&-&.&0&1&2&3&4&4&5&6&7&8&9&:&;&<&=&>&?&@&~%A&B&",
"C&D&E&F&e$G&H&,&I&J&K&L&M&N&4&O&O&P&Q&5&R&S&T&U&V&W&X&Y&Z&[&]&^&",
"_&`&a&b&c&d&e&f&g&h&i&j&k&l&4&m&4&n&o&n&p&w%q&r&s&t&u&v&w&x&y&{ ",
"B z&{&|&}&~& '!'#'$'%'&'''(')'*'+'m&P&,'-'.'0'1'2'3'4'5'6'7'8'9'",
"9'B :';'<'='>'?'@'A'B'C'D'E'F'G'+'E'H'I'J'K'L'M'N'O'P'Q'R'S'T'U'",
"T'B 9'V'W'X'Y'Z'[']'^'_'`'a'b'c'd'e'f'g'h'i'j'k'l'm'n'o'p'q'U'U'",
"T'9'T'r's't'u'v'w'x'y'z'{'|'}'~' (!(#($(%(L'&('((()(*(+(,(-(U'U'",
"9'9'B .(0(1(2(3(4(5(6(7(8(9(:(;(;(<(=(>(?(@(A(B(C(D(E(F(G(U'U'U'",
":':'T'H(I(J(K(L(M(N(O(P(Q(R(S(T(U(V(W(X(Y(Z([(](^(_(`(a(b(U'U'U'",
"G(:'9'B c(d(e(f(g(h(Q(i(j(k(S(S(l(m(n(W(o(p(q(U%r(s(t(u(v(U'U'U'",
"G(:'9'9'w(x(y(z({(|(}(~( )9(T(!)#)$)%)&)')()))*)+),)-).)0)U'U'U'",
"G(:'9'9'1)2)3)4)5)6)7)8)9):);)<)=)>)?)@)A)B)C)D)E)F)G)H)U'U'U'U'",
"G(:':'9'I)J)K)L)M)N)O)P)Q)R)S)S)T)U)V)W)X)Y)Z)[)])^)_)U'U'U'U'U'",
"G(:':'9'`)a)b)c)d)e)f)g)h)i)j)j)k)J!l)m)n)o)p)q)r)s)V)U'U'U'U'U'",
":':':'9'`)t)u)v)w)x)y)z){)|)})f ~) *!*#*$*%*&*'*(*)*V)U'U'U'U'U'",
":':':'T'`)**+*,*-*.*0*1*2*3*4*5*6*7*8*.!9*:*;*<*(*=*V)U'U'U'U'U'"};