/* XPM */
static char *timelineIn[] = {
/* columns rows colors chars-per-pixel */
"32 32 101 2",
"   c gray3",
".  c gray7",
"X  c #1E1E1E",
"o  c #2D2D2D",
"O  c #414141",
"+  c gray26",
"@  c #464646",
"#  c gray28",
"$  c #4B4B4B",
"%  c gray30",
"&  c #4E4E4E",
"*  c gray31",
"=  c #505050",
"-  c gray35",
";  c #5A5A5A",
":  c #5B5B5B",
">  c #606060",
",  c #626262",
"<  c gray39",
"1  c #686868",
"2  c DimGray",
"3  c #6A6A6A",
"4  c gray42",
"5  c #6C6C6C",
"6  c #6D6D6D",
"7  c #717171",
"8  c #727272",
"9  c gray45",
"0  c #747474",
"q  c gray46",
"w  c #767676",
"e  c #777777",
"r  c gray47",
"t  c gray48",
"y  c #7C7C7C",
"u  c gray49",
"i  c #7E7E7E",
"p  c gray50",
"a  c #818181",
"s  c #848484",
"d  c gray52",
"f  c #888888",
"g  c gray54",
"h  c #8B8B8B",
"j  c #959595",
"k  c gray59",
"l  c #989898",
"z  c gray60",
"x  c gray61",
"c  c #9D9D9D",
"v  c gray62",
"b  c #A0A0A0",
"n  c gray63",
"m  c gray64",
"M  c #A4A4A4",
"N  c #A5A5A5",
"B  c #A9A9A9",
"V  c #AAAAAA",
"C  c gray67",
"Z  c #AEAEAE",
"A  c #B2B2B2",
"S  c gray70",
"D  c #B4B4B4",
"F  c gray71",
"G  c #B6B6B6",
"H  c #B7B7B7",
"J  c gray72",
"K  c #B9B9B9",
"L  c gray73",
"P  c #BBBBBB",
"I  c #BCBCBC",
"U  c gray74",
"Y  c gray",
"T  c gray75",
"R  c #C0C0C0",
"E  c #C1C1C1",
"W  c gray76",
"Q  c #C3C3C3",
"!  c gray77",
"~  c #C5C5C5",
"^  c #C6C6C6",
"/  c gray78",
"(  c #C8C8C8",
")  c gray79",
"_  c #CACACA",
"`  c #CBCBCB",
"'  c gray80",
"]  c #CDCDCD",
"[  c #CECECE",
"{  c gray81",
"}  c #D0D0D0",
"|  c gray82",
" . c #D2D2D2",
".. c LightGray",
"X. c gray83",
"o. c gray84",
"O. c #E2E2E2",
"+. c gray89",
"@. c #E4E4E4",
"#. c #E7E7E7",
"$. c #ECECEC",
/* pixels */
"^ Q Q Q Q Q Q Q Q Q Q Q Q Q Q Q Q Q Q Q Q / X t ] ^ Q Q Q Q Q ^ ",
"Q Q Q Y Y Q Y Y Y Q Y Q Q Y Q Y Y Y Y Q Y ^ . 8 ] Y Q Y Y Y Q Q ",
"Q Y Q Y Y Q Q Y Q Y Y Q Y Y Q Q Y Q Q Y Q ^ . 8 ] Y Q Q Q Y Y Q ",
"Q Y Y Q Q Y Y Q Y Y Q Y Y Q Y Y Y Y Q Y Y ^ . 8 ] Q Y Y Y Q Y Q ",
"Q Y Q Y Y Q Y Q Y Q Y Q Y Q Y Q Q Y Y Q Y ^ . 8 ] Y Q Y Y Y Q Q ",
"Q Y Y Q Y Y Y Y Y Q Y Y Y Y Y Y Y Y Y Q Y ^   6 ] Y Y Q Y Q Y Q ",
"/ / / / / ^ ^ ^ / / / / / / ^ ^ / / / / ^ ] O h  .^ / / / / ^ / ",
"+.+.+.+.+.+.+.+.+.+.+.+.+.+.+.+.+.+.+.+.+.+.$.+.+.+.+.+.+.+.+.+.",
"N v v v v v v v v v v v m v v v v v v v v v v v v v v v v v v m ",
"2 > > > > > : : : : - : : : : : : : : : : : : : : : : : : : : > ",
"s i i i i i V F Z F Z Z F Z Z F Z Z F F Z F Z F Z Z F F Z F Z L ",
"s i i i q N  ./ / ] / / / / ] / / ] / / ] / / ] ] ] / / ] / / ] ",
"s i i i q V ] Y Q ]  . . . .Y L Q Y Q Y F Q Q v l Q Y ^ L Y Q Q ",
"s t t i q V / Y ] / Y Q Q ^ N l ^ Q ^ O i ] 8 : : q / N o L Y Q ",
"s i i i q V ] Y ] / Q Q Y Q m l ^ ^ f $ i ^ #  . .# F 8 O F Q Q ",
"s i t i q C ] Y ] / Q Y Y ^ N k ^ Q ] i t ^ $ Q Q $ Y ] = Z Q Q ",
"s i i i q V / Y ] / Y Q Q Q N l ^ Y / i t ^ $ ^ Q $ L / * F Q Q ",
"s t i t t V ] Y ] / Y Q Y ^ m l ^ Q / t t ^ # ] ] # Y / * Z Q Q ",
"s i i i q V ] Y ] / L L L Y v k ^ Y ] t t ] 8 : : 8 Q / = Z Q Q ",
"s i i i q V ] Q ] Q f h h f s V ^ Q Q Y L ^ Q m m Q Q Q L Y Q Q ",
"s i i i q C ] Z Z F L L F L L F F Z F F F F F L L F F Z F F F L ",
"i t t t q k l 6 6 6 6 6 6 6 6 6 6 6 6 2 6 6 6 2 6 6 6 6 6 6 6 8 ",
" .] ] ] ] ] /  . . . . . . . . . . . . . . . . . . . . . . . . .",
"o. .o.o.o.o.o. . .o. . . .o. .o.o.o. .o.o. . .o. .o. .o. . .o.o.",
"m l v v l v v l v l v v l v v l v l v v v v l v v l v l v v l m ",
"* $ # $ # # # # # $ # # # # # $ # # # $ # # # $ # $ # $ # # # * ",
"2 > < > < < > > < < > < > < > < > > < > > > > < > > < < > < > 2 ",
"2 < < < < < < < < < < < > < < < < < < < < > < < > < < < < < > 6 ",
"6 < < < < < < < < < < < < < < < < < < < < < < < < < < < < < < 6 ",
"2 < < < < < < < < < < < < < < < < < < < < < < < < < < < < < > 6 ",
"2 < < < < > < < > < < > < < < < < > < < < < < > < < > < < < < 2 ",
"8 6 2 6 6 6 2 6 6 2 6 6 2 6 2 6 6 6 2 6 2 6 6 6 2 6 6 2 6 2 6 q "
};
