/* XPM */
static char *timelineOut[] = {
/* columns rows colors chars-per-pixel */
"32 32 110 2",
"   c gray3",
".  c gray7",
"X  c #1B1B1B",
"o  c gray20",
"O  c #373737",
"+  c #414141",
"@  c gray26",
"#  c #434343",
"$  c gray28",
"%  c gray29",
"&  c #4E4E4E",
"*  c gray31",
"=  c gray33",
"-  c #565656",
";  c gray34",
":  c gray35",
">  c #5A5A5A",
",  c #5D5D5D",
"<  c gray37",
"1  c #5F5F5F",
"2  c #606060",
"3  c #626262",
"4  c gray39",
"5  c #646464",
"6  c #656565",
"7  c #676767",
"8  c #6A6A6A",
"9  c #6C6C6C",
"0  c #6D6D6D",
"q  c #717171",
"w  c #727272",
"e  c gray45",
"r  c gray46",
"t  c #767676",
"y  c gray47",
"u  c gray48",
"i  c #7B7B7B",
"p  c #7C7C7C",
"a  c gray49",
"s  c #7E7E7E",
"d  c #808080",
"f  c #818181",
"g  c #838383",
"h  c #848484",
"j  c gray52",
"k  c #898989",
"l  c gray54",
"z  c #8B8B8B",
"x  c gray55",
"c  c #8D8D8D",
"v  c #8E8E8E",
"b  c #929292",
"n  c #939393",
"m  c gray58",
"M  c gray59",
"N  c #989898",
"B  c gray60",
"V  c #9B9B9B",
"C  c gray61",
"Z  c #9D9D9D",
"A  c gray62",
"S  c #9F9F9F",
"D  c #A0A0A0",
"F  c gray63",
"G  c #A4A4A4",
"H  c #A5A5A5",
"J  c gray66",
"K  c #A9A9A9",
"L  c #AEAEAE",
"P  c #B1B1B1",
"I  c #B2B2B2",
"U  c gray70",
"Y  c #B4B4B4",
"T  c gray71",
"R  c #B6B6B6",
"E  c #B7B7B7",
"W  c gray72",
"Q  c #B9B9B9",
"!  c gray73",
"~  c #BCBCBC",
"^  c gray74",
"/  c gray",
"(  c gray75",
")  c #C0C0C0",
"_  c #C1C1C1",
"`  c gray76",
"'  c #C3C3C3",
"]  c gray77",
"[  c #C5C5C5",
"{  c #C6C6C6",
"}  c gray78",
"|  c #C8C8C8",
" . c gray79",
".. c #CACACA",
"X. c #CBCBCB",
"o. c gray80",
"O. c #CDCDCD",
"+. c #CECECE",
"@. c gray81",
"#. c #D0D0D0",
"$. c gray82",
"%. c #D2D2D2",
"&. c gray83",
"*. c #D5D5D5",
"=. c #DDDDDD",
"-. c gray87",
";. c #E2E2E2",
":. c gray89",
">. c #E7E7E7",
",. c #ECECEC",
/* pixels */
"_ _ _ ( _ ( _ X.r X { ( _ ( _ ( _ ( _ ( _ ( ! ( ( ( _ ( _ ( _ _ ",
"( _ ( _ ( _ _ o.q . { _ ( _ ( _ ( _ ( _ ( _ ( ( ( _ ( _ ( _ _ ( ",
"_ ( _ ( _ ( _ o.q . { ( _ ( _ ( _ ( _ ( _ ( _ ( _ ( _ ( ( _ ( _ ",
"( _ ( _ ( _ _ o.q . { _ ( _ ( _ ( _ ( _ ( _ ( _ ( _ ( _ _ ( _ ( ",
"_ ( _ ( _ ( _ o.q . { ( _ ( _ _ _ ( _ ( _ ( _ ( _ ( _ ( ( _ ( _ ",
"( ( ( ( ( ( ( o.8   { ( ( ( ( ( ( ( ( _ ( ( ( _ ( ( ( ( ( ( ( ( ",
"{ { X.{ { X.{ $.v # X.X.{ { { { { X.{ { { X.{ { { { X.{ { X.{ { ",
":.;.;.;.;.:.;.;.:.,.;.:.:.;.;.;.;.:.;.;.;.:.;.;.:.;.;.;.;.:.:.;.",
"S S S S S S S S S S S S S S S S S S S S S S S S S S S S S S S S ",
"1 > > > > > > > > > > = > > > > = > > > > > = > > > > 3 1 1 1 1 ",
"P P P P P P P P U P P P P P P P P P P P P P P P P P P g p p p f ",
"X.X.X.X.$.o.X.X.o.o.o.X.X.o.o.X.X.o.X.{ X.X.X.X.X.X.X.r p p p f ",
"_ ( _ ( S S _ { S S U { { ( ! _ ( ( X.$.$.$.$.o.! ( ( r p f p f ",
"_ _ _ 8 1 = f v = 3 3 ! ! o M { _ ( $.{ _ _ _ X.M G _ r p p p f ",
"_ _ ! H o.X.& & U -.> S g # M X.( ( $.{ ( _ _ { M G { r p p p f ",
"_ ( _ { _ ! = = H $.> S *.7 n { _ ( o.{ ( _ _ X.M H _ r p f p f ",
"_ _ _ { ( 1 P = H $.> S $.3 n { ( ( o.{ ( _ ( { M G _ r p p f f ",
"_ _ _ _ 8 L -.% U -.= M $.3 n { _ ( o.{ ( _ _ { M G _ r p p p f ",
"_ _ { # O 3 u v = 3 3 ! $.7 n { _ ( $._ ! ! ! _ M G { r p f p f ",
"_ _ { H G S H X.G S ! { { U ( { _ _ o.M l l l l g U _ r p p p f ",
"U U U ! ! ! U U ! ! U U P ! U U U U U ! U ! ! ! ! ! P q p p p f ",
"r 0 0 0 0 0 0 0 0 0 0 q 0 0 0 0 0 0 0 0 0 0 0 0 0 0 0 q p u u u ",
"$.$.$.$.$.$.$.$.$.$.$.$.$.$.$.$.$.$.$.$.$.$.$.$.$.$.$.$.$.o.$.o.",
"*.*.*.*.*.*.*.$.*.*.*.*.*.*.*.*.*.*.*.$.*.*.*.$.*.$.$.*.*.*.*.*.",
"M S S M S S M S M S S M S S S M M S M S M S M S S M S M S S M S ",
"$ $ $ $ $ $ $ $ $ $ $ $ $ $ $ % % $ % $ % $ % $ $ % $ $ $ $ $ $ ",
"3 3 3 3 3 3 3 3 3 3 3 3 3 3 3 3 3 3 3 3 3 3 3 3 3 3 3 3 3 3 3 3 ",
"3 7 3 3 3 7 3 3 7 3 3 3 3 3 3 3 3 3 3 7 3 3 3 3 3 3 7 3 7 3 3 3 ",
"3 3 3 3 3 7 3 3 3 3 3 3 7 3 3 7 3 3 3 3 7 3 3 7 3 3 7 3 3 3 7 3 ",
"3 3 7 3 3 3 3 3 7 3 3 7 3 3 3 3 7 3 3 7 3 3 3 3 7 3 3 3 3 3 3 3 ",
"7 3 7 3 3 7 7 3 3 3 3 3 3 3 3 3 3 3 3 3 3 3 3 3 3 3 3 3 3 3 3 7 ",
"7 3 3 3 3 3 3 3 3 7 3 3 7 3 3 7 3 3 7 3 7 3 3 7 3 3 7 3 3 3 3 7 "
};
