/* XPM */ 
static const unsigned char * togglepb_xpm[] = {
"32 32 400 2",
"  	c None",
"! 	c #C9C9C9",
"# 	c #C4C4C4",
"$ 	c #C3C3C3",
"% 	c #C0C0C0",
"& 	c #C1BABB",
"' 	c #CAA9AC",
"( 	c #CB9298",
") 	c #D38F96",
"* 	c #D48087",
"+ 	c #D87A83",
", 	c #D6737E",
"- 	c #D87882",
". 	c #D57E86",
"0 	c #D2858C",
"1 	c #D08F96",
"2 	c #CC989D",
"3 	c #C7ADAF",
"4 	c #C3BCBC",
"5 	c #C6B9BA",
"6 	c #D84656",
"7 	c #DA3546",
"8 	c #DA3344",
"9 	c #D82F40",
": 	c #D93142",
"; 	c #D82E3F",
"< 	c #D82F41",
"= 	c #D93043",
"> 	c #D93244",
"? 	c #D83143",
"@ 	c #D93547",
"A 	c #D9384A",
"B 	c #DA4151",
"C 	c #C79EA2",
"D 	c #C9ADB0",
"E 	c #D82B37",
"F 	c #DA3240",
"G 	c #DA3646",
"H 	c #DA3A4A",
"I 	c #DA3C4C",
"J 	c #DB3D4D",
"K 	c #DB3D4E",
"L 	c #DA3B4B",
"M 	c #DA3B4C",
"N 	c #DA3C4D",
"O 	c #DB3B4B",
"P 	c #DB3544",
"Q 	c #D82636",
"R 	c #CE9EA3",
"S 	c #C59699",
"T 	c #D31F24",
"U 	c #DA2127",
"V 	c #DA242C",
"W 	c #DA2D38",
"X 	c #DA303D",
"Y 	c #DB303C",
"Z 	c #DB313C",
"[ 	c #DB2F3B",
"] 	c #DB2E3B",
"^ 	c #DB2C37",
"_ 	c #DA2832",
"` 	c #DA2229",
"a 	c #D6161E",
"b 	c #D1A7AA",
"c 	c #C28D8F",
"d 	c #D61D22",
"e 	c #DB2126",
"f 	c #DA262E",
"g 	c #DB2932",
"h 	c #DB2A33",
"i 	c #DB2C36",
"j 	c #DB2B35",
"k 	c #D71A22",
"l 	c #CE8B91",
"m 	c #C5ACAD",
"n 	c #CA1F24",
"o 	c #DB1A25",
"p 	c #DD1E29",
"q 	c #DD232E",
"r 	c #DE2630",
"s 	c #DF2933",
"t 	c #DF2C36",
"u 	c #DE2A36",
"v 	c #DD2733",
"w 	c #DC212E",
"x 	c #CF1E23",
"y 	c #C79191",
"z 	c #BDB4AA",
"{ 	c #9F5E3A",
"| 	c #B54836",
"} 	c #BF4139",
"~ 	c #C03835",
" !	c #BE3031",
"!!	c #BE2A30",
"#!	c #BE252C",
"$!	c #BE242B",
"%!	c #BE272E",
"&!	c #C23235",
"'!	c #C53E3C",
"(!	c #C6453D",
")!	c #C0513C",
"*!	c #BA7849",
"+!	c #C4B9A4",
",!	c #B6A68D",
"-!	c #C29A60",
".!	c #D1AC72",
"0!	c #D3AD72",
"1!	c #D7AF7B",
"2!	c #D6AD81",
"3!	c #CFA175",
"4!	c #CB986A",
"5!	c #CA9668",
"6!	c #CD9D70",
"7!	c #D6AA7E",
"8!	c #DEB888",
"9!	c #DEBA82",
":!	c #DBB87B",
";!	c #D1A96D",
"<!	c #C1A990",
"=!	c #B2887B",
">!	c #B58E57",
"?!	c #BC9D61",
"@!	c #C4A468",
"A!	c #CDAE75",
"B!	c #DDB984",
"C!	c #E4BC83",
"D!	c #E2B87B",
"E!	c #E2B77A",
"F!	c #E2B87A",
"G!	c #E3BB81",
"H!	c #DFB381",
"I!	c #D5A671",
"J!	c #C89861",
"K!	c #B78C56",
"L!	c #ACA791",
"M!	c #BE6A6C",
"N!	c #CC332B",
"O!	c #CC513B",
"P!	c #C85439",
"Q!	c #C9613C",
"R!	c #B57E61",
"S!	c #A98C72",
"T!	c #A88666",
"U!	c #AB8867",
"V!	c #AE8C6E",
"W!	c #A58676",
"X!	c #928D56",
"Y!	c #7E8444",
"Z!	c #737F40",
"[!	c #5F7D3D",
"]!	c #8EA48A",
"^!	c #BD6E6E",
"_!	c #D1191F",
"`!	c #D6171E",
"a!	c #DE494F",
"b!	c #ED4446",
"c!	c #8B3D70",
"d!	c #25379D",
"e!	c #696BB0",
"f!	c #5E5FA8",
"g!	c #323796",
"h!	c #2B3291",
"i!	c #789D7E",
"j!	c #BDD4BA",
"k!	c #CBDECC",
"l!	c #769B6B",
"m!	c #8EA186",
"n!	c #D01D20",
"o!	c #CD181A",
"p!	c #D8C5C5",
"q!	c white",
"r!	c #A39EC7",
"s!	c #797CAD",
"t!	c #FFFEFD",
"u!	c #6365AA",
"v!	c #7679B0",
"w!	c #CDCCCD",
"x!	c #E5E0E5",
"y!	c #BACDB4",
"z!	c #899D81",
"{!	c #BD6E6F",
"|!	c #D21C1F",
"}!	c #CC171B",
"~!	c #D6C2C2",
" #	c #A1A0C9",
"!#	c #8B8BA3",
"##	c #6E6FA8",
"$#	c #A6A6B6",
"%#	c #B7BDB7",
"&#	c #D7D4D7",
"'#	c #C1D1BB",
"(#	c #899D82",
")#	c #BE7172",
"*#	c #D41C20",
"+#	c #CC0B0F",
",#	c #D6C1C1",
"-#	c #AAA9D2",
".#	c #413F6B",
"0#	c #C8C7C0",
"1#	c #BCBCD1",
"2#	c #363987",
"3#	c #B1AFB3",
"4#	c #B9BEB9",
"5#	c #B0AEB0",
"6#	c #98AB91",
"7#	c #8A9E83",
"8#	c #BC6B6C",
"9#	c #DB9697",
":#	c #E28E90",
";#	c #D5C4C4",
"<#	c #A1A0CA",
"=#	c #8485A6",
">#	c #FFFFFD",
"?#	c #6D6FA4",
"@#	c #A9A8B0",
"A#	c #CDD6CC",
"B#	c #517145",
"C#	c #476F31",
"D#	c #90A288",
"E#	c #BA6768",
"F#	c #DAB3B3",
"G#	c #F3F5F6",
"H#	c #D7D1D1",
"I#	c #8282A3",
"J#	c #A7A6AE",
"K#	c #FEFBFE",
"L#	c #9FB89C",
"M#	c #3E712D",
"N#	c #91A289",
"O#	c #BA6767",
"P#	c #D9AFAF",
"Q#	c #F1F2F2",
"R#	c #D5CFCF",
"S#	c #A3A2CB",
"T#	c #8182A3",
"U#	c #6E70A4",
"V#	c #C3CFC4",
"W#	c #60653B",
"X#	c #787148",
"Y#	c #8EA288",
"Z#	c #B96769",
"[#	c #B27F7F",
"]#	c #F3F8F8",
"^#	c #DBD6D6",
"_#	c #9898C6",
"`#	c #8182A4",
"a#	c #A6A4AD",
"b#	c #E1B6AF",
"c#	c #AC6657",
"d#	c #B96E5B",
"e#	c #9F9A86",
"f#	c #B77575",
"g#	c #972123",
"h#	c #B5BBBC",
"i#	c #F2FFFF",
"j#	c #ECEEEE",
"k#	c #5256A2",
"l#	c #888BA9",
"m#	c #6F72A7",
"n#	c #A0A4AB",
"o#	c #F1EAE7",
"p#	c #CA766F",
"q#	c #878D50",
"r#	c #B6834D",
"s#	c #A79183",
"t#	c #B16E6F",
"u#	c #C61C1D",
"v#	c #A31D20",
"w#	c #994A49",
"x#	c #9F3842",
"y#	c #432D83",
"z#	c #554A82",
"{#	c #6C628B",
"|#	c #6C618F",
"}#	c #514490",
"~#	c #534465",
" $	c #89544E",
"!$	c #D58A73",
"#$	c #D5B070",
"$$	c #CD8656",
"%$	c #A4998D",
"&$	c #B36D6E",
"'$	c #B51F22",
"($	c #D91E21",
")$	c #D11D1E",
"*$	c #DD3524",
"+$	c #DC6E30",
",$	c #CB5D35",
"-$	c #BE4F37",
".$	c #BE5C38",
"0$	c #CE7036",
"1$	c #D94B32",
"2$	c #DB2A2E",
"3$	c #C94935",
"4$	c #BB8A3F",
"5$	c #C3784B",
"6$	c #9CA091",
"7$	c #B66F6E",
"8$	c #C2181D",
"9$	c #D11E22",
":$	c #CB2A27",
";$	c #CF2B27",
"<$	c #CE5432",
"=$	c #DB6B30",
">$	c #DF5D2E",
"?$	c #DE682F",
"@$	c #D96432",
"A$	c #CF3F35",
"B$	c #B3362A",
"C$	c #BE4E40",
"D$	c #E17E71",
"E$	c #996851",
"F$	c #90A48B",
"G$	c #AA8F7C",
"H$	c #BC4131",
"I$	c #D31D21",
"J$	c #DD191E",
"K$	c #BD2133",
"L$	c #373191",
"M$	c #473589",
"N$	c #4D3384",
"O$	c #4C3684",
"P$	c #463289",
"Q$	c #362D90",
"R$	c #40774C",
"S$	c #5C7E3E",
"T$	c #847755",
"U$	c #797B4B",
"V$	c #ABA18B",
"W$	c #B7A999",
"X$	c #AC8B52",
"Y$	c #B8794C",
"Z$	c #BD6441",
"[$	c #AD5044",
"]$	c #534B82",
"^$	c #494689",
"_$	c #43418C",
"`$	c #44428B",
"a$	c #4C4788",
"b$	c #5B4F80",
"c$	c #7F7C51",
"d$	c #928C50",
"e$	c #97864B",
"f$	c #B58B56",
"g$	c #BCA893",
"h$	c #C2BFBC",
"i$	c #AB8554",
"j$	c #B79157",
"k$	c #BB9A5E",
"l$	c #BE9C5F",
"m$	c #C69959",
"n$	c #C29759",
"o$	c #C2975B",
"p$	c #C2975C",
"q$	c #C79B5B",
"r$	c #CB9F5B",
"s$	c #CA9C61",
"t$	c #C99B62",
"u$	c #C0945B",
"v$	c #B28956",
"w$	c #BEB6AC",
"x$	c #AB9682",
"y$	c #997144",
"z$	c #AC8350",
"{$	c #B8905B",
"|$	c #C09862",
"}$	c #C2985F",
"~$	c #C1985E",
" %	c #C49A5E",
"!%	c #C3995F",
"#%	c #C09860",
"$%	c #BC9560",
"%%	c #B28B59",
"&%	c #A17A4C",
"'%	c #AC967E",
"(%	c #C0BFBD",
")%	c #997D5F",
"*%	c #906B44",
"+%	c #926D44",
",%	c #99744B",
"-%	c #9B754C",
".%	c #9A7449",
"0%	c #997347",
"1%	c #9B754A",
"2%	c #9A754C",
"3%	c #967149",
"4%	c #936F48",
"5%	c #9E8161",
"6%	c #C1BEBA",
"7%	c #BFBEBD",
"8%	c #B7ADA3",
"9%	c #A6907B",
":%	c #9F8569",
";%	c #A08567",
"<%	c #9A7D5F",
"=%	c #977B5C",
">%	c #9E8265",
"?%	c #A2876C",
"@%	c #A58D76",
"A%	c #B5A89B",
"! # # # # # # # # # # # # # # # # # # # # # # # # # # # # # # ! ",
"$ % % % % % % % % % % % % % % % % % % % % % % % % % % % % % % $ ",
"# % % % % % % % % & ' ( ) * + , - . 0 1 2 3 4 % % % % % % % % # ",
"# % % % % % % % 5 6 7 8 9 : ; < < = > ? @ A B C % % % % % % % # ",
"# % % % % % % % D E F G H I J K L M N J O P Q R % % % % % % % # ",
"# % % % % % % % S T U V W X Y Z [ ] [ ^ _ ` a b % % % % % % % # ",
"# % % % % % % % c d e ` f g h i i j j h f U k l % % % % % % % # ",
"# % % % % % % % m n o p q r s t t t u v w o x y % % % % % % % # ",
"# % % % % % % % z { | } ~  !!!#!$!%!&!'!(!)!*!+!% % % % % % % # ",
"# % % % % % % % ,!-!.!0!1!2!3!4!5!6!7!8!9!:!;!<!% % % % % % % # ",
"# % % % % % % % =!>!?!@!A!B!C!D!E!F!G!H!I!J!K!L!% % % % % % % # ",
"# % % % % % % % M!N!O!P!Q!R!S!T!U!V!W!X!Y!Z![!]!% % % % % % % # ",
"# % % % % % % % ^!_!`!a!b!c!d!e!f!g!h!i!j!k!l!m!% % % % % % % # ",
"# % % % % % % % ^!n!o!p!q!r!s!q!t!u!v!q!w!x!y!z!% % % % % % % # ",
"# % % % % % % % {!|!}!~!q! #!#q!q!##$#q!%#&#'#(#% % % % % % % # ",
"# % % % % % % % )#*#+#,#q!-#.#0#1#2#3#q!4#5#6#7#% % % % % % % # ",
"# % % % % % % % 8#9#:#;#q!<#=#>#q!?#@#q!A#B#C#D#% % % % % % % # ",
"# % % % % % % % E#F#G#H#q!<#I#q!q!?#J#q!K#L#M#N#% % % % % % % # ",
"# % % % % % % % O#P#Q#R#q!S#T#q!q!U#J#q!V#W#X#Y#% % % % % % % # ",
"# % % % % % % % Z#[#]#^#q!_#`#q!q!U#a#q!b#c#d#e#% % % % % % % # ",
"# % % % % % % % f#g#h#i#j#k#l#q!q!m#n#o#p#q#r#s#% % % % % % % # ",
"# % % % % % % % t#u#v#w#x#y#z#{#|#}#~# $!$#$$$%$% % % % % % % # ",
"# % % % % % % % &$'$($)$*$+$,$-$.$0$1$2$3$4$5$6$% % % % % % % # ",
"# % % % % % % % 7$8$9$:$;$<$=$>$?$@$A$B$C$D$E$F$% % % % % % % # ",
"# % % % % % % % G$H$I$J$K$L$M$N$O$P$Q$R$S$T$U$V$% % % % % % % # ",
"# % % % % % % % W$X$Y$Z$[$]$^$_$`$a$b$c$d$e$f$g$% % % % % % % # ",
"# % % % % % % % h$i$j$k$l$m$n$o$p$q$r$s$t$u$v$w$% % % % % % % # ",
"# % % % % % % % % x$y$z${$|$}$~$ %!%#%$%%%&%'%% % % % % % % % # ",
"# % % % % % % % % (%)%*%+%,%-%.%0%1%2%3%4%5%6%% % % % % % % % # ",
"# % % % % % % % % % 7%8%9%:%;%<%=%>%?%@%A%(%% % % % % % % % % # ",
"$ % % % % % % % % % % % % % % % % % % % % % % % % % % % % % % $ ",
"! # # # # # # # # # # # # # # # # # # # # # # # # # # # # # # ! "};