/* XPM */
static char *imgPlaneTgl[] = {
/* columns rows colors chars-per-pixel */
"32 32 256 2",
"   c #000000",
".  c #090B0B",
"X  c #080E16",
"o  c #0D140D",
"O  c #140303",
"+  c #0F1517",
"@  c #171E29",
"#  c #122115",
"$  c #1A2817",
"%  c #1F3525",
"&  c #210404",
"*  c #2D1813",
"=  c #341817",
"-  c #380A0A",
";  c #2D2015",
":  c #20341A",
">  c #332419",
",  c #2F272D",
"<  c #262931",
"1  c #223C29",
"2  c #2F3D30",
"3  c #382625",
"4  c #3E2E32",
"5  c #393238",
"6  c #39392B",
"7  c #1C2F48",
"8  c #2D3856",
"9  c #373640",
"0  c #323653",
"q  c #393A53",
"w  c #363953",
"e  c #184827",
"r  c #1E5526",
"t  c #175924",
"y  c #1A6823",
"u  c #35541B",
"i  c #264927",
"p  c #224828",
"a  c #284928",
"s  c #264429",
"d  c #2F4D32",
"f  c #205620",
"g  c #24532A",
"h  c #235C25",
"j  c #235A29",
"k  c #29522A",
"l  c #2C5B2B",
"z  c #285A31",
"x  c #3A4B29",
"c  c #3D4B3B",
"v  c #34552C",
"b  c #32582E",
"n  c #3C5926",
"m  c #305330",
"M  c #23691D",
"N  c #24602B",
"B  c #2B642B",
"V  c #286C25",
"C  c #2E742D",
"Z  c #227422",
"A  c #316D2B",
"S  c #306030",
"D  c #386739",
"F  c #396835",
"G  c #337134",
"H  c #215F4F",
"J  c #2D5B4A",
"K  c #36435D",
"L  c #395C48",
"P  c #2C4D78",
"I  c #2D604F",
"U  c #256454",
"Y  c #2B6652",
"T  c #2E6E5A",
"R  c #286A57",
"E  c #2E715B",
"W  c #3B6542",
"Q  c #376855",
"!  c #34745B",
"~  c #3E725D",
"^  c #2C6C65",
"/  c #2C7674",
"(  c #347667",
")  c #357372",
"_  c #560C0E",
"`  c #4D2F36",
"'  c #442B33",
"]  c #423624",
"[  c #473339",
"{  c #572123",
"}  c #553D22",
"|  c #51333B",
" . c #781D15",
".. c #7A1D1C",
"X. c #751A19",
"o. c #69070D",
"O. c #7B1D20",
"+. c #651B2A",
"@. c #63381F",
"#. c #792519",
"$. c #6E2E34",
"%. c #6A3421",
"&. c #663937",
"*. c #78272A",
"=. c #7C2D32",
"-. c #713C24",
";. c #493943",
":. c #6F3B41",
">. c #434022",
",. c #40542D",
"<. c #495D2E",
"1. c #405734",
"2. c #59512B",
"3. c #43632A",
"4. c #456736",
"5. c #70452A",
"6. c #794334",
"7. c #4A4250",
"8. c #52424A",
"9. c #524A42",
"0. c #525361",
"q. c #4E6B4D",
"w. c #5B634E",
"e. c #566B57",
"r. c #51785F",
"t. c #587D5E",
"y. c #577B62",
"u. c #6C4A50",
"i. c #615D47",
"p. c #774544",
"a. c #765E63",
"s. c #736845",
"d. c #6B646E",
"f. c #666978",
"g. c #6E7C64",
"h. c #75727C",
"j. c #7B777A",
"k. c #294F84",
"l. c #36649F",
"z. c #3D78C6",
"x. c #4B75B1",
"c. c #5A78A9",
"v. c #777987",
"b. c #7D7B89",
"n. c #727789",
"m. c #667DAB",
"M. c #498363",
"N. c #47857F",
"B. c #548666",
"V. c #3E8387",
"C. c #45838B",
"Z. c #438390",
"A. c #5795AF",
"S. c #5F99BC",
"D. c #4DA2A2",
"F. c #6D8988",
"G. c #6E9C9C",
"H. c #7586AD",
"J. c #7D9BA5",
"K. c #5687C0",
"L. c #5389D0",
"P. c #4084E1",
"I. c #4F90E4",
"U. c #4896FF",
"Y. c #4B98FF",
"T. c #5994E0",
"R. c #519CFF",
"E. c #55A0FF",
"W. c #5BA2FF",
"Q. c #5FA0F3",
"!. c #6A8DCB",
"~. c #629BE5",
"^. c #689FFA",
"/. c #6CA5D3",
"(. c #61A7FF",
"). c #66AAFF",
"_. c #6DAFFF",
"`. c #69A2FB",
"'. c #76ACEA",
"]. c #78A8F7",
"[. c #7CACFF",
"{. c #78A6FC",
"}. c #7BB2E8",
"|. c #7CB2F6",
" X c #7EB0FE",
".X c #79C3C4",
"XX c #7DDEDE",
"oX c #7CE8E8",
"OX c #76FFFF",
"+X c #7BF2F2",
"@X c #78FEFE",
"#X c #840D19",
"$X c #8C1616",
"%X c #8E1D1D",
"&X c #861A1A",
"*X c #960912",
"=X c #911615",
"-X c #971817",
";X c #941C1B",
":X c #9C1515",
">X c #991817",
",X c #9A1A1A",
"<X c #88231B",
"1X c #95221E",
"2X c #812222",
"3X c #82252A",
"4X c #8A2322",
"5X c #8B2329",
"6X c #8A2B2A",
"7X c #882924",
"8X c #8D2F33",
"9X c #842834",
"0X c #84342B",
"qX c #8B3337",
"wX c #9A2020",
"eX c #942827",
"rX c #9F2D36",
"tX c #993232",
"yX c #923232",
"uX c #973326",
"iX c #A01616",
"pX c #974E33",
"aX c #99593A",
"sX c #AC5935",
"dX c #845859",
"fX c #925B5B",
"gX c #826369",
"hX c #8A777A",
"jX c #906868",
"kX c #95676A",
"lX c #FE0000",
"zX c #FB0E0E",
"xX c #E84949",
"cX c #E55151",
"vX c #CAE370",
"bX c #8A8386",
"nX c #8A898E",
"mX c #869C9C",
"MX c #889A9A",
"NX c #918B93",
"BX c #9A939C",
"VX c #869FBC",
"CX c #85ADAD",
"ZX c #88B9B9",
"AX c #82B7B7",
"SX c #A98588",
"DX c #A09CA8",
"FX c #8FA8E9",
"GX c #82AFFB",
"HX c #81B3FF",
"JX c #86B8FF",
"KX c #88BBFF",
"LX c #83B8F7",
"PX c #91ABE9",
"IX c #81C5C5",
"UX c #C1C1C1",
/* pixels */
"UXUXUXUXUXUXUXUXUXUXUXUXUXUXUXUXUXUXUXUXUXUXUXUXUXUXUXUXUXUXUXUX",
"UXUXUXUXUXUXUXUXUXUXUXUXUXUXUXUXUXUXUXUXUXUXUXUXUXUXUXUXUXUXUXUX",
"UXUXUXUXUXUXUXUXUXUXUXUXUXUXUXUXUXUXUXUXUXUXUXUXUXUXUXUXUXUXUXUX",
"lXlXlXlXlXlXlXlXlXlXlXlXlXlXlXlXlXlXlXlXlXlXlXlXlXlXlXlXlXlXlXlX",
"lXHX X X[.GX[. X[.[.[.[.[.[.[.{.{.^.R.R.Y.Y.Y.Y.Y.Y.Y.Y.U.P.k.lX",
"lXFXHX XHXHX X X X X X[.[.[.[.[.[.`.R.R.R.R.R.R.Y.Y.Y.Y.z.X 8 lX",
"zXPX XJX|.'.JXHX XHX X X[. X X].!.m.c.x.I.W.R.R.W.W.E.l.    0 zX",
"zXJ.N.C.) ^ Z.'.JXHXHXHX X X|.H.h.h.bXd.K T.(.(.(.W.P       0 zX",
"zXt.M.R T U H ^ /.KXHXHXHXHXHXH.bXb.b.F.0.L.)._.R.7         w zX",
"zXw.Q ~ U T ^ U R A.KXKXHXJX|.VXNXkXu.DXn.T._.T.@           q zX",
"zXc m g.y.I ! ( E U c.}.LXS./ F.BXSXhXNXf.~.K.X             q zX",
"zX4.h 4.6.2.L r.M.! Y R ) J 9.dXgX:.a.h.f.K                 q zX",
"zXS N C @.%.m q.t.t.B.e.5.=.1X:XeX&XO.:.4                   q zX",
"zXn N V @.<Xu r j D i.dXmXCXjXbXZXZXZXAXG.) .               7.zX",
"zXv k 5.;X;X<X>.y x j.oXOXXXnXOXOXOX@X@XOX@XD.+             8.zX",
"zX<.e ;X,X,X,X1X#.7XMX@XOXCXmXOXOXOX@X@XOXOXOXV.            ;.zX",
"zX4.j %.;X;X;X&X;X>XeXfXhXfXhXAXIXIXoX+X+X+X+X.X{ & .       8.zX",
"zXx B B } -.2.e ] 1XiXiXiX,X;X:X:X:XeXyXtXtXqXp.pXwX+.s.    8.zX",
"zX,.B G B g C B e 6 2X;X>X,X:X,X,X,X-X-X,XiX#Xs.vXsX*X0X    [ zX",
"zXv k b G N h Z t p a ` *.4X%X,X,X>X=X$XiX:X:X;XaXuX$X_     4 zX",
"zX,.l s l F l r h 1 c   < 5 | | $.=.*.*.3X*.3XX.o._ -       3 zX",
"zX<.G k a b D b v 2       + < 9 9 ;.[ ` ` ` ` = & O         * zX",
"zX3.V A k a v a $                                           = zX",
"zX<.M M h i : o                                             3 zX",
"zXu B r g $ .                                               > zX",
"zX6 1 s # .                                                 > zX",
"lXx 1 #                                                     > lX",
"lXB o                                                       , lX",
"lXeX..6X6X7X . . . . . . ...2X2X2X2X2X2X..O.9X3X8X8X6X5X5X5XrXlX",
"cXxXxXxXxXxXxXxXxXxXxXxXxXxXxXxXxXxXxXxXxXxXxXxXxXxXxXxXxXxXxXcX",
"UXUXUXUXUXUXUXUXUXUXUXUXUXUXUXUXUXUXUXUXUXUXUXUXUXUXUXUXUXUXUXUX",
"UXUXUXUXUXUXUXUXUXUXUXUXUXUXUXUXUXUXUXUXUXUXUXUXUXUXUXUXUXUXUXUX"
};
