/* XPM */
static char *wireOnSel[] = {
/* columns rows colors chars-per-pixel */
"32 32 185 2",
"   c #3B3936",
".  c #3C3C3C",
"X  c #2C285A",
"o  c #2A236E",
"O  c #2C3E75",
"+  c #3B433F",
"@  c #377336",
"#  c #3F773F",
"$  c #364C42",
"%  c #3C4C44",
"&  c #3B6E56",
"*  c #3D745A",
"=  c #3D785B",
"-  c #413D3D",
";  c #733A3A",
":  c #7D3E3E",
">  c #413D42",
",  c #4D4D3D",
"<  c #54543A",
"1  c #424242",
"2  c #44444A",
"3  c #414845",
"4  c #4A4447",
"5  c #4C4449",
"6  c #4B4D44",
"7  c #4C4C4C",
"8  c #41554B",
"9  c #4A544A",
"0  c #4A5852",
"q  c #564D4D",
"w  c #535441",
"e  c #555354",
"r  c #56545E",
"t  c #545B5B",
"y  c #585657",
"u  c #5A5659",
"i  c #5A5A5A",
"p  c #4F4C62",
"a  c #534E69",
"s  c #595261",
"d  c #5A5A64",
"f  c #416E41",
"g  c #4D614D",
"h  c #416052",
"j  c #417C5E",
"k  c #536154",
"l  c #566258",
"z  c #526A53",
"x  c #5E6059",
"c  c #5B6854",
"v  c #477C62",
"b  c #4C7461",
"n  c #546060",
"m  c #5B6360",
"M  c #5B6962",
"N  c #517764",
"B  c #587265",
"V  c #587A6A",
"C  c #6C4141",
"Z  c #605656",
"A  c #605F5A",
"S  c #6B5552",
"D  c #635B63",
"F  c #636456",
"G  c #616158",
"H  c #636B52",
"J  c #696353",
"K  c #6A6952",
"L  c #756C4C",
"P  c #7C6548",
"I  c #707350",
"U  c #636263",
"Y  c #6A6A6A",
"T  c #737373",
"R  c #7E7E7E",
"E  c #131197",
"W  c #1917AC",
"Q  c #27609C",
"!  c #346F86",
"~  c #238F22",
"^  c #23BC23",
"/  c #21B33B",
"(  c #09C509",
")  c #3CC36C",
"_  c #50825D",
"`  c #468A69",
"'  c #488567",
"]  c #4F866B",
"[  c #4F8C6E",
"{  c #40936B",
"}  c #4A906E",
"|  c #439B70",
" . c #499E77",
".. c #56826C",
"X. c #558A70",
"o. c #529A76",
"O. c #5A9F7D",
"+. c #4FB64F",
"@. c #44AB77",
"#. c #42AC78",
"$. c #48A176",
"%. c #4FAB7E",
"&. c #46B27D",
"*. c #43BB7F",
"=. c #40CE78",
"-. c #5FC87B",
";. c #38AE8E",
":. c #2EA0AC",
">. c #45AC89",
",. c #43BC81",
"<. c #4DB181",
"1. c #4CBA84",
"2. c #49BF8A",
"3. c #51BA86",
"4. c #6E89AD",
"5. c #45C385",
"6. c #43C38C",
"7. c #47CB8B",
"8. c #4BC389",
"9. c #4BCB8C",
"0. c #46D28E",
"q. c #49D18F",
"w. c #43DD91",
"e. c #4BD392",
"r. c #4ED995",
"t. c #57DF9C",
"y. c #44E294",
"u. c #45E798",
"i. c #44EC9A",
"p. c #4CE399",
"a. c #43F49D",
"s. c #43F89F",
"d. c #49F19F",
"f. c #52E59D",
"g. c #52E89E",
"h. c #43FDA2",
"j. c #4CF2A1",
"k. c #53EAA1",
"l. c #5BE6A2",
"z. c #5BEBA5",
"x. c #77CA8E",
"c. c #73DFAA",
"v. c #7CDCAD",
"b. c #63E2A4",
"n. c #75E3AD",
"m. c #71E9AE",
"M. c #862223",
"N. c #9B2224",
"B. c #923535",
"V. c #A21717",
"C. c #A91717",
"Z. c #B50202",
"A. c #AB3B23",
"S. c #853F41",
"D. c #848484",
"F. c #878989",
"G. c #8B8B8B",
"H. c #959595",
"J. c #989292",
"K. c #8DB68D",
"L. c #92BB92",
"P. c #A4A4A4",
"I. c #AAAAAA",
"U. c #ABBEAB",
"Y. c #B2B2B2",
"T. c #B7B6BD",
"R. c #B5BEB4",
"E. c #BBBBBC",
"W. c #8BDCB4",
"Q. c #92D6B5",
"!. c #90DEB5",
"~. c #9CD4B9",
"^. c #A3D3BC",
"/. c #B3C8BE",
"(. c #BFC0BF",
"). c #AEC0C0",
"_. c #B3CEC1",
"`. c #BACBC3",
"'. c #B2D0C1",
"]. c #C1BEC1",
"[. c #C0C0C0",
"{. c #C2C9C5",
"}. c #C8C3C6",
"|. c #CAC2CA",
" X c #C9C9C9",
/* pixels */
"[.[.[.[.(.(.[.[.[.[.[.[.[.E.[.[.[.[.E.{.[.[.[.[.[.[.E.[.[.[.[.[.",
"[.[.[.[.[.[.[.(.[.[.[.[.[.[.[.E.[.[.[.].E.[.[.[.[.[.[.[.[.[.[.[.",
"[.[.[.[.[.[.E.[.[.E.[.[.[.[.[.{.[.[.[.[.[.[.[.[.E.[.[.[.[.[.[.[.",
"E.[.[.[.[.[.[.[.[.[.[.[.[.[.[.E.[.[.[.E.[.[.[.[.[.[.[.[.[.[.E.[.",
"[.[.[.[.[.(.[.[.[.[.[.[.[.[.[.E.[.[.[.[.(.].E.[.[.[.E.[.[.[.[.E.",
"[.[.[.[.[.[.[.(.[.[.E.[.[.[.[.[.[.[.(.[.[.(.].}.[.[.[.[.[.[.[.[.",
"[.E.[.E.[.[.E.[.[.[.[.[.[.[.[.[.E.].].[.[.[.[.K./.(.[.(.[.[.[.[.",
"[.[.[.[.[.[.[.[.[.[.[.[.E.[.[.[.[.{.[.(.[.}.|.+.U.[.[.[.[.[.[.}.",
"[.E.[.[.[.[.E.}.R.R.}.}.}.[.[.[.{. X}.}.[.[.Y.^ L.].{.}.}. XE. X",
"[.}. X X`._.^.^.x.-.n.b.b.Q.`. XP.D.D.T Y U g ( # A Y D.H.P.E.{.",
"~.z.f.t.p.p.e.e.) /  .' ` 8.p.b.O.$ . 1 4 7 9 f q 7 7 7 7 e A Y.",
"W.h.i.v 4 6 5 5 @ ~ 0 b } $.5.h.h.h.| - 1 1 4 z i i i i i i u Y.",
"^.r.= a.5.1.0.u.w.) h.u.q.1.<.o.B 2.*.- 1 X < c G i i i i i i E.",
"'.g.% 8 s.q.%.o...] m i i i u i u 1.,.- 1 < < c K G i i i u Y E.",
"{.k.* > i.X.u i i z i i i i i i u 1.*.> 1 < 2 r K F l n i y T  X",
"}.b.{ - w.%.i i K H H K i i i i s >.:.W 2 w 7 A P J S.B.i t R  X",
"{.v.#., 5.9.u A F l x I i i i i p >.;.X 1 , w F K G M.Z.C.C F. X",
"[.!.;.o ! 2.a d i s S L i i i i i 1.*.- 1 1 2 i i i t q C ; J. X",
"E.4.Q E O <.d A K G F A.N.i i i i <.*.- 1 1 e i i i i m m t P. X",
"E.R.p.  = i.i i i G x C V.: l i i 1.&.. 1 1 7 i i i i i e i I. X",
"[. Xp.% 8 h.M i i i i m i Z i i u 3.c.G . . 7 i y y Z K 4.P.(.}.",
"].}.l.& % h.V i i i i i i i i i y 3.n.}.G.4 7 i Y G.I.(.(.[.(.[.",
"[.[.~.w.% a.X.i i i i i i i i y e 8.n.{. XY.G.P.[.}.}.}.[.[.(.[.",
"[.[.}.b.#.y.o.i i i i i i y N 8.p.d.^.E.[.[.}.{.[.[.[.[.(.(.(.(.",
"[.[.[. Xg.h.<.i u u y [ 8.p.g.n.^.{.[.[.[.[.[.[.[.[.[.[.(.[.[.[.",
"E.[.[.[.~.h.7.e [ 9.a.g.n./.}.}.[.[.[.[.[.[.[.[.[.E.[.[.E.[.[.[.",
"[.[.[.[.}.n.h.p.b.W./.}.}.[.[.[.(.[.[.[.[.(.E.[.[.[.[.[.[.(.[.[.",
"[.[.[.[.[.).m.!./.}.[.(.E.[.[.[.[.[.E.(.[.[.[.(.[.[.[.[.[.[.[.[.",
"}.E.[.[.[.[.[.[.[.[.(.[.[.(.(.].(.(.[.[.[.[.[.[.[.[.[.[.(.[.[.[.",
"}.[.[.[.[.E.[.[.(.[.].(.[.[.[.(.[.[.[.(.[.[.(.[.[.[.[.[.E.[.[.[.",
"[.[.[.[.[.[.[.[.(.[.[.(.(.].[.[.(.].[.(.[.[.E.[.[.(.E.[.[.[.[.[.",
" X}.[.[.[.[.[.[.].(.[.[.[.(.(.[.[.(.[.[.[.[.[.(.[.[.[.(.[.[.[.[."
};
